<svg version="1.1" xmlns="http://www.w3.org/2000/svg" viewBox="0 0 241.92182196044905 212.40571261682624" width="241.92182196044905" height="212.40571261682624">
  <!-- svg-source:excalidraw -->
  
  <defs>
    <style>
      @font-face {
        font-family: "Virgil";
        src: url("https://excalidraw.com/FG_Virgil.woff2");
      }
      @font-face {
        font-family: "Cascadia";
        src: url("https://excalidraw.com/Cascadia.woff2");
      }
    </style>
  </defs>
  <g><g transform="translate(31.857721405029224 155.13453955078126) rotate(0 89.1031895751953 -58.05817163085936)" fill-rule="evenodd"><path d="M0 0 L-13.12499618530273 -73.40908813476562 L-19.87925577163696 -115.82385921478271 L-21.987631805241108 -137.68864877521992 L-21.81817626953125 -141.81817626953125 L-20.17666476964951 -145.38174134492874 L-17.151986598968517 -144.13351678848267 L-13.0371101498604 -139.2560309767723 L2.9190249443053826 -114.67328977584839 L8.465010583400685 -107.10404270887375 L13.636352539062457 -101.81817626953125 L23.870730876922572 -95.15624451637268 L34.71590805053708 -89.8863582611084 L56.3636474609375 -81.81817626953125 L75.96592330932619 -75.7386283874512 L96.36364746093751 -72.72726440429692 L120.22726821899415 -72.78409194946292 L132.84089612960815 -74.28267669677734 L145.45452880859375 -77.27273559570312 L163.14629411697388 -85.95171022415163 L200.23915434628725 -107.94632565230135 L196.3636474609375 -103.63635253906256 L166.8537039756775 -78.87782692909246 L91.94691556692123 -19.128179222345373 L55.856824569404125 7.756364833563556 L30.000000000000004 24.54547119140625 L19.519708275794986 28.617735683918003 L12.208806037902836 28.572456836700443 L7.444068789482119 25.44834226369858 L4.602272033691409 20.284099578857425 L1.382279753684998 2.9376789927482614 L0 0" stroke="none" stroke-width="0" fill="#228be660" fill-rule="evenodd"></path><path d="M0 0 C-3.6363627115885415 -23.636362711588543, -24.090901692708325 -124.84848022460938, -21.81817626953125 -141.81817626953125 C-19.545450846354175 -158.78787231445312, 0.6060485839843324 -111.81817626953125, 13.636352539062457 -101.81817626953125 C26.666656494140582 -91.81817626953125, 42.57576497395832 -86.66666158040364, 56.3636474609375 -81.81817626953125 C70.15152994791667 -76.96969095865886, 81.51516723632814 -73.48483784993493, 96.36364746093751 -72.72726440429692 C111.21212768554689 -71.9696909586589, 128.7878621419271 -72.12122090657552, 145.45452880859375 -77.27273559570312 C162.1211954752604 -82.42425028483073, 215.60606892903647 -120.60605367024745, 196.3636474609375 -103.63635253906256 C177.12122599283853 -86.66665140787767, 62.72727457682292 7.272745768229157, 30.000000000000004 24.54547119140625 C-2.7272745768229107 41.81819661458334, 5.000000000000001 4.090911865234375, 0 0 M0 0 C-3.6363627115885415 -23.636362711588543, -24.090901692708325 -124.84848022460938, -21.81817626953125 -141.81817626953125 C-19.545450846354175 -158.78787231445312, 0.6060485839843324 -111.81817626953125, 13.636352539062457 -101.81817626953125 C26.666656494140582 -91.81817626953125, 42.57576497395832 -86.66666158040364, 56.3636474609375 -81.81817626953125 C70.15152994791667 -76.96969095865886, 81.51516723632814 -73.48483784993493, 96.36364746093751 -72.72726440429692 C111.21212768554689 -71.9696909586589, 128.7878621419271 -72.12122090657552, 145.45452880859375 -77.27273559570312 C162.1211954752604 -82.42425028483073, 215.60606892903647 -120.60605367024745, 196.3636474609375 -103.63635253906256 C177.12122599283853 -86.66665140787767, 62.72727457682292 7.272745768229157, 30.000000000000004 24.54547119140625 C-2.7272745768229107 41.81819661458334, 5.000000000000001 4.090911865234375, 0 0" stroke="#364fc7" stroke-width="1" fill="none"></path></g></g><g><g transform="translate(70.60689463561766 169.8929906249905) rotate(298.1909338739202 -28.39058773144211 15.149617178425018)" fill-rule="evenodd"><path d="M-17.716723998098765 0 L-14.338594567179282 5.197126227507442 L-13.039326095104144 11.693529650291167 L-13.818883689068763 22.08778210530605 L-18.853606809567523 30.257008188208424 L-40.84393658282698 17.670222194964385 L-43.78355832474051 16.76072434187048 L-18.23645232261158 0.25985543905525704" stroke="none" stroke-width="0" fill="#ffffff" fill-rule="evenodd"></path><path d="M-17.716723998098765 0 C-17.15370242627885 0.8661877045845737, -15.118160884345052 3.2482046191255813, -14.338594567179282 5.197126227507442 C-13.559028250013512 7.146047835889303, -13.12594457478923 8.878420337324732, -13.039326095104144 11.693529650291167 C-12.952707615419058 14.508638963257601, -12.909388198508505 19.099435832969444, -13.818883689068763 22.08778210530605 C-14.72837917962902 25.076128377642657, -17.28363450740705 28.540873380513517, -18.496299038465683 29.623607284310804 C-19.708963569524315 30.70634118810809, -17.370264618027004 30.576416376314178, -21.094870875420554 28.584185528089776 C-24.819477132814104 26.591954679865374, -37.465807151907484 19.879000696268363, -40.84393658282698 17.670222194964385 C-44.22206601374647 15.461443693660408, -45.13156150430673 18.233242312917437, -41.3636474609375 15.331514520265916 C-37.59573341756827 12.429786727614395, -22.0909848456659 2.771798619257033, -18.23645232261158 0.25985543905525704 M-17.716723998098765 0 C-17.15370242627885 0.8661877045845737, -15.118160884345052 3.2482046191255813, -14.338594567179282 5.197126227507442 C-13.559028250013512 7.146047835889303, -13.12594457478923 8.878420337324732, -13.039326095104144 11.693529650291167 C-12.952707615419058 14.508638963257601, -12.909388198508505 19.099435832969444, -13.818883689068763 22.08778210530605 C-14.72837917962902 25.076128377642657, -17.28363450740705 28.540873380513517, -18.496299038465683 29.623607284310804 C-19.708963569524315 30.70634118810809, -17.370264618027004 30.576416376314178, -21.094870875420554 28.584185528089776 C-24.819477132814104 26.591954679865374, -37.465807151907484 19.879000696268363, -40.84393658282698 17.670222194964385 C-44.22206601374647 15.461443693660408, -45.13156150430673 18.233242312917437, -41.3636474609375 15.331514520265916 C-37.59573341756827 12.429786727614395, -22.0909848456659 2.771798619257033, -18.23645232261158 0.25985543905525704" stroke="#000000" stroke-width="1" fill="none"></path></g></g><g><g transform="translate(52.68317256460887 168.8252683975213) rotate(298.1909338739202 -19.642929641231603 12.487387221426047)"><path d="M-2.5975935757160187 3.5605066120624542 C-16.33918256768039 5.48606167746175, -30.112067876467783 19.73947731544525, -32.1594922499354 26.414033152401988 M-1.8924289792776108 -1.4392587095499039 C-11.386121176140492 6.175199316185898, -26.220474934465226 15.07552631337526, -37.39343030318571 22.99026470655257" stroke="#364fc7" stroke-width="2" fill="none"></path></g></g><g><g transform="translate(33.97314519559313 181.28553881030916) rotate(298.1909338739202 16.38523625365724 8.872823403266409)"><path d="M3.5605066120624542 -2.785329133272171 C5.400421746289423 2.0003969927977776, 19.34333068994103 13.597558961926206, 34.2097312168643 20.530975939804996 M-1.4392587095499039 1.5428313165903091 C9.686425844552215 7.43396389307764, 21.930117179739124 12.6919792355542, 30.78596277101488 15.804326342517818" stroke="#364fc7" stroke-width="2" fill="none"></path></g></g><g><g transform="translate(47.947334540469456 158.42403012894874) rotate(298.1909338739202 0.6211394827373624 14.68689056268687)"><path d="M-0.29467495026206425 -0.8355987399816514 C0.3041462250079009 0.5228211477976648, 0.7761953066178352 4.361760634500227, 1.4883715586025996 7.371241253961091 C2.200547810587364 10.380721873421955, 3.843154803151703 14.408944281771292, 3.978382561646522 17.22128497678353 C4.1136103201413405 20.033625671795765, 3.320904964840955 22.097277675269527, 2.299738109571513 24.24528542403451 C1.2785712543020706 26.393293172799492, -1.0457820320356592 29.18363340424552, -2.1486185699701306 30.109331469373416 M-1.1930338882016933 1.3401079761888832 C-0.146175797569847 2.888469297338313, 2.9721613657456576 6.059400793621009, 3.7872678264730406 8.412987628022421 C4.602374287200424 10.766574462423833, 4.421275722478024 13.173841082578042, 3.697604876162605 15.461628982597354 C2.973934029847186 17.749416882616668, 0.5743767072716566 19.681756547678617, -0.5547572514194736 22.139715028138298 C-1.6838912101106038 24.59767350859798, -2.5861319728329732 28.571641177099117, -3.077198875984177 30.209379865355427" stroke="#364fc7" stroke-width="2" fill="none"></path></g></g><g transform="translate(46.84172847941909 163.90743921442754) rotate(298.1909338739202 3.118300161467687 8.05554478031641)"><path d="M3.1183001614676833 0 C3.753028318708088 -0.102848421920958, 4.6108838393372125 0.775187113542251, 5.122704868542645 1.884639465058938 C5.634525897748077 2.994091816575625, 6.073205928470083 4.95693449153084, 6.189226336700278 6.656714109100122 C6.305246744930473 8.356493726669404, 6.152894769102974 10.588556060859617, 5.818827317923814 12.08331717047463 C5.484759866744654 13.578078280089642, 4.812663067060944 15.034953500737606, 4.184821629625317 15.625280766790201 C3.5569801921896893 16.2156080328428, 2.6796201307456777 16.2156080328428, 2.0517786933100504 15.625280766790203 C1.423937255874423 15.034953500737608, 0.7518404561907128 13.578078280089644, 0.41777300501155246 12.08331717047463 C0.08370555383239214 10.588556060859615, -0.06864642199510618 8.356493726669402, 0.047373986235088594 6.65671410910012 C0.16339439446528337 4.956934491530839, 0.6020744251872887 2.994091816575626, 1.113895454392721 1.8846394650589389 C1.6257164835981535 0.7751871135422521, 2.7842327102885225 0.28725476157543506, 3.118300161467683 0 C3.452367612646843 -0.28725476157543506, 3.1183001614676833 0.026851815934388235, 3.1183001614676833 0.16111089560632852 M3.1183001614676833 0 C3.753028318708088 -0.102848421920958, 4.6108838393372125 0.775187113542251, 5.122704868542645 1.884639465058938 C5.634525897748077 2.994091816575625, 6.073205928470083 4.95693449153084, 6.189226336700278 6.656714109100122 C6.305246744930473 8.356493726669404, 6.152894769102974 10.588556060859617, 5.818827317923814 12.08331717047463 C5.484759866744654 13.578078280089642, 4.812663067060944 15.034953500737606, 4.184821629625317 15.625280766790201 C3.5569801921896893 16.2156080328428, 2.6796201307456777 16.2156080328428, 2.0517786933100504 15.625280766790203 C1.423937255874423 15.034953500737608, 0.7518404561907128 13.578078280089644, 0.41777300501155246 12.08331717047463 C0.08370555383239214 10.588556060859615, -0.06864642199510618 8.356493726669402, 0.047373986235088594 6.65671410910012 C0.16339439446528337 4.956934491530839, 0.6020744251872887 2.994091816575626, 1.113895454392721 1.8846394650589389 C1.6257164835981535 0.7751871135422521, 2.7842327102885225 0.28725476157543506, 3.118300161467683 0 C3.452367612646843 -0.28725476157543506, 3.1183001614676833 0.026851815934388235, 3.1183001614676833 0.16111089560632852" stroke="none" stroke-width="0" fill="#228be6"></path><path d="M3.1183001614676833 0 C3.753028318708088 -0.102848421920958, 4.6108838393372125 0.775187113542251, 5.122704868542645 1.884639465058938 C5.634525897748077 2.994091816575625, 6.073205928470083 4.95693449153084, 6.189226336700278 6.656714109100122 C6.305246744930473 8.356493726669404, 6.152894769102974 10.588556060859617, 5.818827317923814 12.08331717047463 C5.484759866744654 13.578078280089642, 4.812663067060944 15.034953500737606, 4.184821629625317 15.625280766790201 C3.5569801921896893 16.2156080328428, 2.6796201307456777 16.2156080328428, 2.0517786933100504 15.625280766790203 C1.423937255874423 15.034953500737608, 0.7518404561907128 13.578078280089644, 0.41777300501155246 12.08331717047463 C0.08370555383239214 10.588556060859615, -0.06864642199510618 8.356493726669402, 0.047373986235088594 6.65671410910012 C0.16339439446528337 4.956934491530839, 0.6020744251872887 2.994091816575626, 1.113895454392721 1.8846394650589389 C1.6257164835981535 0.7751871135422521, 2.7842327102885225 0.28725476157543506, 3.118300161467683 0 C3.452367612646843 -0.28725476157543506, 3.1183001614676833 0.026851815934388235, 3.1183001614676833 0.16111089560632852 M3.1183001614676833 0 C3.753028318708088 -0.102848421920958, 4.6108838393372125 0.775187113542251, 5.122704868542645 1.884639465058938 C5.634525897748077 2.994091816575625, 6.073205928470083 4.95693449153084, 6.189226336700278 6.656714109100122 C6.305246744930473 8.356493726669404, 6.152894769102974 10.588556060859617, 5.818827317923814 12.08331717047463 C5.484759866744654 13.578078280089642, 4.812663067060944 15.034953500737606, 4.184821629625317 15.625280766790201 C3.5569801921896893 16.2156080328428, 2.6796201307456777 16.2156080328428, 2.0517786933100504 15.625280766790203 C1.423937255874423 15.034953500737608, 0.7518404561907128 13.578078280089644, 0.41777300501155246 12.08331717047463 C0.08370555383239214 10.588556060859615, -0.06864642199510618 8.356493726669402, 0.047373986235088594 6.65671410910012 C0.16339439446528337 4.956934491530839, 0.6020744251872887 2.994091816575626, 1.113895454392721 1.8846394650589389 C1.6257164835981535 0.7751871135422521, 2.7842327102885225 0.28725476157543506, 3.118300161467683 0 C3.452367612646843 -0.28725476157543506, 3.1183001614676833 0.026851815934388235, 3.1183001614676833 0.16111089560632852" stroke="#364fc7" stroke-width="2" fill="none"></path></g></svg>