<svg version="1.1" xmlns="http://www.w3.org/2000/svg" viewBox="0 0 177.27273559570312 287.2727355957031" width="177.27273559570312" height="287.2727355957031">
  <!-- svg-source:excalidraw -->
  
  <defs>
    <style>
      @font-face {
        font-family: "Virgil";
        src: url("https://excalidraw.com/FG_Virgil.woff2");
      }
      @font-face {
        font-family: "Cascadia";
        src: url("https://excalidraw.com/Cascadia.woff2");
      }
    </style>
  </defs>
  <g transform="translate(10 10) rotate(0 78.63636779785156 133.63636779785156)"><path d="M9.80966091004356 9.852421124923932 C9.80966091004356 9.852421124923932, 9.80966091004356 9.852421124923932, 9.80966091004356 9.852421124923932 M9.80966091004356 9.852421124923932 C9.80966091004356 9.852421124923932, 9.80966091004356 9.852421124923932, 9.80966091004356 9.852421124923932 M3.0332939729534623 23.445020965182344 C10.774982778345063 17.11780001911528, 14.304234563403359 11.096345794036253, 20.397878537593037 1.4239931759867979 M3.87168804951688 23.56549075792835 C9.71343564926498 17.92413799280644, 14.207064276618025 11.847547423813014, 20.016864489471168 3.4948762852210713 M2.2927751235686245 31.799976558837656 C6.750765706742645 25.78916512633335, 14.363279049944182 17.02157254950211, 24.806102146022177 4.305248079253374 M2.13954022545591 30.998209760006134 C7.502387669782394 22.78856621628824, 14.69801031467311 15.917525312947912, 24.58031066283599 5.124563198899864 M0.4402353093376483 39.0307421027652 C12.814993278530746 26.29532359552009, 25.262175195993656 10.117026764718524, 29.540354106011428 2.1408651788859316 M1.257858657312962 36.52737221913105 C7.974304718906126 30.524290245749903, 14.740578418902027 22.02865497758789, 29.999319527665712 4.860733852828915 M3.3452581324357773 42.56757415975427 C9.65673854537815 33.65195106730665, 21.024354977668544 21.63060558982919, 38.61965378968857 0.8746625115599009 M2.457951800778904 43.40363875082677 C10.973216023129744 34.37700125877511, 18.707554793012925 23.816766555186646, 39.960299372103734 -0.82242872608197 M1.4491199070097665 47.879334926925836 C13.869843042620236 34.95571930939462, 28.55700946352558 16.958802126967477, 45.54420978831428 0.25662661206952464 M1.8719223860161165 48.97779904244864 C12.05861921786664 37.91089178599201, 22.117445036466574 27.16694990076858, 45.366199265926355 -0.4892995753041731 M3.390935485234845 56.4392497170692 C14.48769834242913 41.187136972109656, 31.128413827406494 24.184431142859808, 49.85180883997834 -0.8702940538008477 M1.3150632437154535 56.010279334520334 C17.326868277031352 37.10268508161949, 34.234977747133165 18.306156200504155, 51.04914798823899 -0.11226836381896987 M0.16257146024828728 61.87943989708256 C16.310792678054074 47.92419748217886, 27.460170935361127 33.34696266845756, 56.96672204685599 -0.7555304232619271 M2.5970205080298143 61.169425359174426 C22.554504220515774 38.22091852204919, 42.45341392113303 14.016409605901025, 54.775610244732505 0.08666927389730361 M1.4226739342253154 67.46609952975523 C16.60232752807512 51.8891844889081, 32.69825965567713 34.17616356164541, 62.2909722520845 0.8853826205844975 M0.9920713846500462 67.8504289819346 C13.070426381726143 54.017468151951306, 25.97538822592049 40.091642467009414, 61.493904044559784 -0.3940628050227666 M-0.3484182786872907 74.25402831220816 C21.098135699613252 51.72078063529155, 41.571446820473014 31.34743609142459, 67.51836180783911 0.3459828905277149 M1.550287353738554 74.6736111401562 C26.90033054456818 45.75429665279832, 52.76365834403522 16.519941630127192, 66.8044784684117 0.48330538994448347 M1.7456492606572027 78.78826031656234 C26.640409915026844 50.76002033265263, 55.13669440242728 21.635615118607085, 72.78938577826658 2.0834138336887023 M1.8481070829576964 80.52980058369457 C18.423314022400966 59.96159489062049, 33.64282725749758 42.52569211753135, 71.27107687145063 -0.20582707884559426 M2.6115695294340426 84.80569273060708 C29.519721108954716 54.52840351907115, 59.09951583435374 18.62094836652774, 76.28555485251366 0.42005327218845423 M1.7389093404983456 86.62571261557339 C17.753959137642298 67.23287200039634, 35.80562236532437 47.613956540003066, 77.17130979633896 0.69694666346237 M2.665228216789977 94.14432837646333 C30.518089625049733 62.17835514149351, 56.12238228986611 27.481007140283758, 79.82371825775556 -0.7548578561837616 M2.0081171690228743 92.73694161064802 C32.478746966986634 55.66479719082417, 62.86390472554678 20.737835753674588, 82.24722788626752 0.47842004489201884 M1.4260266368717822 98.44490445125209 C21.761831033435527 76.39707993755091, 40.45488679341339 56.05291755296253, 87.01097696212958 2.16931744047028 M2.123770798693684 99.25333975627379 C20.27275621758704 77.03113769583011, 39.42913949198668 56.468872157545654, 87.01648508788924 0.05205598507595255 M1.1112046418546768 104.85252126776263 C29.48620646417113 74.53377440946764, 58.076909999909034 39.863719664785826, 93.55871144281095 -0.00021115006013872062 M0.9871005602016183 104.22439579297438 C20.078956961857827 82.2106078256268, 41.01765850917981 59.695926643932935, 91.24261641939496 -0.22308646296217205 M2.134694795885416 112.92588477311597 C31.28821583766532 77.6216020086918, 58.16410342974288 44.937143383600485, 98.09355391793692 0.140162114123207 M0.5876310587090572 110.61222753310517 C19.82181479860213 88.09733132626664, 41.18176736179638 64.60325176413892, 97.90226020243757 0.20122124541024533 M2.7014452881107758 116.33893528943304 C27.3818136429005 88.22793718951127, 51.90501974235099 57.81760285058708, 104.47141611468274 2.065615670809585 M0.7537540868784021 117.33696060152147 C25.609926005730237 87.79419672509884, 50.6703455315173 58.23604589243153, 103.65543583020795 -0.1186962117831527 M0.40174284570596797 122.58247625450316 C32.27502624325861 88.6936578322898, 67.03945872384989 48.42760036985534, 107.93240247219515 -0.5225664078800065 M0.9033015379004894 123.32210717624697 C22.56588305367983 97.97683546367561, 45.73151179073976 72.03453678813062, 108.15670697036845 0.8798649153130071 M2.366125936808274 127.11870716022452 C43.21054038171873 80.4229351075121, 88.16676894100601 29.419273474579185, 112.69513305462092 0.004634325175395304 M1.3547086084282256 128.99284892691423 C27.206814257593035 101.7887905624061, 50.35382875409175 73.82212181869363, 113.80575447808147 0.8113661890540627 M-0.4205874614070666 136.85640019438645 C37.60159626690711 93.14640112152279, 76.75935174616039 50.17162359111212, 119.55106646413532 -1.0944005672348922 M1.7972915666524756 136.09496365654698 C36.284140483730724 95.4191197818894, 72.95060106481495 52.72691038718742, 118.49794930903789 -0.11259427503629382 M1.0356133402066803 140.3054331791099 C49.5035980684511 86.08309408157828, 96.60263349841692 30.914173591290975, 122.01941304387555 -0.7773934682126935 M0.6024109552355981 141.19310824000053 C29.140090344914107 110.9718747245255, 55.212142017470164 82.33790599133928, 123.93551572239056 1.4150011301744883 M3.332254655796305 147.27841831151585 C30.00870242139001 113.80196129181509, 59.28862244563401 79.47361885391533, 130.00510361702638 2.011715515254089 M2.5740445043400086 147.7161973646302 C28.394363270268464 117.68943066612404, 53.165013170932696 89.8162107134057, 128.44175001983987 1.3702257254328813 M2.1815470557627785 154.49532338070253 C47.466890030478396 100.28795137410242, 96.05524855310185 44.58616090289905, 131.9942286511535 4.07787428564497 M1.6727545910439654 153.0647709388765 C44.414372899243936 103.67986871799582, 88.15519734330067 53.22715583044471, 133.18082732357823 2.6371869002321824 M0.4181934047004303 159.0924592376409 C39.08935426286373 114.90204726755587, 79.34945483390213 66.90853117368096, 135.15087004024565 4.262184754729952 M0.8443203439035037 159.60534310919974 C34.17802226192405 123.75854429296344, 67.64679114536237 84.97880212760406, 135.9691338721766 3.8850534930017284 M2.2086681440722233 166.64641015909424 C40.01034202126149 119.9254445492429, 77.00973729169765 77.95628474550497, 140.79681737186849 6.505520341262598 M2.2135044952766645 166.0292607486713 C32.15455175434926 129.1429190003482, 64.09501527520288 93.80853757663894, 140.18206789863578 6.362970725010827 M0.9064309575184899 173.45492591205561 C55.55642208819491 106.90876017160855, 111.20113327295067 45.96796560543996, 145.9589916855706 7.1140586571090925 M1.8634677979024432 171.6084016858619 C55.57092506582351 108.81197208599463, 108.52909364728528 46.874299688609014, 143.68547268828763 7.255937610596822 M2.550702034013014 178.61573808485278 C41.494106749287624 128.55965611233415, 85.61432186104196 80.91990256392596, 146.87975257100362 9.22342697642838 M2.083019522589231 178.52328914744135 C51.57925441794707 119.74950736485533, 103.37961037947593 61.237507495316116, 147.8415811605999 10.867252178428304 M2.6690298436731164 184.14450287521913 C47.882639431223666 129.04502960889033, 96.51420127818433 74.16415177682153, 149.36489384312395 13.174177460674054 M2.2770035343982977 183.75827587042534 C37.24374075585517 143.8702911281406, 73.28117359026527 101.03049696471714, 149.87499913013883 13.286810155714276 M2.715972416682576 189.24170610168989 C42.17124293384344 145.98549655537937, 83.20540539588596 99.6902720523443, 151.7118978269396 17.101488988244608 M0.7929532485643841 190.1070818684495 C51.957988339583046 132.16302648192652, 103.19322053597554 75.26890293930919, 151.9427069530083 17.082053450377465 M0.8328330350520236 197.16370691960537 C60.224285360802476 126.90243243427757, 120.60123756435353 58.57459075736624, 154.49456662883446 22.15589839968749 M1.2629789674640575 196.1336639808938 C38.28555131677251 152.85636737567737, 75.32211462897236 109.10424145833137, 154.552586036109 20.44422294948219 M1.370907477556224 203.45169932810538 C43.28562657939101 153.74797764800942, 85.53350747018503 108.47787765609908, 157.28823807876176 22.402312623248793 M0.9966399309733867 202.5996782279611 C35.227305231980246 163.90802582763536, 67.6436155768345 126.5028822891327, 156.9145164935097 24.43192371962213 M1.5171826289168062 209.62453134162897 C65.1981004537443 138.9663903505241, 126.17112020313046 66.42969945679089, 158.2518003232259 27.64749865848307 M1.4880605606732211 209.42098315552997 C42.759093205392205 159.37008655708132, 86.86042757736541 109.63441456950103, 157.49395077671295 29.89355573141384 M0.8546530296796162 214.73015406953957 C38.05311038540896 171.98211467289568, 72.17740431060342 133.79202467698565, 156.75111022968537 32.6859692886021 M2.008650159018452 215.21706118448847 C56.17695215906104 151.61983067072208, 110.7328154486218 88.09582381025395, 158.42789046024114 34.008881647424936 M2.295350708264248 222.21740251585035 C63.66447110730588 149.66416165421117, 124.34928118001933 82.3895902266568, 159.6093304781955 40.523601426530206 M0.7515665262743007 221.07580567910261 C34.928891798932 182.7912841339403, 66.84562182176069 144.55160798775825, 159.3812986859245 39.45377271320799 M-0.019768074612273534 229.0122577513752 C45.77145398977694 174.4658270871663, 89.57274415945975 123.73815057847368, 159.90950054673402 46.7633085363673 M0.3666335546225589 227.427766545976 C58.146128828421745 163.57785926309884, 114.57964563537298 97.83242114466024, 158.20076077969713 45.76514989946578 M-0.41220947610137015 232.64151557749778 C58.13901080146685 168.85316294950638, 113.42846611597956 101.98502408613773, 157.7030967963247 53.233684415248234 M0.049377937366593905 233.09867508959564 C35.99493958285778 196.68884969069947, 70.19891443653223 157.5207377012403, 157.52364836365268 52.419378904977705 M1.7087942721779046 239.3627286907721 C42.70563999485017 191.21019158376484, 86.97947824534728 140.92913177902238, 158.9403976195164 59.92636260966983 M1.5486932441981485 237.92728227996312 C61.985022967009066 170.45709854483525, 121.68578915226189 102.5682478505122, 158.89278418352205 57.74239372574564 M4.109492132294898 242.34717592392937 C56.74380039983334 180.25590611502216, 112.4575490493068 118.63164308789439, 158.16725340764896 63.447853044191795 M3.229017449374447 242.88543667081683 C38.77711941649586 202.57325800929027, 74.36613101923021 162.7396017820458, 158.04509752744872 65.15704629847791 M4.962193854996402 245.6358492115023 C36.8652027445409 210.8116907003775, 65.76010117031842 174.82098540549973, 158.76935458274087 70.41035179199234 M5.964047415502999 246.80892122545387 C62.07140667284642 182.34998564204366, 120.02088241924815 115.42227594671836, 158.63767788747361 71.795864947376 M6.674713060566074 252.1408803902058 C59.2753464084046 191.1681942569332, 109.26388732491807 130.07031518535655, 158.91728491993535 75.82138681327041 M6.98391265880202 251.31495483758033 C46.47604556225951 203.16648494417376, 88.95593430540791 155.20070216519088, 159.15947865408958 76.39971697153051 M9.593828316577966 255.83368090359122 C40.86356198009097 219.68418611244508, 69.22362457414359 186.59352200379942, 159.33698951332835 83.28413677258365 M8.002586156726801 255.96024032798192 C49.56402169634257 209.0353368997152, 88.0327643527315 163.41386915322258, 157.42348392961776 83.15759107903519 M13.182510105030124 256.1499028597415 C64.78948036348832 198.05477421705356, 119.39577886809457 134.12935692659138, 158.39657943066646 89.9048612878982 M11.542483654503998 257.69579751316235 C65.96428355688701 197.4685653884329, 120.63905831830084 135.0034196665638, 158.56585742944213 89.35214178808168 M13.786304490377708 260.71550715635556 C67.01451518443893 201.15398587355259, 118.09281788704186 140.4107215858838, 156.5378019931801 96.55535749235183 M14.620571736153314 259.653103990728 C67.72301179368212 197.26320167537824, 122.30147139220016 137.0080764019486, 157.4559031510838 95.93935866179814 M18.805331791446143 261.6786886128003 C68.34688822542755 202.74863536679612, 122.63065755515981 143.49827309032437, 159.2753881987151 102.80980395895507 M17.670683467250786 263.4616553787566 C72.35236685151136 198.6901985109679, 127.32039850165287 135.8521480396146, 157.93198028332168 101.89163360379273 M20.233944963750332 266.3969881092428 C60.79490672071966 220.09709640172352, 103.97595867729096 172.18317198435744, 156.95745774528413 106.2992546982723 M21.766765532901097 264.6028735857597 C71.9356307487225 206.16310143107052, 122.0096434408912 147.71859732058928, 158.18182279291102 107.3709390966824 M24.356706927394157 265.2434147804708 C74.70611583103076 211.05215605260446, 122.37136408515323 156.25199682908212, 159.3759212060753 111.87129443596277 M25.271101643114463 265.9704069154679 C53.87994563708074 230.18714324469352, 84.9329948878961 196.9040750750488, 158.25245679409323 113.51861724998766 M28.503653934541305 266.2512668001094 C80.54182810043123 210.82722699142366, 128.94252696948485 155.33100202125217, 157.69351025123774 120.68642375880736 M29.787818781416078 266.17259029230115 C75.57604982619299 213.09005757595372, 122.03405241086081 158.7416700986293, 157.3350310801777 120.53835752030719 M34.35239068151786 265.38203656392653 C70.84685493272005 224.27932189600335, 107.66157820024094 180.952792634102, 159.5744239514709 124.07168802024165 M35.48437834357246 267.5584716014426 C63.231997039715374 235.14876588588393, 91.01543411224438 202.87058755232098, 158.02266137153063 124.94019172397742 M39.65297283370802 265.92245937415294 C74.12855482570882 223.5691087581908, 112.98467444763011 183.13075839132284, 157.3315604983239 133.99007944917895 M39.87093581490973 267.2135249618151 C86.18383705082438 215.77273230982436, 131.4509360058976 163.31218161946992, 158.33409694511133 131.42690232458182 M44.932423234249015 265.0320003476869 C85.82364243284718 218.19074852930765, 127.76996621314115 171.72987115029517, 156.5175243309435 138.83038211774027 M46.33330920458074 267.1986742305513 C84.37999191124257 224.23478264605205, 119.33883517678458 182.70934461403868, 158.26765146858213 139.21744307197577 M53.00954423531613 267.87919729731755 C89.87323144950682 224.14035958487284, 125.28907194109078 185.2272531795192, 157.6634355134765 142.9091144730466 M50.90944759327641 266.11418939817474 C84.97833484540214 228.6808312029262, 117.60628931463984 190.98894484783688, 157.5667557971055 144.08252552851462 M57.80588993004659 267.0414840899433 C85.77094704341512 230.69381491433984, 113.48672534684621 196.18668428994343, 155.87325264809806 152.17215807788725 M57.25665336514959 266.8432599468182 C92.86660609603828 225.77698116840762, 128.76727034037316 183.94751860663177, 158.47053088637222 151.38999780972208 M60.659793920615655 267.9803672883533 C84.58519866908391 240.38485810517273, 109.36655719125064 212.42739036902302, 156.97868607794547 154.34929054916037 M62.121859975891155 267.37092149200515 C94.49017916976166 229.2106608181759, 126.87924310332781 193.04784662379194, 158.0249509955352 156.60312752273066 M66.48128252117007 269.1959590896686 C91.79271412891103 240.15571078421115, 116.24888360000165 213.08512849785035, 157.853225655194 164.4293621996553 M67.65279515566348 267.28233872109104 C96.90961731439086 233.7766907791584, 124.86301171758913 199.94039712378012, 157.55312145528532 162.09952840806406 M71.3463976708566 267.92860606601016 C106.30969149936746 229.7594758896726, 139.40648686743828 188.61978107871437, 158.56705394399037 168.814828976493 M72.14855382212896 266.80818413393126 C98.87742034936181 239.32322033947514, 123.58004440405884 211.0700178295912, 156.96644187078496 169.66944327807767 M76.09151984685047 267.8605179051672 C107.60227357577713 230.75491182787403, 140.88535909956266 194.05300574051043, 157.98136913348137 175.02338120179445 M77.81017099347844 266.8700167835494 C103.19624211597474 238.2346172108679, 126.0785694398805 210.7315438347393, 157.5151790346965 175.56112275762678 M84.46828126728893 265.27030034903805 C99.46917676500816 248.30976284071176, 118.32099114077249 228.36479231264303, 159.34270795084217 179.38957231334894 M84.05178499136478 266.578565214578 C108.81458270948016 235.37653173464076, 135.64983740682703 207.0150101106156, 157.53903984021076 180.52620402473508 M89.45759365934725 268.508131835412 C105.71280569737502 247.86515686728868, 120.32988261329251 231.17877213889648, 155.7817998352196 185.97406138327747 M87.97091520897891 267.0526541050409 C113.43522657452566 237.17886967124338, 139.97136834341302 206.97266003894558, 157.1222754549902 188.07270332925796 M92.08062049116268 267.3955868561871 C120.83393172474956 239.33754006027218, 143.64612721789217 208.27495414463013, 159.90788985076037 194.265241858701 M94.31568434297367 266.16277762457054 C114.01342680921321 244.8238616952855, 133.28185906867503 221.42706049559132, 157.8442542341971 192.51039473355073 M99.71280473991045 268.70081259915275 C115.73827615247767 246.17239720583365, 134.59530199735448 228.6103922321294, 159.40306159963976 200.8808703024088 M97.95509616153994 266.3500260761906 C116.63446152042711 247.37614288898402, 132.54284498624222 228.12030293201434, 157.53003463352243 199.99618885313706 M104.23878209473733 266.29306188643 C115.33922148244386 255.44791415409608, 126.89560018790611 239.0673276271248, 156.5210913960045 204.4773089115219 M103.1901987073401 268.1243688347565 C119.22640905095776 248.66243113903937, 136.7464663860735 231.36769620342145, 157.90546938312852 205.78712537537234 M107.64670386979007 268.8443219151397 C123.78432772055197 248.70147860083688, 140.48446563953385 231.36327921225302, 159.68177117900132 211.45115425816124 M109.50465721053654 268.11003308762355 C128.74018397258382 245.46841568813727, 145.29768983064676 225.21764654498259, 157.34777840067773 211.28575180011188 M113.6225599172439 269.53094299807117 C126.41555753661511 256.97252995855956, 136.6162929695988 244.68758854467066, 157.0652314258055 219.64086603011611 M114.3153270018201 268.0908825753154 C126.39111122101266 252.84991652500668, 139.19881502845067 239.083991444861, 156.63612170436096 218.08550218037936 M119.04903280124556 266.9428810823455 C136.0188443932714 253.14053797242173, 150.14884625873742 236.1778495684411, 158.76685435455428 224.48129996928478 M118.62735768635314 268.26341011018746 C129.03741277687996 255.76782221205528, 140.5439693576287 243.68385464750332, 158.26276261583106 223.4689800608074 M125.59982071094184 266.7853264900835 C134.33441813118512 258.00148878496714, 143.83674901808843 248.01978199311077, 159.11130169242293 230.47888451345645 M125.78476605679809 268.282116317095 C137.5076431094355 253.90019647253064, 150.17193690565463 240.1894297024606, 156.90334552827895 230.22688511941962 M130.646078431489 268.070913498629 C136.02499496691314 258.0891335394884, 141.2592953877872 254.84172073726648, 158.15136884956766 238.1208633149749 M130.53312706432683 265.79546921361623 C140.1693284488869 255.58101788595, 150.55742472278422 243.89336933010821, 156.07200008037645 236.91100568629415 M136.16285831506224 267.3119299207713 C140.72379322562304 260.5502061452812, 149.81565650302457 253.51495180242011, 153.95018977417323 249.08634314185224 M137.0822647896302 265.98186379027476 C142.26548692629962 260.9340077617187, 145.38988457327233 254.50761425382936, 152.55979601132395 247.38901664467744" stroke="#82c91e" stroke-width="0.5" fill="none"></path><path d="M39.472797652706504 -0.6394912507385015 M38.22112483717501 -0.13796977140009403 C59.50174878055846 1.0697648323161497, 80.52109075677882 1.3493547833545103, 118.99918485619128 1.4872380699962378 M38.95448244642466 -0.23281368147581816 C56.73977731847387 -0.8342462439924493, 74.42767057156556 0.7978775541394935, 118.17027411889285 -0.8629620624706149 M117.95455169677734 0 C142.86958885254958 0.3885562513023615, 157.27154221199453 11.50023630199333, 157.18930055759847 39.825459549203515 M119.17609020136297 0.885154852643609 C141.9088023550498 -1.9364645612426101, 158.79189985366537 11.483957395733643, 156.47911134930328 39.08218593178317 M157.08760316111147 38.790433725342155 C157.66871007056247 102.06107908964091, 158.36117269368182 161.62038068868088, 157.3541389796883 229.3773000445217 M158.18319721054286 40.21079382766038 C154.82366878186858 109.7962587760973, 156.36546895300543 180.63413938157768, 156.88638703059405 228.5229653166607 M157.27273559570312 227.95455169677734 C155.64628692530096 255.8629053129504, 142.93409055533508 269.2229870054871, 117.74224247597158 266.8943380806595 M157.85853727720678 229.1875195596367 C157.28092397721485 253.82803824820243, 146.26600810658806 266.2151035386138, 118.63501599403098 265.36482832608743 M117.56578345037997 269.0407137479633 C99.81184773134932 267.5281281098864, 84.05517496703058 268.14038255067084, 39.98510170914233 268.0623525585979 M117.0474825007841 268.1355758057907 C96.09451462911932 267.90794909391275, 73.40120080255952 267.6008524635779, 38.9430265231058 268.05104738939553 M39.31818389892578 267.2727355957031 C13.121402661626536 267.81561995483935, 1.5708998646587133 255.07404123681286, -0.2228133473545313 228.53146154619753 M38.82778092287481 267.0306786391884 C15.370720236220706 265.6242631900124, 1.9885049042291936 253.0869063434812, -0.381050110142678 229.6846849995665 M1.426310846582055 229.40542705915868 C-1.2572478139007506 160.26015507107516, 1.14368801478501 98.04733814585785, 0.5448287818580866 38.748312970623374 M-0.5982763068750501 228.55894253123552 C1.276509913028362 173.23148349576815, 0.5211413524757649 118.50446257828176, 0.7876260681077838 38.81611752975732 M0 39.31818389892578 C0.2986948098987341 11.403229921435315, 11.73260388833781 1.8372989390045404, 40.82677163742483 1.0387250874191523 M0.25708468817174435 41.05316663719714 C2.0481364038772876 10.89841286021595, 11.30824176839863 1.0534073549322782, 40.87270686002448 -1.4221448046155274" stroke="#495057" stroke-width="1" fill="none"></path></g><g transform="translate(40.00006103515625 163.95462036132812) rotate(0 42.5 28)"><text x="0" y="41" font-family="Virgil, Segoe UI Emoji" font-size="36px" fill="#000000" text-anchor="start" style="white-space: pre;" direction="ltr">Core</text></g><g transform="translate(43.636474609375 203.95465087890625) rotate(0 43.5 28)"><text x="0" y="41" font-family="Virgil, Segoe UI Emoji" font-size="36px" fill="#000000" text-anchor="start" style="white-space: pre;" direction="ltr">Logic</text></g><g transform="translate(22.41480447742822 50.45454406738281) rotate(0 66.24709605230161 52.72727966308592)"><path d="M0 0 L132.49419210460323 0 L132.49419210460323 105.45455932617185 L0 105.45455932617185" stroke="none" stroke-width="0" fill="#ffffff"></path><path d="M0 0 C46.563795333137286 0, 93.12759066627457 0, 132.49419210460323 0 M0 0 C50.3107302242239 0, 100.6214604484478 0, 132.49419210460323 0 M132.49419210460323 0 C132.49419210460323 34.510615006562354, 132.49419210460323 69.02123001312471, 132.49419210460323 105.45455932617185 M132.49419210460323 0 C132.49419210460323 34.95537433033223, 132.49419210460323 69.91074866066447, 132.49419210460323 105.45455932617185 M132.49419210460323 105.45455932617185 C102.66386926405322 105.45455932617185, 72.83354642350321 105.45455932617185, 0 105.45455932617185 M132.49419210460323 105.45455932617185 C91.38321906684007 105.45455932617185, 50.27224602907691 105.45455932617185, 0 105.45455932617185 M0 105.45455932617185 C0 80.31726940495423, 0 55.1799794837366, 0 0 M0 105.45455932617185 C0 81.52233066931144, 0 57.59010201245105, 0 0" stroke="#000000" stroke-width="1" fill="none"></path></g><g transform="translate(35.25865770374236 58.36363332210419) rotate(0 59 43.5)"><text x="0" y="12.5" font-family="Cascadia, Segoe UI Emoji" font-size="11.897437287881752px" fill="#000000" text-anchor="start" style="white-space: pre;" direction="ltr">OnFoo:</text><text x="0" y="27" font-family="Cascadia, Segoe UI Emoji" font-size="11.897437287881752px" fill="#000000" text-anchor="start" style="white-space: pre;" direction="ltr">  if bar:</text><text x="0" y="41.5" font-family="Cascadia, Segoe UI Emoji" font-size="11.897437287881752px" fill="#000000" text-anchor="start" style="white-space: pre;" direction="ltr">    frob()</text><text x="0" y="56" font-family="Cascadia, Segoe UI Emoji" font-size="11.897437287881752px" fill="#000000" text-anchor="start" style="white-space: pre;" direction="ltr">  while rfap:</text><text x="0" y="70.5" font-family="Cascadia, Segoe UI Emoji" font-size="11.897437287881752px" fill="#000000" text-anchor="start" style="white-space: pre;" direction="ltr">    rFap = yob() </text><text x="0" y="85" font-family="Cascadia, Segoe UI Emoji" font-size="11.897437287881752px" fill="#000000" text-anchor="start" style="white-space: pre;" direction="ltr">  return rFap</text></g></svg>