<svg version="1.1" xmlns="http://www.w3.org/2000/svg" viewBox="0 0 27.85615869870921 118.56152968314257" width="27.85615869870921" height="118.56152968314257">
  <!-- svg-source:excalidraw -->
  
  <defs>
    <style>
      @font-face {
        font-family: "Virgil";
        src: url("https://excalidraw.com/FG_Virgil.woff2");
      }
      @font-face {
        font-family: "Cascadia";
        src: url("https://excalidraw.com/Cascadia.woff2");
      }
    </style>
  </defs>
  <g><g transform="translate(12.169228797256949 108.70085654054549) rotate(0 1.7588505520976554 -49.420091698974204)"><path d="M0.8265803623944521 -0.13932685740292072 C1.8536932780322768 -15.950624856335368, 5.083820459732084 -78.263498701068, 5.686929901452265 -94.0798195118901 M-2.1692287972569466 -2.6832723900675775 C-1.4582389626674517 -19.458482339588254, 2.829446715030738 -83.80519584639592, 3.532122645811639 -98.7008565405455" stroke="#e67700" stroke-width="4" fill="none"></path></g><g transform="translate(12.169228797256949 108.70085654054549) rotate(0 1.7588505520976554 -49.420091698974204)"><path d="M-8.107544817064927 -28.62051886915065 C-4.24951844605782 -22.32353964060742, -3.14517043602432 -13.358612219564659, -1.8474430087953806 2.078522438183427 M-9.812783872743175 -30.21497551387943 C-5.688204182921504 -20.434568220595096, -1.3096282794856249 -9.30202530022608, 2.545601524412632 -1.268815077841282" stroke="#e67700" stroke-width="4" fill="none"></path></g><g transform="translate(12.169228797256949 108.70085654054549) rotate(0 1.7588505520976554 -49.420091698974204)"><path d="M12.384174160842377 -27.520766298654458 C10.43666954900276 -21.41404087206758, 5.741676364498282 -12.760353342258623, -1.8474430087953806 2.078522438183427 M10.678935105164129 -29.115222943383237 C7.724595976598357 -19.880094655997, 5.031814060722887 -9.127058401080028, 2.545601524412632 -1.268815077841282" stroke="#e67700" stroke-width="4" fill="none"></path></g></g></svg>