<svg version="1.1" xmlns="http://www.w3.org/2000/svg" viewBox="0 0 27.85615869870921 118.56152968314257" width="27.85615869870921" height="118.56152968314257">
  <!-- svg-source:excalidraw -->
  
  <defs>
    <style>
      @font-face {
        font-family: "Virgil";
        src: url("https://excalidraw.com/FG_Virgil.woff2");
      }
      @font-face {
        font-family: "Cascadia";
        src: url("https://excalidraw.com/Cascadia.woff2");
      }
    </style>
  </defs>
  <g><g transform="translate(12.169228797256949 108.70085654054549) rotate(0 1.7588505520976554 -49.420091698974204)"><path d="M0.8265803623944521 -0.13932685740292072 C1.8536932780322768 -15.950624856335368, 5.083820459732084 -78.263498701068, 5.686929901452265 -94.0798195118901 M-2.1692287972569466 -2.6832723900675775 C-1.4582389626674517 -19.458482339588254, 2.829446715030738 -83.80519584639592, 3.532122645811639 -98.7008565405455" stroke="#e67700" stroke-width="4" fill="none"></path></g><g transform="translate(12.169228797256949 108.70085654054549) rotate(0 1.7588505520976554 -49.420091698974204)"><path d="M11.935875046245044 -69.74182828656359 C10.563832317756034 -79.59858384047068, 6.76140467937602 -86.88975655282923, 0.8580992746218064 -96.48300724495915 M10.230635990566796 -71.33628493129237 C7.977285092278127 -81.51781893267602, 6.372842375996511 -90.2069586713825, 5.251143807829819 -99.83034476098386" stroke="#e67700" stroke-width="4" fill="none"></path></g><g transform="translate(12.169228797256949 108.70085654054549) rotate(0 1.7588505520976554 -49.420091698974204)"><path d="M-8.550560664663116 -70.93596154908762 C-4.1180364152739095 -80.57572152121747, -2.1226180713030214 -87.52894375569811, 0.8580992746218064 -96.48300724495915 M-10.255799720341365 -72.5304181938164 C-5.431406085032608 -82.13414669283058, 0.03368584877222247 -90.41121052944447, 5.251143807829819 -99.83034476098386" stroke="#e67700" stroke-width="4" fill="none"></path></g></g></svg>