<svg version="1.1" xmlns="http://www.w3.org/2000/svg" viewBox="0 0 188.43056656637492 164.5487520253804" width="188.43056656637492" height="164.5487520253804">
  <!-- svg-source:excalidraw -->
  
  <defs>
    <style>
      @font-face {
        font-family: "Virgil";
        src: url("https://excalidraw.com/FG_Virgil.woff2");
      }
      @font-face {
        font-family: "Cascadia";
        src: url("https://excalidraw.com/Cascadia.woff2");
      }
    </style>
  </defs>
  <g><g transform="translate(253.21856971457612 13.718649249524105) rotate(0 -159.00328643138866 68.55572676316609)" fill-rule="evenodd"><path d="M-199.84963306631897 2.5000925334015704 C-199.84963306631897 2.5000925334015704, -199.84963306631897 2.5000925334015704, -199.84963306631897 2.5000925334015704 M-199.84963306631897 2.5000925334015704 C-199.84963306631897 2.5000925334015704, -199.84963306631897 2.5000925334015704, -199.84963306631897 2.5000925334015704 M-209.2751149540432 18.32559618090771 C-209.97208873600192 13.089509036888543, -203.5833952300648 8.113984312734283, -194.40730023716168 0.10734524364437448 M-208.7058299505748 22.281998603767974 C-204.30613443216822 12.954382035745365, -196.09545780265137 5.179373009165882, -195.82590243738667 2.7605381828811346 M-218.5686678427905 42.495809444568295 C-212.72552050206417 27.533197612157082, -201.41047620381838 15.8351025489895, -186.68598528877936 3.84057304606975 M-220.9056960798502 39.80577833519055 C-207.59032175087665 24.604314684623542, -198.17776266515898 11.327142192089084, -187.72901176774047 3.909407114323386 M-229.4303855569772 57.78173392038704 C-223.5162071433204 47.47818561753954, -213.88312407849423 34.61420105508002, -184.9618591446585 -0.10706763675696607 M-230.8827285757027 59.73187702108086 C-217.5029958647173 43.86242600498271, -203.77490872847574 26.37532522474593, -184.92455411927466 0.6438126661043668 M-238.98086758898233 74.06458711711711 C-221.5806975092628 49.861166592091706, -201.11196189848724 23.842012359489978, -177.77977477910207 1.0465985956995496 M-240.0971875750426 72.18254000222332 C-221.03658044787562 52.576771390310235, -206.05658074390033 32.75982974118294, -176.7521212358235 2.9107861957906493 M-237.14130371017532 77.31232737373435 C-212.60173532186707 47.33324363636005, -184.75161363996725 19.89011880231846, -175.9541164164131 -0.4592216060254799 M-237.56187661877053 75.83745657462501 C-213.3763711510719 50.885173361446434, -195.9464586039814 25.609259623443414, -171.3852892362212 1.397593435948707 M-235.56753649274526 74.2894263034473 C-214.85022610103647 55.94807827915081, -199.55829549008487 39.41285464626796, -167.72562244392307 -0.06741908206507219 M-234.08870517360685 78.95603243352573 C-210.53549754263108 50.93587924688523, -190.29602856476083 23.829921762868366, -166.3009415273306 2.705105753476772 M-227.78117238200463 79.53116222656844 C-217.19141205794034 63.571369928102484, -202.93400128853844 46.62385382854596, -163.822739585935 -1.2497246818839614 M-229.7322997043953 80.66418310626922 C-207.47979629676828 53.202436979108455, -182.7832897598844 23.010158452473014, -162.65312297798587 1.3135576309413608 M-230.823349073266 84.27984471341027 C-214.2590224244264 63.0002372103382, -193.8463383422924 49.73171769161936, -160.6184458167519 1.3541619950531185 M-228.7562710509797 84.20305849519922 C-209.87715037645893 57.96749702484314, -185.75880338211016 34.81982233095208, -155.74236283202129 2.7559179259089888 M-226.37973551184177 91.60981458428532 C-206.35009266608637 58.721182197698624, -180.9236037199454 35.32687499921651, -147.28707327370523 2.7974438586131356 M-228.0707144282037 86.3665428776595 C-211.74155289313225 72.28753946648699, -194.61111773465746 53.79746644476052, -151.4849976212996 0.7912611302778743 M-225.90553189304455 91.55244390950607 C-198.18793115019625 66.74293624822579, -180.84576488211047 40.38798042115823, -146.86566243109803 3.479483809331356 M-223.66970942591115 92.9387549059938 C-200.79458762137648 67.61827679758696, -180.3905258372816 42.4278307306628, -146.7870253396551 -0.6294751483854668 M-219.75046966218676 96.22113600938503 C-197.26203540118635 67.81209673346068, -182.9364543285705 44.479429319731445, -142.75472598424278 -2.748033582479721 M-223.06882000894572 96.1315476075459 C-201.00006087445382 72.28282053847, -178.76325251665392 48.10738798446935, -141.35736932693146 1.0551714922627156 M-218.28381151458092 98.93632545423469 C-197.14642173178544 71.52736676169988, -176.68710614798505 48.508245765583816, -133.1553669074425 0.05331708371517152 M-219.7425945171512 98.0220083846595 C-193.48167729835905 70.32430515272789, -170.24283797740577 44.48611126722553, -135.457496326963 1.9641074097889373 M-217.0193513955395 101.35047806436754 C-194.54352946699174 73.02228959253429, -173.9098372995318 51.47960186597152, -129.57004233802866 -1.9851362822169918 M-217.56206566537128 99.98995901467836 C-188.21041779986743 66.56150447811939, -157.98941626878354 32.66655346931863, -129.71468037161242 0.19234459609142363 M-213.7404145003751 104.5730909100961 C-196.7755771583833 86.42853140725167, -176.79404878197624 63.61770861787816, -125.86391775030425 3.114094220259034 M-213.23225054344982 106.15545564994626 C-184.51547703935506 68.65172632857967, -154.2920402927105 31.429406127317066, -121.49585695471397 1.7767581587366692 M-213.62485727440009 104.29569231173286 C-187.77274893260747 79.59144630178596, -161.2121641014898 51.9808413161822, -121.42168986857232 2.0355277416785427 M-212.72965061623046 108.81628881780694 C-174.9995522528536 64.17861581811967, -139.1970935262637 23.938709545213115, -117.37694594510194 1.8694575802912183 M-206.37006741292709 113.91684183959035 C-182.3251682412701 81.51248330253974, -158.5511493348986 51.84070073604557, -116.96046860915483 -2.2137044778687525 M-209.73975172355705 111.88548342060415 C-175.0833146477188 69.53381130241974, -140.42702166629405 32.06141404690922, -112.26823352862955 0.6658675578760338 M-211.3179638612685 111.66713031398102 C-187.30343650268068 92.38915748275329, -163.06626517415594 72.56015563591598, -112.90324931231685 6.858817533043521 M-206.09452408027326 116.32879873568162 C-186.78444845959814 89.08279355196649, -159.74712296576254 58.600517879139936, -113.10034444009311 4.879904644948738 M-206.5799968147369 119.7341798052174 C-181.26145260336037 93.1501849839544, -161.42339451357253 68.75805297745737, -111.3509092494278 9.525739613391224 M-206.20992227622287 119.60222841538311 C-184.0374831487366 96.42850987634077, -166.32223681394998 72.30035294096555, -108.1087384703933 8.351414387516442 M-206.1621477186447 119.38764363361196 C-182.4106179196785 100.96047099233255, -167.05589179197568 71.3669136849701, -105.67232917378121 11.30441549393241 M-201.5233852762496 121.08950048705236 C-176.11309399764036 89.27896270365585, -151.19528085721998 60.33858011069444, -105.7363320173549 13.82315334836845 M-197.08992926830447 122.10420636947727 C-165.71696432373315 83.21899454099606, -135.15175161573316 45.79032417313397, -101.75668497270857 13.02539183453402 M-200.93133642019725 125.53957735303318 C-172.27656243026928 96.11870749635742, -145.13327019999448 67.0704487109789, -107.19828973784064 17.32177414440295 M-200.5333854090287 124.69258383312575 C-159.51671970172632 87.35074800797295, -122.22994380810181 44.31853512111208, -100.3869198995034 15.995084865954098 M-199.22668342290956 128.50415579066924 C-175.43973242556774 102.33358092600254, -150.51798217728634 79.81191732060529, -102.16799677967529 21.633002088409242 M-192.93209133612993 132.41852309486993 C-155.1154913839913 93.7816668921963, -127.39035025740344 54.28099821006754, -105.77233137048768 27.837813328282394 M-195.5363183742303 131.77516695230432 C-163.85456806671883 91.4742657212555, -130.8933792596734 54.23584675895121, -100.6221455787121 24.45616812750832 M-191.77621252391106 138.88451205524507 C-167.2187284064861 112.2459931598334, -147.78793185749979 86.06542657529204, -96.6417480519834 23.884927211608613 M-194.41467676799363 137.57698594550493 C-167.47011102359133 105.18386145768882, -142.14308755358263 71.46852402319601, -101.24641294580428 28.105837583821142 M-190.10726860970365 138.1359411241182 C-170.68515060460987 108.20722947638524, -141.2643308397632 88.28607753480978, -97.33670694728409 32.56393649669081 M-193.65700138606238 140.98509351216936 C-162.2794507707879 107.52643898278535, -131.9236813824439 75.12735364263904, -97.84113715377663 31.21343889513701 M-186.29919242285817 136.54081280091063 C-169.56798948958203 112.05381844690368, -149.4054834111652 96.92258026362238, -94.34404019372121 33.240544093395926 M-185.39290132731824 140.11828560875014 C-151.92856965667795 96.96594517379496, -113.34411637838849 56.31264768876565, -97.16640473449186 34.88179655335412 M-185.05603833263015 136.97125663727152 C-153.25482698937537 109.40177287243019, -129.13733049483187 78.17009306911586, -94.66934729458828 37.381322482482034 M-182.39656035554802 140.63268836892772 C-149.4241207894306 100.87448612959184, -114.70845291395595 65.4494778888428, -92.62802271077473 38.16030774626179 M-174.72791972635105 136.34375679306788 C-141.81048760865056 101.66774482631334, -109.23560408627564 62.27904556195473, -89.71352288721683 41.641037073816065 M-174.7151743776144 139.57448565960033 C-150.24574819633295 110.21298619969502, -127.03312122346088 85.82532877263924, -89.46654636448802 43.44476571575821 M-168.30871735731444 141.8006669990577 C-150.05091214124465 120.33569551566184, -137.2391852383641 95.07352522855726, -89.64622897490031 45.025322848156065 M-171.97915979134223 137.87393404355723 C-143.60428911154804 106.40730072227173, -112.98827180564388 72.2972931253814, -90.44325146845645 47.95253639963266 M-163.31260711285177 135.79753391510795 C-132.21747432843898 101.75589672698331, -103.81479696736233 72.57494031855585, -87.28242269497025 49.97800771536901 M-166.5911812535942 139.7451861376966 C-140.9806040740719 110.28410349680003, -114.40482293380259 86.7697651314987, -89.02916205454278 49.12238178978338 M-156.14753224625656 137.26577377197668 C-149.18074235751794 121.16369720849225, -132.33451856010979 99.40452710451677, -84.45582855072016 55.543789156212924 M-161.41212391219506 138.1614672548078 C-134.02697896983128 108.86352859843474, -107.19412894216113 79.42235959888043, -87.09102264557177 52.08963657399964 M-157.9917311448603 142.69999572953083 C-136.46149567716816 121.73096565323146, -115.07177556256325 102.96976317577612, -80.55152520847201 59.21026716077755 M-152.95012117400756 138.25489876178898 C-124.62590696665333 110.96887850935121, -100.5334263415638 76.74296110362681, -84.73638505239666 59.84074107440243 M-153.16720956195647 139.32067851852847 C-127.68343126603094 115.31381553500017, -105.74897319804502 88.52323888652732, -79.59912258454781 62.29707296915259 M-151.04652693685645 138.79167472142947 C-132.2442943049596 122.91994945847837, -117.73544667986465 105.85179990132474, -82.71928546087068 60.914869988112706 M-147.0162683848766 142.16149379883655 C-121.79537228958633 114.89671346874023, -97.92084836155041 86.82261433790018, -77.36593893224106 63.34499781209611 M-142.0649433576045 139.57188525062747 C-127.21623325491856 120.60862857893468, -111.84560399784327 100.72842618844491, -78.8459215188186 67.10556112791978 M-140.2749758669142 143.23198280121306 C-118.19964601335985 118.9234990438234, -98.4989383624207 94.81213188676179, -77.88958763888327 71.95802584947506 M-136.57719308407644 138.90469316217224 C-127.75583557627382 122.92978413257438, -111.79589337714913 110.87956043142646, -75.81973913310317 69.61524836072186 M-128.94969539540074 140.60487968552502 C-122.82461426661835 126.24554361253267, -106.59800507961896 105.86693230307543, -87.00445295060656 86.7960736758346 M-132.55234702313504 137.008157322962 C-124.90905843349782 128.3370270223616, -115.20502097319162 117.60045473865495, -88.08040819438777 85.36050111309535 M-126.69055772362975 135.57878818253047 C-119.44310529619075 126.40875428455092, -111.58685086718756 118.62183342490243, -95.41526629089431 102.92683466747738 M-127.04269657260505 137.4844092957861 C-120.06524150528055 132.07255126338265, -115.26533614221742 123.49357563713582, -96.18989889568702 102.63636871837414 M-124.66798873893269 137.76550495209636 C-115.87184587263128 130.0572280709966, -109.12099520721208 128.88241728290362, -107.905352855059 120.45980589471584 M-123.37278138934919 138.7194766975427 C-117.19569191074456 131.28988324714635, -108.76456735386957 125.04116026790612, -105.35322832684466 118.06290732890194" stroke="#fab005" stroke-width="0.5" fill="none"></path><path d="M-116.72250986299244 -3.19047365710162 C-137.64771144133763 3.460900588327592, -161.52141648174643 1.8215060112047186, -196.83141052576661 2.8143444734602525 M-116.31202832250622 -0.8360328469427714 C-145.09851434959504 0.22063001125839676, -174.98111029664395 2.342111135586207, -199.28428921143473 3.907308588081534 M-203.48744213434816 5.512566633799608 C-212.76336465184204 28.264954226477684, -229.46568562769133 48.671363696668614, -243.21856971457612 66.97570732406311 M-199.42966970841348 2.2453389263688877 C-213.33272776194744 27.35988885839283, -226.10678063804338 49.368922761266624, -240.93513964675378 70.4285111760997 M-238.56377978995454 70.34015873244934 C-225.42776061403453 91.6159457538117, -212.77667841505837 116.06547243358597, -189.07363075920497 137.44430970713194 M-237.9207453634591 70.25496009348862 C-222.30234378467537 94.43778846261506, -203.02633151942467 119.9999609086436, -193.81153849856113 137.89982324592467 M-189.98594898888027 138.93104505106504 C-173.8685512812293 141.404230045547, -159.56129227597086 141.4632237427137, -119.79597220331377 139.10741579100304 M-193.39371709124302 138.55697589866514 C-165.10303243047855 138.05502881665655, -139.19386899468964 139.0715229119824, -118.84197808004862 137.35773992292397 M-117.12207827478593 138.64123975798302 C-101.78038091974791 115.22592884310566, -95.47559842478837 95.8689394950617, -74.78800314820121 65.55009965005299 M-119.04270220495707 140.203506467266 C-101.83586092291452 111.01105490220567, -84.93158010636772 83.79639116921129, -77.0224343870462 67.31976936350544 M-76.34332674897026 68.52456692757984 C-86.9047746990908 53.08360503487226, -96.85775426699618 34.54984414677605, -118.60207581720081 -3.7186492495241055 M-78.62930170043121 70.22768495569905 C-91.7402950753638 45.29385291715214, -100.91146293112254 24.996002421099014, -115.87577966241864 1.3230382408944479 M-114.74891929155913 -2.2737367544323206e-13 C-114.74891929155913 -2.2737367544323206e-13, -114.74891929155913 -2.2737367544323206e-13, -114.74891929155913 -2.2737367544323206e-13 M-114.74891929155913 -2.2737367544323206e-13 C-114.74891929155913 -2.2737367544323206e-13, -114.74891929155913 -2.2737367544323206e-13, -114.74891929155913 -2.2737367544323206e-13" stroke="#000000" stroke-width="1" fill="none"></path></g></g><g transform="translate(25.904897099312848 13.253016275312575) rotate(0 69.89723840982553 69.89723840982555)"><path d="M69.89723840982553 0 C79.94359483713767 -1.0380439655020173, 92.19951446478574 2.814711515641357, 101.62257449607436 7.614600479704528 C111.04563452736299 12.4144894437677, 120.21768562347519 20.245355021993287, 126.43559859755729 28.799333784379023 C132.65351157163937 37.353312546764755, 137.2720444711438 48.49414424238458, 138.93005234056693 58.93847305401894 C140.58806020999006 69.3828018656533, 139.64678958224465 81.40623675836494, 136.38364581409604 91.4653066541852 C133.12050204594743 101.52437655000546, 126.82451180947662 111.81075025292897, 119.35118973167522 119.29289242894052 C111.87786765387382 126.77503460495207, 101.59892731962034 133.08315339099192, 91.54371334728765 136.3581597102545 C81.48849937495496 139.6331660295171, 69.46618308864235 140.58861782097208, 59.01990589767903 138.94293034451607 C48.57362870671571 137.29724286806007, 37.427357133411256 132.69185395635273, 28.866050201507733 126.48403485151846 C20.30474326960421 120.27621574668419, 12.463064569432923 111.11340765215269, 7.652064306257891 101.69601571551044 C2.8410640430828593 92.2786237788682, 0.012522122798574268 80.55478790407336, 0.00004862245754111427 69.97968323166496 C-0.012424877883492039 59.404578559256564, 2.7884523171321405 47.674102697111266, 7.577223304211692 38.24538768106004 C12.365994291291244 28.81667266500881, 20.18603585283661 19.6353913279821, 28.732674544934852 13.407393135357601 C37.279313237033094 7.179394942733104, 51.99629481265269 3.111964047872655, 58.857055456801135 0.8773985253130547 C65.71781610094958 -1.3571669972465457, 68.05720791765478 -0.08675770714724251, 69.89723840982552 0 C71.73726890199626 0.08675770714724251, 69.89723840982553 0.2329907946994183, 69.89723840982553 1.3979447681965098 M69.89723840982553 0 C79.94359483713767 -1.0380439655020173, 92.19951446478574 2.814711515641357, 101.62257449607436 7.614600479704528 C111.04563452736299 12.4144894437677, 120.21768562347519 20.245355021993287, 126.43559859755729 28.799333784379023 C132.65351157163937 37.353312546764755, 137.2720444711438 48.49414424238458, 138.93005234056693 58.93847305401894 C140.58806020999006 69.3828018656533, 139.64678958224465 81.40623675836494, 136.38364581409604 91.4653066541852 C133.12050204594743 101.52437655000546, 126.82451180947662 111.81075025292897, 119.35118973167522 119.29289242894052 C111.87786765387382 126.77503460495207, 101.59892731962034 133.08315339099192, 91.54371334728765 136.3581597102545 C81.48849937495496 139.6331660295171, 69.46618308864235 140.58861782097208, 59.01990589767903 138.94293034451607 C48.57362870671571 137.29724286806007, 37.427357133411256 132.69185395635273, 28.866050201507733 126.48403485151846 C20.30474326960421 120.27621574668419, 12.463064569432923 111.11340765215269, 7.652064306257891 101.69601571551044 C2.8410640430828593 92.2786237788682, 0.012522122798574268 80.55478790407336, 0.00004862245754111427 69.97968323166496 C-0.012424877883492039 59.404578559256564, 2.7884523171321405 47.674102697111266, 7.577223304211692 38.24538768106004 C12.365994291291244 28.81667266500881, 20.18603585283661 19.6353913279821, 28.732674544934852 13.407393135357601 C37.279313237033094 7.179394942733104, 51.99629481265269 3.111964047872655, 58.857055456801135 0.8773985253130547 C65.71781610094958 -1.3571669972465457, 68.05720791765478 -0.08675770714724251, 69.89723840982552 0 C71.73726890199626 0.08675770714724251, 69.89723840982553 0.2329907946994183, 69.89723840982553 1.3979447681965098" stroke="#364fc700" stroke-width="4" fill="none"></path></g><g transform="translate(42.03064220044928 48.452873704441004) rotate(0 52.147682189941406 32.09088134765625)"><text x="52.14768218994141" y="46.1817626953125" font-family="Virgil, Segoe UI Emoji" font-size="41.259704589843736px" fill="#000000" text-anchor="middle" style="white-space: pre;" direction="ltr">Apian</text></g></svg>