<svg version="1.1" xmlns="http://www.w3.org/2000/svg" viewBox="0 0 117.84557445214628 25.3692747767127" width="117.84557445214628" height="25.3692747767127">
  <!-- svg-source:excalidraw -->
  
  <defs>
    <style>
      @font-face {
        font-family: "Virgil";
        src: url("https://excalidraw.com/FG_Virgil.woff2");
      }
      @font-face {
        font-family: "Cascadia";
        src: url("https://excalidraw.com/Cascadia.woff2");
      }
    </style>
  </defs>
  <g><g transform="translate(105.06361821459174 12.7853536895322) rotate(0 -46.1408309885186 -0.10071630117585073)"><path d="M2.7819562375545503 -0.19045700430870038 C-12.840382819376785 0.40618028945309204, -76.99883866410651 2.7517837120385105, -93.72129368783473 2.583921087180511 M0.8476368387043474 -2.7621589024364948 C-14.9996080667301 -2.915734702432332, -79.60491441633502 -2.2775187764772644, -95.06361821459174 -1.723310000057086" stroke="#364fc7" stroke-width="4" fill="none"></path></g><g transform="translate(105.06361821459174 12.7853536895322) rotate(0 -46.1408309885186 -0.10071630117585073)"><path d="M-67.35883476322651 -10.196528752657793 C-73.71843466707318 -11.86012744333083, -87.52644403197593 -3.156745063326791, -92.10290584133506 -5.1763405266951175 M-66.1122817296362 -13.83504431447687 C-75.63349092133117 -8.100717575921568, -83.691236868076 -7.443394739188685, -94.10066986249328 -3.243405855054721" stroke="#364fc7" stroke-width="4" fill="none"></path></g><g transform="translate(105.06361821459174 12.7853536895322) rotate(0 -46.1408309885186 -0.10071630117585073)"><path d="M-66.9426060074976 10.320458258322736 C-73.28131448718518 2.5006986861084846, -87.2143818726087 5.039649254690955, -92.10290584133506 -5.1763405266951175 M-65.69605297390729 6.6819426965036595 C-75.16821085247813 6.897869281309185, -83.33795822025482 2.034353711531814, -94.10066986249328 -3.243405855054721" stroke="#364fc7" stroke-width="4" fill="none"></path></g></g></svg>