<svg version="1.1" xmlns="http://www.w3.org/2000/svg" viewBox="0 0 326.363525390625 196.01150689326926" width="326.363525390625" height="196.01150689326926">
  <!-- svg-source:excalidraw -->
  
  <defs>
    <style>
      @font-face {
        font-family: "Virgil";
        src: url("https://excalidraw.com/FG_Virgil.woff2");
      }
      @font-face {
        font-family: "Cascadia";
        src: url("https://excalidraw.com/Cascadia.woff2");
      }
    </style>
  </defs>
  <g stroke-opacity="0.9" fill-opacity="0.9" transform="translate(10 10) rotate(0 153.1817626953125 88.00575344663463)"><path d="M6.130688548065159 17.254443188654164 C6.130688548065159 17.254443188654164, 6.130688548065159 17.254443188654164, 6.130688548065159 17.254443188654164 M6.130688548065159 17.254443188654164 C6.130688548065159 17.254443188654164, 6.130688548065159 17.254443188654164, 6.130688548065159 17.254443188654164 M-0.6278927804802308 27.855761166509588 C11.710902656839334 22.197982700324552, 11.471271060678363 12.286058992244719, 15.748861562506356 10.282103966093494 M2.5786288200046172 25.85993817060848 C6.311130016485457 23.536862035266637, 9.647478450528173 18.0693919175285, 20.84314618636767 8.49518237552686 M2.549460980115274 34.45937514039517 C7.286395524711617 28.115124860988807, 17.470892810362713 17.074065724283802, 25.6113626358317 3.0704749499620547 M-0.05451947170700677 33.718985227074626 C12.177690112736094 24.034819321273385, 20.16482488870792 15.690917925768069, 26.15158441637026 4.116043326741611 M-1.4428708592049624 43.789297600464224 C10.546551813556837 24.31509762525937, 25.388787117875026 13.980544874796028, 39.075280542222316 -0.28949911543145035 M0.9774549862750028 39.338184763864874 C7.758842789061903 31.22891930086218, 16.24644558981183 23.694597585796725, 34.973396266547496 1.6546297853349223 M3.9947210765590597 47.58966917171675 C11.42934266176774 39.94404404874901, 19.343941844311214 27.66705154016887, 39.92925242475414 0.5464990366951561 M2.015372506450646 46.454841468479216 C14.459591204749247 34.88102220674714, 24.930931452851322 22.274213184534208, 42.682179817475316 3.10467308058897 M5.087228104426323 51.176549639598306 C20.405216950527088 38.08515880854826, 33.549178268654046 16.229426867222763, 44.772123774389215 2.928771710450782 M3.1191853433389056 51.784429188863214 C16.653931010238956 35.04458902677714, 35.90074953825379 11.943203797868911, 46.55549149761576 -0.1278604208873375 M-0.37862234262216177 54.90966046866333 C17.732111094410264 39.25744339294174, 34.222171501890735 21.761056522326896, 51.17206299511803 -1.4657500493873385 M1.0043318674207917 59.49233345207131 C9.77492226687261 47.582027430654705, 23.882777310627485 32.99560198378579, 52.933960648459326 3.0958743881832333 M-2.3028389475673947 62.23006144435739 C14.94562585873209 50.12330281767178, 24.70025353257987 31.67312836012536, 53.63473849093111 5.102364801958014 M0.7932643332153049 66.23152810604905 C13.500848343366885 50.811688562182994, 27.59231055565192 34.9131730502538, 56.18946661149653 0.38347261507790265 M0.3202466935811117 68.3771836114577 C16.908790309765163 49.38537867301487, 37.366110660075684 32.2378717443676, 63.63514157884743 -1.3008239500676062 M1.6078620822129324 70.85960825807368 C20.145797813889953 53.55351212639003, 33.49578537745822 35.35838202730052, 61.75696164124634 1.0754081077422235 M3.4338029848138873 80.65295801474147 C31.16673783781964 50.49274304692861, 57.05772083900666 17.742232809407156, 64.20999969184801 -1.5655948409097533 M3.601254455904204 75.7029190154224 C23.454248413536366 48.57949270045871, 46.58278407890276 24.733886350183, 67.7268841081898 1.9620663932306428 M1.9503212431499009 82.68594443965426 C26.978532437546367 50.72985342569959, 56.44813296767025 20.16918706872326, 74.70930414695184 2.499111914877119 M2.9896437088080887 83.82068422604075 C29.212007700766975 55.14915975159494, 55.564946823274056 25.951211203083325, 72.59668626684586 0.32142131948870656 M0.3440289015701623 87.14836435075057 C20.811691054784557 67.8724914695061, 38.914368355580535 43.67116224160207, 82.04478237713991 0.12801778184748258 M1.6447182114055963 88.72203941698325 C31.699323674048266 58.43225297624289, 59.47230309997681 24.380563159465197, 77.51930648769556 2.8813584135708865 M5.402417277093683 95.79377753347586 C32.0307047455286 53.80047803204251, 65.22901158641477 23.720748616200027, 81.44142569943124 3.637182545446855 M2.845180218215738 95.40370843619536 C32.36327742497761 58.926997598616346, 62.53924399257312 23.42930475471576, 82.05469702525788 2.8573515234227003 M4.818654773710939 104.1741150326074 C29.111670865917986 72.1552682326421, 53.617921599436244 36.48196785727919, 87.68596154680681 4.386327670229704 M0.8691590707289905 102.06703639095434 C18.80835488043224 80.9459071916107, 39.009462866776765 56.14351185048227, 90.41829625001382 0.914786176098616 M3.223409795412458 105.90380789292244 C25.310271797764333 86.07531292638205, 42.62026107664494 62.63381226106244, 95.87838123628563 4.816512941641584 M0.02603411043588011 109.38211838853745 C19.903658842359754 84.4104480109845, 38.670717240917725 63.593851418967155, 95.2325564164824 2.206636219544187 M2.2166736592172143 112.9239158998665 C26.424297594637395 87.16904706996056, 45.35232882233633 57.88643623142564, 100.6804122008487 -1.5875401757630598 M1.6882575918553826 113.7519282768902 C37.62173879390242 72.64096429828456, 72.45593102221495 32.45740149278629, 99.77541589514459 1.3357871808138597 M2.96017379810624 120.21916051799403 C46.79642691549629 69.7253244831312, 81.19812703495907 23.550751774139073, 105.06704575751502 1.7402281034613125 M1.8837678854685294 121.02935158306704 C28.603163312844647 89.89607968249227, 55.80174630046988 63.90657802433051, 105.7318269405194 3.3927129078531735 M-1.0710984709014966 129.85560153275057 C40.525168112776285 81.2543143492457, 78.90639214431205 42.623626411248694, 107.57500933926559 2.409539243869169 M3.047517245794289 127.55486215501352 C40.08897114421839 80.99051038424362, 76.601331450524 36.75342662392177, 111.44222792308784 0.9177989277165963 M2.503525256184517 131.6976699889134 C26.30617003946401 106.09417532281032, 44.13234779436178 76.25858134645077, 111.05429426311943 -0.8885469690939516 M-0.38611498567682645 133.8735551000069 C36.074140614719106 86.30617147702307, 74.72842758246716 42.1459527124983, 115.65407109736893 2.939019088349667 M1.0022133833547855 139.67229693125967 C46.81259221635144 89.08043206018122, 95.57204333704044 31.16930028176978, 117.9166279620575 -2.419309070873595 M1.0485005325456882 137.99927552532438 C29.301049463446333 105.1204505036464, 59.95825127214066 71.23639048185125, 119.77029483384362 -0.06574108319315997 M1.368516256618804 147.2783325650122 C29.27740231433551 109.91203498573735, 60.622995345240476 71.11487824850789, 122.88700175309882 2.633312723975777 M3.536125083971328 143.92403769868872 C35.5679757464699 107.84175938216706, 68.10344480821573 72.92335658441216, 123.60085138703093 0.8689922610336538 M7.451661308957583 149.81299835472544 C44.15254274530015 103.7837848442575, 85.72861275587262 50.1970552712953, 132.25214306922442 -1.8709601199913664 M2.2609470390811026 148.8444771471544 C26.714536761313852 119.02377307143688, 51.66712007333457 91.36835954532691, 131.6111791274119 2.1586046480845766 M4.77938344496496 152.44088789191912 C40.820567061078044 114.88028651478268, 75.3158403711318 70.2849167947695, 132.96921748785172 2.8860878790076097 M3.3394509597197923 152.2518606224045 C52.291290384212516 97.83027048924171, 100.93681045549916 41.34707572827749, 136.6246302578346 0.8135717223374569 M5.192505045751228 156.52992379040953 C57.150283301856255 98.01231053841036, 104.47750263022071 45.959823439384614, 141.43959196971647 3.809624411925696 M6.496349289994135 155.31111763975258 C56.79785830130647 95.86176421657592, 107.51350654788848 35.80814160876169, 141.6072324543845 3.4588198217469683 M7.081855917005818 159.944298464525 C48.99630507985685 113.25944826259142, 91.07335393986598 72.51545094847447, 147.22145163303085 0.15506311883874657 M6.740050712665909 161.42454697275093 C34.518745065223385 128.43622500630397, 67.01815289685048 94.35559347301944, 146.5143564335791 1.505957583101828 M13.716691536842266 162.10950877173823 C50.30138873743883 111.25899782838601, 97.83053763015285 64.01683011815832, 153.23444271396068 5.453531521527966 M12.454344233476832 164.25909361891146 C55.1917997507196 115.22623423154867, 100.69679951693288 63.39423796270941, 151.17021004601813 1.6444252673786357 M12.602261984149278 163.76939991058705 C65.03136657854232 113.70317254130926, 114.13478136398314 55.716538948726324, 156.99377596268812 2.079061300658146 M13.567174825105429 166.2775681049754 C56.99712011761175 116.79129792459341, 102.95723435339838 62.537572338892325, 157.1481140778962 1.6974381103392397 M18.93643317824091 171.88847227175452 C47.81278049208449 135.5729428594267, 79.53183867124413 106.85747788435454, 164.6787064525361 5.310443192146102 M17.345466216115693 170.42844992536058 C55.40120903553196 125.19522861020539, 98.0536200210882 79.13634364624369, 163.41443515105044 2.9318763785390893 M19.367507361961497 172.1850702302444 C63.16967909817373 125.66050186325792, 104.35549932074197 81.94934482577901, 166.81969077947397 3.058458867870522 M19.10639499627578 170.87655261517813 C74.31388899958247 108.97824391930394, 126.22369425147173 49.362988452691994, 169.00810955368655 3.148153683651793 M23.22921165099003 175.38994474616078 C70.93978323103603 115.88048128739915, 122.79618912087142 61.72749303257846, 172.85021887255022 5.349746190652862 M24.775255940450283 172.41768448206787 C78.57829052553063 110.55723120225862, 133.254014132349 46.70101446457719, 172.13501201266888 1.8842832589948086 M31.054168011765356 172.95929493411546 C83.26292697921481 108.1458633680251, 140.2544817205277 44.69144630075115, 180.12252404815428 -1.3586881667612225 M29.07813025922256 174.67422194091833 C85.71115535031757 108.03568749640338, 144.2819561565089 41.491418669709766, 179.59931087022505 0.3265200117354363 M32.16766414753612 173.14265634511085 C83.28525225884417 111.51929543308049, 138.78543073383827 53.90189971564074, 180.8335708710294 1.4853796781997677 M32.649711050863324 174.76855725251707 C68.48485291184329 132.3366738291184, 106.09259296380621 92.54267162037638, 185.35821482225472 3.0384644748782867 M38.52864561505451 174.5512761446707 C85.33690245445774 122.10689061705696, 137.26191657080355 62.916801019550725, 192.65368120382095 -1.184740882092325 M37.560103106214996 175.89373915259318 C78.04485185274976 129.07424166223763, 120.4896192606701 84.56950096037535, 190.3058542071488 0.9408115563873845 M38.764942383702035 177.72138996845686 C70.3877235602496 139.52374604745458, 98.31238329989846 103.59948633065432, 197.51910555586693 4.082170367670377 M41.2927934339293 179.2494386885528 C91.47232759709641 125.51639450827251, 137.03703101721547 70.92334544475291, 194.4358875697264 3.632226977796205 M48.03896540816942 176.34232807314152 C91.70783188009537 128.31170347507577, 135.59610558680254 76.59861309368256, 199.42613608096406 0.7244349904514951 M45.117458784802714 179.50996113908846 C105.69285146467759 109.90726174814625, 165.91738144845928 40.14645954607882, 199.5275595925854 2.0093132632011694 M54.90114003612038 176.13926155279856 C93.79351155706433 135.41982749230993, 127.41709710588086 94.28536374874024, 203.90339270633217 3.9722405727152035 M50.78883011746947 177.84536715456562 C110.04164174346039 115.03200668525976, 166.1481718818718 50.65626232282454, 204.76539310736814 0.5307381803324864 M56.847064527389236 180.10235163040346 C87.39783661426783 142.7693141074804, 119.17271935560366 103.82964623344223, 208.07766005872884 2.4388933696372517 M58.13352608993486 178.0702452700938 C115.36275451022101 113.97829440752795, 172.01933418242808 49.84916958683348, 209.4570583547732 0.18495372816649747 M62.59211278565087 178.8710830166629 C96.08962421351815 140.65832983187082, 125.71325137913786 102.1033025974798, 213.98242319665354 -0.35622222728200814 M63.05386468539704 177.917426063922 C95.77091982081022 142.8645904210085, 128.48053325395742 108.54524341912497, 215.37019761294292 0.30140567666998264 M68.12721850979264 174.9568423229193 C109.59268299847606 131.6688875111165, 145.0273766438511 86.75869363098803, 218.64123313405216 2.8704855997019143 M66.54859014238144 177.201138217066 C117.61681016399538 119.08797785948661, 171.91356914000062 58.36367207632036, 222.70798837208795 1.8135856262861227 M73.3310994316773 179.9310346572744 C123.70675523664528 124.8721801674881, 167.59575246487867 71.0662655914394, 227.36156937778742 3.925512583690858 M73.57517836423521 179.23846655989317 C129.14734392580496 113.64115440103078, 189.2485259274155 48.4769486203029, 225.7021490480555 2.319931294882381 M78.12409457412963 177.09984923193903 C119.58997399644245 137.47621347768307, 156.7615911015543 90.0472555890706, 230.31308232568406 1.7688561618954979 M78.24884978276748 177.97653338937994 C119.20394226602758 135.69408667729107, 156.82010524907352 89.71914778086459, 232.19792378515467 2.6984598669350586 M82.27950881901236 176.4534984050149 C140.09967328358135 113.47018445826306, 194.15448564649517 53.13999627486221, 236.07104983460485 3.4918753174176302 M83.04987832632537 180.0529283108937 C143.68611269321957 106.08360197280123, 203.35172657643406 35.31732338918892, 235.63643462423255 2.1815082353115764 M88.98547953915025 176.58303463871266 C119.87658502980045 144.44629033848048, 146.72196711298375 107.39627115131302, 241.4461318523746 -0.27304766253202684 M88.04931045171799 177.67546159641068 C125.4245851544865 136.59094782130495, 160.24214517284685 96.00276134376365, 241.38572373459834 1.5943871594882775 M91.16347636640602 179.15105514113424 C124.87849482226774 141.02160277397897, 152.82112885760736 105.21331106212831, 244.78855978585597 -0.6425353448516913 M93.25021811229247 177.42901642629846 C151.14829951561754 109.03678623189599, 208.83500425881047 42.78479522644452, 248.8427391820991 1.8033327073325687 M102.02064024119919 177.79379494031872 C159.04932353942232 109.49879974509909, 214.6387084622842 45.48816608009087, 255.64665691824692 -1.070631262225572 M97.92976448315314 176.52559829920554 C152.47669212396818 115.0130267373438, 205.6378300461824 54.43245378594523, 253.49789145869633 0.9600883721403679 M107.61225709260825 179.3403213468825 C153.5033114920682 123.12639410553417, 203.06523539311934 68.3222939811525, 257.3484916502906 0.12660447813290765 M102.99689146276152 178.13291821548253 C164.08577517943496 112.61305872504676, 223.83002410662021 43.53391872819007, 259.2927653622801 2.680949520320372 M110.92998704624222 179.2180608705217 C149.74750565743128 133.81337337664476, 192.82949830028204 84.21935614992893, 264.7838595859314 -0.5893753462503573 M110.30480323781235 177.7178393521226 C155.27965584396134 129.63134278740097, 201.01562020641202 78.243029206169, 264.6789772051165 -0.1767684621923944 M118.17253601636907 175.92763870350964 C170.44493250150668 114.48968797482695, 227.40508160966664 45.981937164249125, 269.9955126466589 1.7540766676213704 M114.90545471835752 178.38953598782092 C155.23417271816913 131.3504488401138, 198.85712802264976 81.12680813040345, 268.1262896054005 2.515040883649929 M122.09705499750821 180.19147212869723 C172.61968196581716 112.96874054733364, 230.26246544248698 52.88823422121939, 274.91949073930704 1.2955177075193245 M121.2460606486358 177.25484010853373 C165.63758924080528 131.4721047912743, 204.24527091839371 83.6658633539556, 273.0052199448936 2.8132421777271466 M128.79859922292835 175.39766782331083 C172.90177785989837 120.37227321917285, 215.45481453767067 73.24844136015338, 276.81400669873597 2.5447977403897704 M125.2644141611901 177.3716982566931 C170.2840885468141 129.73962621434887, 211.21504528226254 79.89694901725932, 278.9694574660295 3.4683169655471624 M134.29352702033503 180.87662329997943 C190.5423026699189 112.98862347385112, 247.95017712566624 45.16394845294777, 283.632784764092 5.567821780773457 M130.62194579706235 177.4839387043835 C178.86732225908875 123.05854968387567, 227.59789577369395 65.99719162556633, 282.87075352590006 3.9846750165640676 M137.82165557799286 178.3787364392971 C173.76298234221161 136.17595798969523, 207.87304311141156 94.1142489708881, 286.52369523640823 6.146627760167679 M137.55000239334333 177.2080330225512 C195.6400726076386 110.20312591398938, 254.7120274553851 45.038951549776804, 287.71392721478213 5.009380644827112 M145.4678598166811 175.4785586180077 C187.25988649754225 128.02307010244908, 234.316212057481 78.82015637170258, 288.5084453101701 7.263379120282204 M142.12212284832512 176.93394950546522 C175.53943174546743 141.25385905526565, 205.9549452846616 102.52555074973469, 289.809254566185 7.120216218177124 M149.54503028547154 179.5511768412614 C202.2748566317628 112.73847878211211, 256.9800886804554 53.09699805613193, 291.4771112458213 12.58144092049651 M145.44945585459666 179.6553184791542 C204.17502121178782 113.31712443336225, 261.6827717575695 45.83472768125692, 292.0313038221249 8.440536471633171 M152.59152305446648 179.5561238533868 C201.21616275549147 129.33415694115257, 240.292945242574 74.20288035666218, 297.1208816541967 11.260925173828994 M153.0847886564227 177.11736068172138 C199.32132949037802 126.34496151989045, 248.17010067893858 70.4659494482947, 297.1592286447115 14.488825913305925 M160.61128336570533 181.23498210457785 C195.77829498160878 131.96205128747977, 232.05740376921005 88.58903458117891, 298.818184443185 13.440051209060696 M156.74172216042754 179.16871413986703 C191.58236963584073 142.81118316789335, 223.0851042075477 108.67638632739948, 298.89465453551844 15.845926236350444 M165.65532596074416 175.16935808025858 C217.43297387219846 115.39048183845465, 263.8802171864212 58.18094790821678, 304.4431897002067 21.332909286134836 M164.68067665169232 179.1933864396808 C218.6154524038911 116.96476178380405, 270.93051187188667 55.6422081148197, 300.24050592338676 18.764238411750455 M166.58009489608472 179.6371711439576 C218.4346605356378 122.70355129666305, 263.1620167080192 68.21647517683873, 300.973325418751 22.030247482764608 M169.45288617400942 176.52092384794645 C196.9097602813427 144.18675299856403, 225.8126685170712 110.25046802762937, 301.8943631744357 21.942572936502067 M172.2234964192532 180.79211924807618 C219.43817415732588 128.07508823499867, 269.61810119761276 67.62753754622942, 304.71083814426885 28.623747279598284 M174.3668401596321 177.52687507874313 C214.62542002351555 132.79603770582523, 254.62069090866194 83.71175594184643, 305.7370479252762 26.62723028536557 M175.99528889870538 178.918007343434 C210.8132818182067 141.85979159839437, 246.95690332593767 100.46741300227356, 308.9125919480347 34.314493204654696 M178.24808086967363 179.43923795165887 C218.31826332093155 139.19579179207807, 252.62786116535767 100.76545376956047, 307.20298825097314 30.034432347120287 M181.83828231865294 178.19273607187714 C222.79507644864623 130.02184156088842, 267.7432097589425 83.76540761899925, 306.0963229378735 37.23294805686794 M185.6711362021578 177.88254673533882 C209.38614949487362 151.6626873761188, 233.0813608382036 121.91009293650286, 307.41657973733294 35.34891476433597 M190.97643388868477 176.66642953650373 C227.8361397822651 138.40158705805985, 266.10808793818904 93.85946124288235, 305.44101936582496 42.874262010932966 M189.18314240933563 176.69342987434285 C224.51724932767306 135.9000328959209, 257.13077098026315 98.33278678515119, 309.5995778239148 40.649592465044066 M195.07223492581983 181.21764752275936 C228.59796288682855 132.69521739492706, 265.3831752748042 95.29333825598034, 309.0148496358797 46.41536611162702 M192.62530174572606 177.30611121661656 C229.7356321288344 135.8352139927569, 265.0322159251474 96.81691099979022, 309.8426118522093 47.32531055652181 M203.34991286303918 179.76861149519846 C238.7684739428247 139.61485071111085, 273.15360971599705 102.3203145801581, 308.47954118101876 52.340981823504535 M201.49430258181016 179.60472628921434 C229.1434821455811 142.83241324731802, 256.428927520181 106.91907794777096, 308.92362019269746 52.47895456582364 M203.34695901736174 181.3228812392666 C230.00582219464857 149.1626181154025, 260.4807459242988 119.65343973097694, 311.81008531826103 56.21716893201112 M206.69384717210684 178.9609989400818 C234.47947161086606 146.90587084167333, 262.7546091296777 114.71403051435574, 310.0275550998982 59.70099834089517 M212.16260082176856 179.92767821951819 C238.79213428932198 148.41456654694946, 262.3056478319343 122.85783032356389, 305.88715045159705 65.40835848192391 M210.78312388709716 179.19656469627333 C238.18835115304765 145.80145018452106, 268.4383327019922 111.93087062622592, 308.3387959153021 64.78653698901353 M213.20932959327865 178.71156222139882 C237.5975168853855 145.75017610133585, 267.7449871623643 116.9920895749151, 308.52890498501733 71.34148151802017 M215.72833498130012 177.62064740573453 C244.84632164238937 146.56554571087224, 272.4628731988695 112.6623797665346, 310.07297198039964 72.99941561745598 M223.46137276487298 177.84675470946294 C243.86314935399173 157.38451925925634, 263.5893342484383 131.6455884519188, 308.52284023554085 77.77009782574551 M221.1511688251967 177.99238259551984 C251.80622454732523 147.34895838865918, 277.95245605879154 115.28755382129535, 307.5087855497098 80.33635807416813 M230.20622165357054 174.58681546915605 C249.62194092814792 144.61425587668816, 277.7420132242547 118.07812678638845, 308.2181836361486 81.49142886965427 M228.08032767330587 179.55849411357477 C243.31359361958988 159.82957289980507, 261.7953554379968 141.46193351299053, 308.5804249937135 83.24399988620434 M234.29310369235236 175.22896596503264 C250.25091956779397 158.4869683096234, 267.4062878963611 143.17040627418345, 308.2774265038596 88.38403443519206 M233.1999998961087 178.0156174869538 C257.38297386507907 145.43097024378915, 282.5102542166737 117.18256878639738, 308.6290925669299 91.6565649015102 M234.88451019823742 179.15176598253828 C252.8809623216518 164.23743657823385, 266.9627561051852 146.23290017641295, 310.9247962716549 93.37013598691337 M236.60138774812413 178.5479765636025 C257.7335052186388 151.39116875921715, 281.7569074413959 122.0816785487058, 308.6514766398399 97.95818864714019 M240.70466860420677 174.7774369862274 C256.4961927674744 164.71153525857466, 277.638197638477 141.2552501766445, 304.6977842565534 104.45329331026366 M244.03117959983322 176.78970687057532 C264.87678736819714 156.76540915096297, 285.7627700580014 129.1006823834718, 307.05127946696257 102.0205949710398 M246.79107022727933 179.6095387615455 C266.8081181480345 157.57486218576588, 283.8972787769069 136.76029170693903, 307.69561789153613 106.68072786979744 M246.6430777057549 179.86253225581774 C258.09758318679513 165.7207799080258, 271.8857869754401 150.73878995911193, 309.8876894187788 108.16541940026352 M253.7429425004362 180.19529277304713 C266.0214805075666 164.0815024315456, 288.7378680549987 138.81337014142653, 312.3307884936222 118.18099945096026 M255.24627043637025 179.3380882463843 C272.82135152279375 155.37551368246312, 295.6307968611193 134.37927837821778, 306.62690874980774 114.2018857827569 M260.47277674069625 180.16325880617774 C266.4177903220064 167.289786190785, 284.4578361621566 147.27543291869404, 312.57752349579243 122.12632951830653 M260.0569600461982 176.27559869022048 C275.2645666712686 157.80656765344946, 293.21123863886066 135.22553542663965, 308.3906258305302 120.38912964557437 M267.45480038104057 180.18565832549186 C270.0739626029265 165.47418654080917, 282.4376031338601 155.44214281989315, 304.72331421506595 122.77027785728183 M264.94683490571975 178.1841991143808 C281.0545550398519 156.85753758911025, 298.00395034658754 139.57009215258012, 307.70754291546535 126.47387483666148 M270.13256376747864 177.26134153621223 C278.3830010162835 169.81986506994846, 292.2124602562655 155.1564157667628, 305.3052700264427 134.9194850928862 M267.85065629844445 179.30590378658798 C278.4285384635 163.07724951618104, 289.93925224930956 152.43039512002937, 307.4497303171131 134.1621760435183 M275.54317627501047 179.69694906333882 C282.73654081199294 167.78370566754558, 291.869855656372 153.09907927170423, 309.11011836290373 137.93367268967398 M276.39049453687227 176.596767394342 C284.96671295138634 167.78472657750567, 293.12828306773685 158.9762059380647, 305.8326264059545 138.11941879319915 M284.97336533661706 176.35220237142613 C288.06178949197226 168.08157559951823, 300.8114280966211 155.96093056911332, 309.20602762843953 143.98977169242247 M281.53178799148424 175.9721754646974 C289.002207478965 166.52262975208902, 296.3301737663869 160.07496020867833, 307.44686052348004 143.23444819298132" stroke="#228be6" stroke-width="0.5" fill="none"></path><path d="M46.97761681130331 1.6787871718406677 M43.411353003131936 -3.157770700066453 C88.76700316284959 -2.7039811190018486, 139.43054377701137 1.4283885763365802, 259.615908552843 1.4404309729230227 M45.05420027192111 1.2660038266959863 C122.50504121151478 3.7237885989921278, 199.9155812163967 2.0544711192528697, 261.1111684062457 0.11675312841031708 M262.3606486673077 0 C288.990042598874 1.5662631392478943, 303.45152002573013 17.25665673431688, 303.5132914185524 44.358810806779076 M261.4837671274861 0.05119127035140991 C291.2322997737235 -4.037649700045585, 306.97485449016096 10.534589273899133, 305.27540819346905 42.29765280833642 M309.8847579360008 41.41907455971639 C303.0531858887016 60.10416220656053, 307.8957781280815 84.01489682606092, 304.5394877791405 131.88908620032075 M307.48844388127327 44.94333880594175 C308.56472752102474 65.27300096967733, 306.796065068327 87.05380449083479, 307.91585496068 132.50930629523995 M306.363525390625 132.00863016995194 C308.01786333322525 161.89070857550968, 295.5944069940156 176.85148791276617, 262.6351362223347 177.80027560197516 M309.0873175263405 132.17881329211 C302.1055316179991 160.92648289289343, 291.4564814257926 174.2463842203538, 261.1065618122538 175.98492658638162 M264.59518488053845 174.18108687680703 C211.40990517294549 175.9740972726957, 161.52887761207398 173.17375107342107, 47.26730710380658 173.8472394654159 M263.5438556318662 176.11743610992303 C199.90672003428682 170.89822279748014, 133.48192182242335 171.35554239657858, 42.89493724505343 175.15379787986868 M44.002876723317314 176.01150689326926 C12.783965317576463 177.84724787675543, -2.946986138820648 163.3759743073212, 1.5088282227516174 132.65577061327699 M47.16352417519491 175.62465647660895 C18.771378208368354 173.85489929222268, -3.605510118603706 165.36494619932046, -1.9049320012331008 133.03599864693882 M-0.8926392197608948 131.42085309180024 C2.032737206641335 103.63061576885036, -1.3885865696037822 79.99571291855673, 2.7203425765037537 45.65938713601034 M1.972174197435379 130.82931457313302 C2.346967806439298 102.74122441655177, 1.0325289865540437 71.95193186739242, 0.8872561752796173 44.745713645724464 M0 44.002876723317314 C1.289523184299469 13.24125489410692, 18.328515259593065 2.805992066860199, 46.96503975441854 2.5716742873191833 M0.04305940866470337 42.523592377213646 C-2.2775795727968213 13.624067099063929, 11.056460739343699 -2.137754890322685, 45.688005337623764 -3.5566588133573527" stroke="#364fc7" stroke-width="1" fill="none"></path></g><g stroke-opacity="0.9" fill-opacity="0.9" transform="translate(200.17634440917482 49.72221671602949) rotate(0 30 28)"><text x="30" y="41" font-family="Virgil, Segoe UI Emoji" font-size="36px" fill="#000000" text-anchor="middle" style="white-space: pre;" direction="ltr">App</text></g><g stroke-opacity="0.9" fill-opacity="0.9" transform="translate(190.40351726073732 95.176684489467) rotate(0 44.5 28)"><text x="44.5" y="41" font-family="Virgil, Segoe UI Emoji" font-size="36px" fill="#000000" text-anchor="middle" style="white-space: pre;" direction="ltr">Code</text></g><g stroke-opacity="0.9" fill-opacity="0.9" transform="translate(37.84396840082309 52.885403332983856) rotate(0 61.24709605230157 51.65394075719365)"><path d="M0 0 L122.49419210460314 0 L122.49419210460314 103.30788151438729 L0 103.30788151438729" stroke="none" stroke-width="0" fill="#ffffff"></path><path d="M0 0 C33.57792048140233 0, 67.15584096280466 0, 122.49419210460314 0 M0 0 C35.08669517570865 0, 70.1733903514173 0, 122.49419210460314 0 M122.49419210460314 0 C122.49419210460314 36.10520670220587, 122.49419210460314 72.21041340441174, 122.49419210460314 103.30788151438729 M122.49419210460314 0 C122.49419210460314 40.96667280498902, 122.49419210460314 81.93334560997803, 122.49419210460314 103.30788151438729 M122.49419210460314 103.30788151438729 C84.40354351233273 103.30788151438729, 46.312894920062305 103.30788151438729, 0 103.30788151438729 M122.49419210460314 103.30788151438729 C88.95338191342535 103.30788151438729, 55.41257172224755 103.30788151438729, 0 103.30788151438729 M0 103.30788151438729 C0 72.14648289288087, 0 40.98508427137443, 0 0 M0 103.30788151438729 C0 66.41146097513011, 0 29.515040435872933, 0 0" stroke="#000000" stroke-width="1" fill="none"></path></g><g stroke-opacity="0.9" fill-opacity="0.9" transform="translate(47.97979079633467 59.126920001195) rotate(0 51.689812644836024 45.37655308516145)"><text x="0" y="13.12551769505381" font-family="Cascadia, Segoe UI Emoji" font-size="12.626519119349265px" fill="#000000" text-anchor="start" style="white-space: pre;" direction="ltr">DoStuff:</text><text x="0" y="28.25103539010762" font-family="Cascadia, Segoe UI Emoji" font-size="12.626519119349265px" fill="#000000" text-anchor="start" style="white-space: pre;" direction="ltr">    thing1()</text><text x="0" y="43.37655308516143" font-family="Cascadia, Segoe UI Emoji" font-size="12.626519119349265px" fill="#000000" text-anchor="start" style="white-space: pre;" direction="ltr">  while zef:</text><text x="0" y="58.50207078021524" font-family="Cascadia, Segoe UI Emoji" font-size="12.626519119349265px" fill="#000000" text-anchor="start" style="white-space: pre;" direction="ltr">    thing2()</text><text x="0" y="73.62758847526905" font-family="Cascadia, Segoe UI Emoji" font-size="12.626519119349265px" fill="#000000" text-anchor="start" style="white-space: pre;" direction="ltr">    zef--</text><text x="0" y="88.75310617032287" font-family="Cascadia, Segoe UI Emoji" font-size="12.626519119349265px" fill="#000000" text-anchor="start" style="white-space: pre;" direction="ltr">  return bob()</text></g></svg>