<svg version="1.1" xmlns="http://www.w3.org/2000/svg" viewBox="0 0 319.09088134765625 319.09088134765625" width="319.09088134765625" height="319.09088134765625">
  <!-- svg-source:excalidraw -->
  
  <defs>
    <style>
      @font-face {
        font-family: "Virgil";
        src: url("https://excalidraw.com/FG_Virgil.woff2");
      }
      @font-face {
        font-family: "Cascadia";
        src: url("https://excalidraw.com/Cascadia.woff2");
      }
    </style>
  </defs>
  <g transform="translate(10 10) rotate(0 149.54544067382812 149.54544067382812)"><path d="M110.68874766884753 5.66956833384188 C124.56485674360631 -0.7157453981242297, 143.13742394344936 -1.297535561538325, 159.0201429869751 -0.38219037435567316 C174.9028620305008 0.5331548128269787, 191.36350432187822 4.940207632225568, 205.98506193000182 11.161639456937792 C220.60661953812541 17.383071281650015, 234.70098191019954 26.820080294015327, 246.74948863571672 36.94640057391767 C258.79799536123386 47.072720853820016, 270.1810103355473 58.57194690657883, 278.2761022831048 71.91956113635185 C286.37119423066235 85.26717536612486, 291.9795817764814 101.50811490705104, 295.32004032106204 117.03208595255576 C298.6604988656427 132.55605699806048, 300.0150310854529 149.48040044756192, 298.31885355058887 165.0633874093802 C296.62267601572483 180.64637437119848, 291.74822216547733 196.10231019504917, 285.1429751118778 210.53000772346542 C278.5377280582782 224.95770525188166, 269.16097114266273 240.0232524256328, 258.6873712289914 251.62957257987765 C248.21377131532014 263.2358927341225, 235.90421217307562 272.53633958412536, 222.30137562985004 280.16792864893455 C208.69853908662446 287.79951771374374, 192.62423662284658 294.46798459769974, 177.07035196963798 297.41910696873265 C161.51646731642938 300.37022933976556, 144.8246377981957 300.30279395149563, 128.9780677105985 297.8746628751321 C113.1314976230013 295.4465317987686, 96.30172909698986 289.84067668715784, 81.99093144405472 282.8503205105517 C67.68013379111959 275.8599643339455, 54.20078814914091 267.0302497464319, 43.113281792987706 255.93252581549513 C32.0257754368345 244.8348018845584, 22.411860780619225 230.63877094936123, 15.465893307135502 216.26397692493128 C8.51992583365178 201.88918290050134, 3.6898849233336364 185.43564362673345, 1.437476952085376 169.68376166891545 C-0.8149310191628842 153.93187971109745, -0.7887015712861114 137.24894903799594, 1.9514454796459404 121.75268517802331 C4.691592530577992 106.25642131805068, 10.268685960759274 90.2675214853605, 17.878359257677687 76.70617850907963 C25.4880325545961 63.144835532798766, 35.79082316502252 50.970110085591216, 47.60948526115641 40.38462732033808 C59.42814735729029 29.79914455508495, 77.32959477208973 19.254566522661772, 88.79033183448098 13.193281917560824 C100.25106889687223 7.131997312459876, 110.82060880901415 5.426014265182753, 116.37390763550393 4.01691968973239 C121.9272064619937 2.6078251142820266, 121.5849139419353 2.3780819946165033, 122.11012479341969 4.738714464858646 M82.66383407115549 15.832084977907812 C95.04027818382046 7.0497254816372905, 113.69916856737787 3.0843077315610636, 129.565931640227 0.919344667079173 C145.43269471307616 -1.2456183974027177, 162.62474376975865 -0.27642053142683665, 177.86441250825033 2.8423065910164667 C193.104081246742 5.96103371345977, 207.4620718026759 12.079115321405727, 221.00394407117702 19.631707401738993 C234.54581633967814 27.18429948207226, 248.17443526118603 36.989034608648076, 259.11564611925706 48.157859073016056 C270.0568569773281 59.326683537384035, 280.18072603923554 72.28328324785534, 286.6512092196032 86.64465418794686 C293.1216923999708 101.00602512803837, 296.444098006709 118.39800928414961, 297.93854520146283 134.32608471356514 C299.43299239621666 150.25416014298065, 298.9527177293312 166.61289837601922, 295.61789238812605 182.21310676444003 C292.2830670469209 197.81331515286084, 286.05923913172063 214.3709899406159, 277.92959315423195 227.92733504409 C269.7999471767433 241.4836801475641, 258.6601578983336 253.6320117281939, 246.84001652319398 263.55117738528446 C235.01987514805438 273.470343042375, 221.71266938157456 281.70682330746234, 207.00874490339427 287.44232898663336 C192.304820425214 293.17783466580437, 174.60336615036124 297.0225018456031, 158.61646965411234 297.9642114603105 C142.62957315786343 298.9059210750179, 126.39834924045012 296.7747368358486, 111.08736592590087 293.09258667487785 C95.77638261135162 289.4104365139071, 80.01652347648962 284.43579042267044, 66.75056976681684 275.8713104944858 C53.48461605714405 267.30683056630113, 41.37574756477197 254.6011346971286, 31.491643667864167 241.70570710577002 C21.607539770956365 228.81027951441143, 12.564301475621296 213.17446901116944, 7.445946385370007 198.4987449463342 C2.327591295118718 183.82302088149896, 1.0875298134806475 169.40744257658955, 0.7815131263564297 153.65136271675857 C0.4754964392322118 137.8952828569276, 1.2317882076054145 119.32535081795776, 5.6098462626247 103.96226578734837 C9.987904317643984 88.59918075673899, 17.575755429552906 74.08180126730983, 27.049861456472144 61.47285253310227 C36.52396748339138 48.86390379889471, 53.325631157690154 35.81456573187953, 62.45448242414011 28.30857338210302 C71.58333369059007 20.802581032326504, 78.22166077654794 18.20435109882057, 81.82296905517187 16.43689843444318 C85.4242773337958 14.669445770065787, 82.79064057803201 15.571248542137505, 84.0623320958837 17.703857395838668" stroke="#000000" stroke-width="1" fill="none"></path></g><g><g transform="translate(244.8294949361607 64.82952074250909) rotate(0 -21.9364260871196 -14.634545935667116)"><path d="M-0.3471032224595546 -0.6196513451635838 C-3.513428386300802 -2.8403755384186904, -12.413241887340941 -10.381873364994924, -18.171883233636617 -14.208013347536326 C-23.930524579932293 -18.03415333007773, -30.33686833406488 -20.788073527564606, -34.898951300233605 -23.576491240411997 C-39.46103426640233 -26.364908953259388, -43.8129794202745 -29.880799988657234, -45.54438103064895 -30.938519624620675 M1.6715288564097137 1.6694277532864361 C-1.7242307335603981 -0.7804801063767322, -13.43131942286777 -11.212590780459966, -19.11472195272334 -15.735822382671758 C-24.79812448257891 -20.25905398488355, -28.05723024710702 -23.047977984848742, -32.4288863227237 -25.469961859984323 C-36.800542398340376 -27.891945735119904, -42.971036982880904 -29.607404562635345, -45.344658406423406 -30.26772563348524" stroke="#000000" stroke-width="1" fill="none"></path></g></g><g><g transform="translate(230.05677459924664 71.64771036348077) rotate(0 -21.184402021998523 -11.275100918859245)"><path d="M-0.6196513451635838 0.009917608648538634 C-2.935072219123443 -2.2449417831997076, -9.908388372013967 -10.63993172670404, -14.776193431764842 -13.876259573549032 C-19.643998491515717 -17.11258742039402, -25.049425748735665 -17.96073949361841, -29.826481703668833 -19.408049472421407 C-34.603537658602 -20.855359451224405, -41.33913967981935 -21.995582549025613, -43.43852916136384 -22.560119446367025 M1.2558929692860694 -1.0304795921500771 C-1.0411006080949057 -3.121305824682737, -9.896301444654043 -9.911861135826134, -15.129473181748763 -12.763071047430858 C-20.362644918843483 -15.61428095903558, -25.393933481359852 -16.70350099580052, -30.14313745328225 -18.13773906177841 C-34.89234142520465 -19.571977127756302, -41.34961151250638 -20.6514181849019, -43.624697013283146 -21.368499443298205" stroke="#000000" stroke-width="1" fill="none"></path></g></g><g><g transform="translate(224.94313476770367 33.011340658280574) rotate(0 -18.66146108731627 14.390730954753234)"><path d="M0.009917608648538634 1.1328870736062526 C-2.339636874447266 3.6514437717696033, -9.882347154865663 10.84071160579721, -14.444430121034383 14.491688843816519 C-19.006513087203103 18.142666081835827, -23.547845244656006 20.97147013768554, -27.36258018836379 23.0387505017221 C-31.177315132071573 25.106030865758658, -35.63193794911106 26.08488711938262, -37.33283978328109 26.89537102803588 M-1.4440143761504443 0.6820488419104369 C-3.3819247369437173 2.9240332056054226, -7.701472221162791 8.94463637709307, -12.156712309764698 12.818156642811372 C-16.611952398366604 16.691676908529672, -24.035210022178166 21.3762943654228, -28.175454907761885 23.923170436220243 C-32.3156997933456 26.470046507017685, -35.18164084369627 27.87646259685047, -36.99818162326701 28.099413067596032" stroke="#000000" stroke-width="1" fill="none"></path></g></g><g><g transform="translate(244.2613339254185 50.05680040559503) rotate(0 -18.02782104387876 11.461713126343675)"><path d="M1.1328870736062526 -0.8080699525773525 C-2.3144709544877218 1.4480271654824415, -14.916896807899079 9.690780281772216, -21.303799513727427 13.546500317007304 C-27.690702219555774 17.40222035224239, -34.71035931482911 20.902150503546, -37.18852916136384 22.32625025883317 M0.26851405791006977 1.382089376980439 C-3.2078053416653223 3.833823715482528, -15.97016769377825 11.311848008170104, -21.80280242958106 15.036749146217481 C-27.63543716538387 18.76165028426486, -32.3901383624319 22.37774366938509, -34.72729435690679 23.7314962052647" stroke="#000000" stroke-width="1" fill="none"></path></g></g><g transform="translate(31.545440673828693 227.01199871204062) rotate(0 125.49580987705963 7.561424814273948)"><path d="M87.46919544090527 0.8067822025985452 C102.2209202992578 0.33778775206233735, 122.92325300968557 -0.4787114998959354, 139.88792127023183 -0.426233938611972 C156.8525895307781 -0.3737563773280086, 174.4909294699027 0.6871661592171312, 189.2572050041828 1.1216475703023256 C204.02348053846288 1.55612898138752, 218.46429597826062 1.233924373348779, 228.48557447591236 2.180654527899195 C238.5068529735641 3.127384682449611, 246.2586638303126 5.501606223425615, 249.3848759900932 6.802028497604823 C252.5110881498738 8.102450771784032, 250.9943022627687 9.230984537655605, 247.242847434596 9.983188172974447 C243.4913926064233 10.73539180829329, 236.74029260125104 10.53940073448113, 226.87614702105685 11.315250309517884 C217.01200144086266 12.091099884554637, 202.81700176472407 13.909434552709556, 188.05797395343083 14.638285623194973 C173.2989461421376 15.36713669368039, 155.1230686838365 15.507771234243334, 138.3219801532974 15.688356732430393 C121.52089162275833 15.868942230617451, 103.22990674679787 16.152172059420348, 87.25144277019635 15.721798612317322 C71.27297879359483 15.291425165214294, 55.084039305453935 13.914313473238561, 42.45119629368834 13.106116049812229 C29.818353281922747 12.297918626385897, 18.55836670686255 11.684890280728617, 11.454384699602798 10.872614071759326 C4.350402692343046 10.060337862790036, 0.1194453157735727 9.367201859166883, -0.17269574987017222 8.232458795996484 C-0.46483681551391715 7.097715732826084, 2.857906296009496 5.03867413997913, 9.701538305740328 4.064155692736929 C16.54517031547116 3.089637245494728, 28.066686153011013 3.0919514501886622, 40.88909630851482 2.3853481125432783 C53.71150646401863 1.6787447748978943, 78.08338269004759 0.3311366908053882, 86.63599923876319 -0.17546433313537513 C95.1886157874788 -0.6820653570761385, 90.70822580175084 -0.6754896137445794, 92.20479560080844 -0.6542580311013015 C93.70136539986603 -0.6330264484580237, 94.96881529356305 -0.43667467996624065, 95.61541803310875 -0.04807483727570805 M88.36516108543725 0.4787381010653755 C102.91047594368369 0.32382628974768013, 123.38811594973293 0.19157596345737105, 140.3758493394583 0.4716979294943897 C157.3635827291837 0.7518198955314084, 175.89980043032037 1.68420381749475, 190.29156142378952 2.1594698972874875 C204.68332241725867 2.634735977080225, 217.21628248680062 2.6231519751654333, 226.72641530027317 3.3232944082508142 C236.23654811374573 4.023436841336196, 243.911880217489 5.497022405219195, 247.35235830462477 6.360324495799774 C250.79283639176055 7.223626586380353, 251.01925531616433 7.386301138839377, 247.36928382308776 8.503106951734285 C243.71931233001118 9.619912764629193, 235.668423593672 12.200015885203467, 225.45252934616533 13.061159373169225 C215.23663509865867 13.922302861134984, 200.61596465357468 13.424918777794293, 186.07391833804783 13.669967879528834 C171.531872022521 13.915016981263374, 155.132533839807 14.371210912567811, 138.2002514530043 14.531453983576473 C121.26796906620163 14.691697054585134, 100.82714403311853 14.899420110193962, 84.48022401723176 14.6314263055808 C68.133304001345 14.363432500967637, 52.583553831982215 13.616284758290243, 40.11873135768374 12.923491155897501 C27.65390888338527 12.23069755350476, 16.350811791456348 11.532827179126272, 9.691289171440928 10.474664691224351 C3.03176655142551 9.41650220332243, 0.05508983548217354 7.684302925008317, 0.1615956375912333 6.574516228485978 C0.26810143970029304 5.464729531963639, 3.379078647389221 4.718269295413885, 10.330323984095287 3.8159445120903164 C17.281569320801353 2.913619728766748, 29.092001507960042 1.9624994886877092, 41.86906765782763 1.1605675285445676 C54.646133807695215 0.35863556840142596, 79.30786873429919 -1.0591194444338263, 86.99272088330082 -0.9956472487685337 C94.67757303230245 -0.9321750531032412, 87.30442878709451 1.0559505752447111, 87.97818055183737 1.5414007025363228 C88.65193231658023 2.0268508298279344, 90.1968538218494 2.1972670063318414, 91.03523147175798 1.917053514981136" stroke="none" stroke-width="0" fill="#62a91e"></path><path d="M120.95716083093666 -0.051359865414264405 C137.2778248684962 -0.14061367535501734, 157.45536063632073 0.6994753941472875, 173.0777854024558 1.0528421393305303 C188.70021016859084 1.406208884513773, 203.02547575214183 1.4172906138831491, 214.6917094277469 2.0688406056851916 C226.35794310335197 2.720390597487234, 237.05631513728673 4.068485130712528, 243.07518745608627 4.962142090142786 C249.0940597748858 5.855799049573044, 251.98106268324744 6.500101966451394, 250.80494334054407 7.430782362266741 C249.6288239978407 8.361462758082087, 243.80667871453758 9.383416870097266, 236.01847139986597 10.546224465034864 C228.23026408519436 11.709032059972463, 217.31486796606265 13.533047686904535, 204.07569945251436 14.407627931892337 C190.83653093896606 15.28220817688014, 172.95377558876092 15.562176925890789, 156.58346031857616 15.793705934961682 C140.2131450483914 16.025234944032576, 122.45695363722518 16.19127366849488, 105.85380783140575 15.796801986317703 C89.25066202558631 15.402330304140527, 71.33037617235003 14.196632252832405, 56.96458548365953 13.426875841898624 C42.59879479496904 12.657119430964844, 28.761637942268337 11.98966303333528, 19.659063699262774 11.178263520715019 C10.556489456257209 10.366864008094758, 4.880853152720533 9.490714069348593, 2.3491400256261414 8.558478766177057 C-0.18257310146825034 7.626243463005521, 0.29961197205990686 6.634542819917863, 4.468784936696423 5.584851701685799 C8.637957901332939 4.5351605834537345, 16.806529757441197 3.1839127089196957, 27.364177813445238 2.260332056784671 C37.92182586944928 1.3367514046496467, 52.680329138630526 0.532124983713578, 67.81467327272067 0.043367788875652735 C82.94901740681081 -0.44538940596227244, 107.26577503554358 -0.7424233989830301, 118.1702426179861 -0.6722111122428798 C129.07471020042863 -0.6019988255027294, 129.00854166467653 0.394070047681559, 133.24147876737575 0.46464150931655457 C137.47441587007498 0.5352129709515502, 143.76422036421428 -0.16163032689708884, 143.5678652341815 -0.2487823424329063 M81.76056658432152 1.342513404295639 C96.32048413727469 0.8978638843885764, 116.817943039584 -0.1689308019153179, 133.98976913381904 -0.07395549944453705 C151.1615952280541 0.021019803026243775, 169.79985178502017 1.1863422477124321, 184.7915231497318 1.912365219120324 C199.78319451444344 2.638388190528216, 213.46040557468035 3.7568917405249596, 223.93979732208888 4.282182329002813 C234.4191890694974 4.807472917480666, 243.29294192811437 4.352692095600228, 247.66787363418305 5.064108749987445 C252.04280534025173 5.775525404374661, 253.1814191217146 7.305029940540029, 250.18938755850098 8.550682255326109 C247.19735599528735 9.796334570112188, 239.60497577618742 11.70067263223355, 229.7156842549012 12.538022638703925 C219.82639273361497 13.3753726451743, 205.24381272601687 13.13037826728617, 190.85363843078363 13.57478229414836 C176.4634641355504 14.01918632101055, 159.9413135736867 14.935879545875675, 143.3746384835018 15.204446799877061 C126.80796339331688 15.473014053878448, 107.58803970298008 15.439736332051446, 91.45358788967417 15.186185818156677 C75.31913607636825 14.932635304261908, 59.592666316336455 14.145398136132613, 46.56792760366629 13.68314371650845 C33.54318889099613 13.220889296884287, 21.175967344943874 13.399941287742033, 13.305155613653199 12.412659300411695 C5.434343882362524 11.425377313081357, 0.2543905920813453 9.018365082044028, -0.6569427840777564 7.759451792526426 C-1.568276160236858 6.5005385030088245, 1.6643560042485719 5.874942586055476, 7.837155356698588 4.8591795633060855 C14.009954709148605 3.843416540556695, 23.919809595680974 2.472788002723445, 36.37985333062234 1.6648736560300845 C48.839897065563704 0.856959309336724, 74.84386941748909 0.43465070057265126, 82.59741776634678 0.011693483145922556 C90.35096611520447 -0.41126373428080615, 82.91535409657854 -1.0928201052774091, 82.90114342376852 -0.8728696485302878 C82.8869327509585 -0.6529191917831665, 81.62719408256338 1.1727807954869518, 82.51215372948667 1.3313962236286505" stroke="#000000" stroke-width="1" fill="none"></path></g><g><g transform="translate(284.7343483500463 235.10303473814315) rotate(0 -125.77110737447009 35.23689080451656)" fill-rule="evenodd"><path d="M-252.8003094986475 -1.1288124604578798 C-252.8003094986475 -1.1288124604578798, -252.8003094986475 -1.1288124604578798, -252.8003094986475 -1.1288124604578798 M-252.8003094986475 -1.1288124604578798 C-252.8003094986475 -1.1288124604578798, -252.8003094986475 -1.1288124604578798, -252.8003094986475 -1.1288124604578798 M-250.14748225328285 2.154894900855078 C-249.87435073694863 1.3051686501332203, -249.52306748443132 1.0290929674216613, -248.30399121076593 -0.2292857065830239 M-250.37908536153617 2.24125640436302 C-250.1051355662872 1.8585576901021548, -249.6036368563914 1.244688295856645, -248.46773701480382 -0.002992419994981843 M-247.61813951214108 5.11809892001642 C-246.02442307751681 3.9614758922018343, -245.41812428830372 2.2125913289171226, -243.82941601780539 1.1093061102915698 M-247.79107794524435 5.606994592389896 C-246.5202279475733 4.02710515854938, -245.31990363052327 2.522509530957432, -244.43375696131324 0.9676220428560066 M-246.10289949482126 9.128721327529549 C-245.1111440299688 6.830025560146348, -243.47356734708399 6.547493592047548, -240.64719638133283 3.3130266608657006 M-245.676126775479 8.874656697836967 C-243.77161509966226 6.984377441684583, -241.80830229814575 4.520714532350366, -241.09502814642946 3.42589368121565 M-243.78935069578074 13.102546174850033 C-241.6708764093684 9.434013743760746, -238.05950044070704 6.746945411985287, -236.92839294692874 4.012963219529283 M-243.38995887093552 12.445323278687614 C-241.81169033843958 9.986551035823586, -239.82966077529363 8.112412058498107, -236.41176496979222 4.062047576608402 M-239.85254486302708 17.116645390210795 C-238.72728638709611 12.369617715425864, -238.25393719151583 11.20853994635901, -232.87150896686074 4.9790175009748765 M-241.57753849780983 16.348900792976963 C-238.91854488544226 13.903478515698573, -236.05009315664375 11.326587927098924, -232.09125104500856 4.609163227141542 M-239.61176310341216 21.332808104830992 C-236.81690382000704 16.467868420104764, -231.81649409335841 13.280223020950391, -226.88429043534666 6.324204639035358 M-239.26414699956186 19.70975706290753 C-235.8472893599047 14.711709251855249, -232.0151573276891 10.244247836478808, -227.96154363639175 6.434936991210177 M-235.48102290287517 23.15277459113078 C-235.0738112835405 20.06544362090965, -230.73744023606574 15.815620217484094, -223.7546588363502 8.110474236729374 M-237.88110114924513 22.975744066891835 C-231.40459443917152 17.69903009979893, -228.44263884483053 13.03839890099589, -222.67207780242 7.379563080566754 M-236.2273912788594 24.864643818847867 C-230.09533656894777 20.928983707019633, -225.3036483240926 15.657400557706437, -218.00382385772252 9.565277972213806 M-234.70693402041138 26.85696636248383 C-228.70097295258492 20.684267198541917, -222.9032703528943 14.15484667970878, -219.01353423853004 7.835486012466134 M-230.47450375695666 30.77786196853944 C-224.21809251803614 23.215514695230983, -219.22637493790717 15.851093337607347, -212.0016046162799 10.829636088512459 M-231.5239837872698 29.32731872323879 C-227.6454993262676 24.10440490352036, -224.4453523109972 20.769848231121383, -214.04189414681048 8.01370784727446 M-228.28137346771993 31.649702096990794 C-221.95111371881316 25.49840223618031, -212.51756937258244 16.988117263259273, -208.2484204925753 7.53972789241061 M-228.69210586552956 31.186127428598255 C-223.4944748983778 26.0429591563305, -219.48240579293062 19.295560114360327, -207.99005981797052 8.867851739433263 M-226.1800517337212 35.45067435054165 C-216.34351594173924 23.078115077279804, -207.66785156555198 12.786250664883344, -202.3109061461522 9.434098520916308 M-225.71020948791892 33.205721472558196 C-218.89562824175536 27.57397807195628, -213.12334020590365 20.90344015009817, -202.88566444670994 9.276172298606838 M-222.08092321450403 36.76307386620002 C-214.07507782424358 28.067355238941445, -208.09009344694255 19.129736114725898, -199.82267539958264 10.959820620369257 M-221.6840528491377 36.09248046478288 C-213.60331486208273 27.6276979013495, -205.67265960208056 18.88705567508578, -199.11433601575698 9.21021726879114 M-218.9613517326403 37.87772329030567 C-212.48923831086344 32.37539814661276, -203.03068927274768 24.312115912053912, -194.73355735442905 7.916332667331986 M-218.57738893191402 38.14607714926832 C-207.9220762802702 27.752035140957204, -198.96158919680906 15.647552446919256, -193.23143341183035 8.94116584920495 M-215.11491638969267 41.43781109942108 C-207.19834646922104 35.345152685659045, -200.68785929302703 27.0153351169425, -188.278537362254 10.325729388366966 M-215.02370162296677 42.465815725233256 C-208.0304996256749 33.42652045720277, -201.5840884823977 25.906532753886214, -188.49348739664887 10.472619114066987 M-211.1203525372235 43.30918202010875 C-204.8128913065138 35.17487297878162, -195.83965267246649 26.464636697432923, -184.60275702461996 12.057761760036712 M-212.8576466840146 44.38342226689642 C-203.91611961060073 35.133511487327866, -197.79122394402307 26.174381714397143, -184.04570060693123 9.728100012596016 M-209.46655177679537 46.2053370289312 C-201.54949130453062 36.01575787530913, -189.94375505196712 22.64082771703158, -177.73045516409894 11.700127428680958 M-210.30255175177632 47.650544723476585 C-200.63178534155415 36.32024254925277, -190.43266635677375 26.259679633045742, -177.45338852540573 9.983843788788022 M-206.17756195997077 49.312433352450896 C-201.5282666866695 41.445498372192894, -192.4713285780068 34.44983059681962, -173.81420394023445 9.202309031307735 M-207.15791633797068 48.62625291919248 C-195.68921681365993 35.969700585517586, -182.99913967993953 22.180648745514393, -172.5137155967721 11.075136302307286 M-201.1254691303311 52.40486530678484 C-191.9979566930516 37.22259416732995, -182.28823596288586 24.145527765913368, -166.82355467559847 10.972316714256792 M-202.67479377133532 50.95511939281735 C-194.39701660469234 43.30633078635435, -188.37281046622547 33.99929761646549, -168.5068410537586 11.055556547149806 M-198.24781072641053 50.75323135916382 C-185.59930567213817 39.923976188886925, -177.32278279247691 27.89838431759465, -160.79427397175348 10.5205264540906 M-199.33570440056064 53.03768645923823 C-189.26324388860365 41.93453415603331, -181.2082229006544 32.57434210370415, -162.00765503308392 11.403314972534304 M-195.26804432078094 53.956947905927535 C-183.2717074664765 42.69325894605814, -170.6338167551749 29.466538658148224, -156.79728468026204 13.329970477371674 M-194.1376043333748 53.42557998745107 C-185.50551984735478 43.06065533148995, -177.6662232789761 33.35614066321327, -157.4172195464669 10.454043902679544 M-190.60084276500487 55.34279717363853 C-181.9503819992786 45.02186705608992, -174.88957458980295 37.28203243795414, -151.9076068736961 9.726627680439748 M-191.0596805814966 56.78255730167467 C-176.87918667862562 39.024805256557826, -160.33879396049187 21.466097758838245, -151.49420945163573 10.83358795658151 M-186.32103516064484 56.835217638859305 C-174.66126125056806 45.79984474328052, -164.74398917211062 29.118726674982646, -145.45359396159915 11.523261950302867 M-187.59479203164477 57.31729760112778 C-174.27637576342846 42.612296951529906, -160.63815754952634 28.48056316993527, -147.16664856829016 10.6643423689045 M-183.7886068592633 58.58130402815232 C-174.09636023926234 47.48020119041233, -163.55465043890385 36.68357232348118, -142.70557851654326 13.116164683300738 M-183.93696944553804 60.970901960029096 C-170.8502281206813 42.87436295375777, -155.474253303978 28.519945648703143, -142.78305550415848 11.224495508644466 M-179.27369946242277 60.57580731808012 C-167.90071297513637 45.891197214590996, -156.05733896291827 30.408935499418806, -135.81299033210985 10.619573945550343 M-180.16891545989517 61.604393327597435 C-170.1438880056754 52.46795697370338, -160.56922508256372 39.869216554173775, -136.6120617129784 10.644948039574643 M-174.92555179269527 63.53142515498241 C-165.40393744850613 51.77652324358906, -158.2208821056755 41.99897359745326, -131.36571059683297 12.018931954282472 M-176.79344555744444 62.43150694782873 C-164.52272934363054 50.24425359580891, -155.77429666900284 38.26860858506211, -129.9662656684402 10.625070401582072 M-173.02173600962428 65.52264017586724 C-162.0989859374064 50.073560043373774, -148.99839040708437 40.856250703024266, -124.1145406332846 8.003498855836867 M-172.54522418288556 65.2250286803873 C-154.2691303826403 45.795821904340976, -136.76669007311972 24.66452865168945, -124.48520160327212 9.827816588662742 M-167.0007444067913 66.32775294685155 C-147.19507158311836 43.8005519432738, -127.48375506028259 20.625397149902817, -119.87649704302726 9.364900626776041 M-168.98585153995631 65.22132793904632 C-150.8530484224587 45.26933347361299, -131.99426852191874 25.248797921115788, -118.6031346541929 9.840772050035419 M-165.67940261474934 66.33684902472064 C-149.25087249520467 47.32930610646369, -133.54291553471612 32.5161599735593, -115.15981170661391 8.62212907388524 M-164.2837767943659 66.59082475324735 C-146.93059946147585 48.843246847891976, -131.9309632393681 31.570384500263167, -114.73656086191178 9.363653690141597 M-158.2536334850609 69.15796063603699 C-141.7878676993422 46.6248806389607, -123.47253435634354 27.475353390606884, -110.16469566762609 10.627703513281439 M-159.77756195783314 67.60665144720912 C-145.12735433005335 52.74332591469329, -133.02166747027107 36.29308183991358, -107.84747105516655 9.3769715477545 M-154.57951611928846 67.99677625736311 C-144.93212842793645 54.58830680194958, -134.01173036467122 43.879465438388266, -104.34469330661679 10.720928251749903 M-155.81944091707672 69.58686222015038 C-141.84907701975283 54.58225524556097, -127.90505744130229 39.009170916285306, -102.56720502466644 9.857786277315647 M-148.79828586899455 71.28164061526148 C-130.93708144581822 50.202942799493584, -113.78277639044705 26.66229115731933, -97.4074462251485 9.334054265853126 M-150.96281943381544 71.08193314628987 C-130.6064823999375 48.077595781563815, -112.81237983739858 24.741800598942838, -97.75971540713019 8.948370828043778 M-146.30527530675113 71.53384510607187 C-130.27554218564757 53.98884541490264, -117.29341535008155 34.69556915540236, -90.25181130377422 7.126698362376402 M-146.4937161157775 71.3075525946236 C-132.91383116323442 54.48829100682447, -117.9859975972756 38.13736540717743, -91.02118574326704 8.653129604380439 M-141.34309131311124 69.2567565365795 C-126.62231313979846 56.15417505226247, -112.5158368717136 41.59696875143028, -85.96862458607546 7.592004857436656 M-141.58643950367218 70.59624996959306 C-125.40985645283199 51.90373389099952, -108.63250643913383 34.14089820882724, -87.24329436181478 8.007260145098805 M-135.31449701862786 73.05139796356968 C-117.98917278041259 50.22731960725644, -97.31376228755155 26.562599820860555, -81.40205545260523 7.209903057819183 M-137.17897001320873 73.07547655063979 C-121.70178413664355 55.907064523741724, -107.74885665167878 39.412724474559674, -79.73706855348263 7.79251060464042 M-131.75135277486353 72.4867391136049 C-112.57189434533463 53.43608557374155, -96.97154274288323 31.087109329632376, -76.80642953391651 6.807978520309241 M-132.50440090610593 74.10039591198253 C-117.27954234231521 56.586173287180685, -102.46652328224928 40.06750027710483, -75.45220748397986 8.460551012446793 M-125.97143906741867 73.46056764235657 C-105.79788723880921 51.113448997426374, -88.61297466534428 27.428367256079213, -69.50305162359079 6.922344311023803 M-126.31026120312045 74.17725518194895 C-110.74460229135883 56.09966208205223, -95.89239329255264 36.95162041393175, -70.19640510704419 8.056344532291146 M-119.92010583482734 72.1262945170555 C-100.57921035675096 45.936198870084084, -76.12857401069546 20.33575792071546, -65.44155985218109 5.950898486748123 M-121.2626650029426 73.45269042542611 C-107.53607012272865 58.95804750521234, -95.3080649366133 42.16804779092848, -63.759204338384876 6.9339049436149836 M-115.23468217865201 72.97085821426418 C-104.26535921666343 55.61951823541635, -88.18952908772681 41.36401895355417, -60.20068957124992 6.7594857740447125 M-116.5732211922911 72.35413084163275 C-93.39044988367044 46.755170086370725, -70.67726983852398 21.404074800941196, -58.475260939720705 6.924958320637067 M-108.86947636348368 70.43972471987684 C-93.72465291264713 55.80349847432502, -80.61216035918325 39.22102575664498, -51.92539141135026 7.816316729698837 M-107.18653344591321 69.77729876411934 C-88.04897800285443 45.9890302020888, -66.99586785434329 22.912086249956232, -53.7239615767609 7.035862192798913 M-99.93742513583739 70.8636929115698 C-84.46072957013922 48.01957730467644, -67.7475145292427 29.566813904046455, -46.3275951660636 5.7981294198274576 M-102.1843495454802 69.57551504321846 C-82.82414622935812 47.52574175480549, -62.615956004736006 24.717753894627805, -48.49268770324319 6.616267223873731 M-95.4942082892946 66.76325085546003 C-82.08527646555417 51.05460114660083, -68.57249681054829 34.98387409934824, -45.55968202392398 7.252866061661386 M-96.13217594472981 67.42655534270332 C-76.52591009284839 45.78078903617621, -55.498243174751266 21.694925004200712, -43.812787792857876 7.584293853748584 M-88.72383895440834 66.02067160833278 C-72.07816815056272 48.85496884696816, -59.13903192235223 31.162873829463457, -39.31071719154136 8.413448480649265 M-90.82736805937128 68.56724594201543 C-78.3091117993862 54.00146683503671, -66.32769125208543 39.953665003070604, -37.418309962371154 6.802807755528363 M-83.28336845375061 65.73146531652782 C-71.0795956879485 52.63777685719125, -62.054479466925585 37.545874073324086, -30.928394357449754 4.898131394021908 M-85.2063351221329 66.20741583515081 C-65.74910269762096 44.961488996354205, -46.87841992760469 24.153647813514816, -31.430446435473307 6.342273119100133 M-77.58394533090286 66.58408879616205 C-66.27658343232653 52.855113469801665, -55.66642751758085 37.34456807617738, -26.483445402202165 5.788406608564589 M-77.18809921175234 64.47210631088261 C-63.745948518420725 49.82537365433528, -49.05960612116283 32.56101418175831, -24.984443252873575 6.121156848905418 M-71.69611049540863 62.25849343424356 C-57.932685099161525 48.87929384746294, -43.20448094046864 33.83922655624637, -17.738581369380086 6.499293440394265 M-70.14209039792941 64.36261885387516 C-52.6811693842777 42.42045486569251, -34.59818096612017 22.3396920985303, -18.761041243309705 5.338718983717424 M-65.00662013580194 62.78699644800316 C-44.24543277269399 40.16863048086047, -23.98765729700341 13.841878313163015, -13.709846639536522 2.932596196296206 M-66.10746965435436 63.67988640401553 C-52.177434045559785 48.02818003984699, -37.32818410986896 31.58294464033888, -12.110330197490953 3.1907701779776723 M-53.34650125575921 56.10392760133007 C-42.4468353604065 43.75011737125906, -28.380710670358734 27.524192690015404, -6.32344184322448 2.837775433055685 M-54.48368439485988 57.13662007284918 C-45.10433301879594 45.11445214408284, -34.027233714746984 34.67647835366814, -6.271071781126573 2.7930429611276844 M-38.32964545684291 46.047787870786806 C-24.34125718742434 26.71406316882266, -5.955787813030813 10.803161382047008, 1.2395712839555668 -0.336599943655887 M-36.93156225616468 44.92196780959489 C-27.31674131319678 32.19121035231453, -17.62441029941724 20.45935634132765, -0.27790438997329014 -0.40485616350487746" stroke="#82c91e" stroke-width="0.5" fill="none"></path><path d="M0.8553191386163232 -0.08985985144972797 C-0.8741852719262404 2.6896445968916742, -5.362268421033022 10.862287875954816, -9.24413938964913 15.868956737471061 C-13.126010358265237 20.875625598987305, -17.861679331231013 25.180350849808494, -22.435906673080318 29.950153317647736 C-27.010134014929623 34.719955785486974, -31.43936364419491 40.670742449591714, -36.68950344074496 44.4877715445065 C-41.939643237295 48.30480063942129, -48.72004947778542 50.10116874800997, -53.9367454523806 52.85232788713644 C-59.153441426975775 55.60348702626291, -62.69602211340762 58.84078207298106, -67.98967928831603 60.99472637926534 C-73.28333646322443 63.14867068554962, -78.81139574053759 64.34444105236847, -85.69868850183104 65.77599372484214 C-92.5859812631245 67.20754639731581, -101.1369655999339 68.43013556651839, -109.31343585607678 69.58404241410737 C-117.48990611221966 70.73794926169636, -124.89085162923166 73.26105836137998, -134.75751003868834 72.69943481037608 C-144.624168448145 72.13781125937217, -158.49136031310488 69.0166720857121, -168.51338631281686 66.21430110808396 C-178.53541231252885 63.41193013045582, -186.81784284502632 60.084981661893345, -194.88966603696022 55.88520894460725 C-202.96148922889412 51.685436227321155, -210.24298243716126 46.038330665896225, -216.94432546442033 41.015664804367404 C-223.6456684916794 35.99299894283858, -230.82017954421667 30.30957117055436, -235.09772420051468 25.749213775434313 C-239.37526885681268 21.188856380314267, -239.7262917877013 18.17794719522226, -242.60959340220828 13.65352043364713 C-245.49289501671524 9.129093672071999, -252.36675862979249 0.6016842416734607, -252.39753388755648 -1.3973467940164683 C-252.42830914532047 -3.396377829706397, -247.9061163473621 0.5056778454849782, -242.79424494879217 1.6593342195075549 C-237.68237355022225 2.812990593530132, -230.60825191212865 4.552378964080131, -221.72630549613703 5.524591450118992 C-212.8443590801454 6.4968039361578525, -200.58845292508065 6.706340786731145, -189.50256645284236 7.492609135740719 C-178.41667998060407 8.278877484750293, -167.60701162833018 9.893562017221544, -155.21098666270728 10.242201544176435 C-142.81496169708439 10.590841071131326, -126.95510735003549 9.993970288237737, -115.12641665910503 9.584446297470063 C-103.29772596817457 9.174922306702388, -95.83436388870194 8.347431018694094, -84.23884251712452 7.785057599570385 C-72.6433211455471 7.2226841804466755, -56.430032362101024 7.077143207022737, -45.55328842964056 6.21020578272781 C-34.676544497180096 5.343268358432883, -26.602764709668023 3.6386803100821496, -18.978378922361763 2.5834330538008228 C-11.353993135055504 1.528185797519496, -2.869749686650417 0.22033731252301098, 0.19302629419699135 -0.12127775496015147 M-0.15477704294957229 -1.1826402187999339 C-1.60360817760417 1.8865646175557855, -3.1408106218907954 12.091710270373909, -6.965251751432291 17.494141102469776 C-10.789692880973787 22.896571934565642, -17.68327832738784 27.105207363630946, -23.101423820198544 31.231944773775275 C-28.51956931300925 35.358682183919605, -34.6305849206514 38.60850661835525, -39.474124708296515 42.254565563335746 C-44.31766449594163 45.90062450831624, -47.63585909327266 50.15521956379527, -52.16266254606922 53.10829844365823 C-56.689465998865785 56.061377323521185, -61.15909334101214 57.539554375036786, -66.63494542507591 59.97303884251349 C-72.11079750913969 62.40652330999019, -78.2636032083264 66.21776341773625, -85.01777505045187 67.70920524851843 C-91.77194689257735 69.20064707930061, -98.63306693157952 68.22275570065781, -107.1599764778287 68.92168982720655 C-115.6868860240779 69.62062395375528, -126.02435658463705 72.33335598879361, -136.17923232794698 71.90281000781087 C-146.3341080712569 71.47226402682813, -158.43258742902844 69.37255934057049, -168.08923093768826 66.33841394131007 C-177.74587444634807 63.30426854204964, -185.77416357570692 58.03699097865997, -194.11909337990593 53.6979376122483 C-202.46402318410495 49.358884245836634, -211.33125279494328 45.14989016995257, -218.15880976288238 40.304093742840045 C-224.9863667308215 35.45829731572752, -230.98135924017495 29.11446756882486, -235.08443518754055 24.623159049573136 C-239.18751113490615 20.13185053032141, -239.9622508722661 17.786976166799324, -242.7772654470759 13.356242627329696 C-245.5922800218857 8.925509087860068, -252.07927163337465 -0.16351167155753932, -251.97452263639934 -1.9612421872446266 C-251.86977363942404 -3.7589727029317137, -247.52804392097778 1.2797718427492593, -242.14877146522412 2.5698595332071728 C-236.76949900947045 3.8599472236650865, -228.8169099680246 4.969362811186006, -219.6988879018774 5.779283955502855 C-210.58086583573024 6.589205099819704, -198.051169277359 6.595299957692897, -187.44063906834103 7.429386399108267 C-176.83010885932305 8.263472840523637, -168.17887013357358 10.161655411346425, -156.03570664776953 10.783802603995076 C-143.89254316196548 11.405949796643727, -126.4088795479321 11.336205620750967, -114.58165815351663 11.16226955500017 C-102.75443675910115 10.988333489249374, -96.55262814267032 10.243627711363857, -85.07237828127671 9.740186209490304 C-73.59212841988311 9.23674470761675, -56.709480499915195 8.966082778785195, -45.70015898515503 8.141620543758856 C-34.69083747039486 7.317158308732519, -26.390696164082524 6.3694442676664265, -19.01644919271569 4.793412799332278 C-11.642202221348857 3.217381330998129, -4.792753136025227 -0.6591674589237981, -1.4546771569540369 -1.3145682662460376" stroke="#000000" stroke-width="1" fill="none"></path></g></g><g><g transform="translate(74.74626082174484 152.47915622837843) rotate(0 79.45840324818622 0.47997190914662724)"><path d="M-0.08985985144972797 -0.8248893298208713 C26.796982057175285 -0.9557847583107671, 133.7850331757528 -0.24690656950698442, 160.51298149917272 0.06994656767694774 M-1.5961750028003008 1.3564398266840727 C25.217978256825976 1.371768580144269, 132.80725991299684 2.0399269382562375, 159.65269514932294 1.7075529691669953" stroke="#495057" stroke-width="1" fill="none"></path></g></g><g><g transform="translate(75.62649155912925 113.15708051117144) rotate(0 79.41576122692786 -0.10624242777733173)"><path d="M-0.8248893298208713 0.16716021671891212 C25.641959444355837 0.03767183410934838, 132.74181444382603 -0.8083154058549685, 159.65641178367656 -0.8667901471071104 M0.9429050426837056 -0.7906846148427575 C27.19358896179745 -0.7138917416706707, 132.21145229441422 0.8703703365474806, 158.80854747031813 0.6349397275876094" stroke="#495057" stroke-width="1" fill="none"></path></g></g><g><g transform="translate(76.30441584192215 73.7263395678956) rotate(0 78.75772783502472 -0.7151539447131654)"><path d="M0.16716021671891212 0.19082123860716815 C26.63541603677596 0.2998104858715824, 132.1804056074781 0.22057494238987174, 158.71967506889257 -0.1709538462343858 M-1.2042193988431245 -0.7546015564631672 C25.107928639982525 -0.8743201302699009, 131.0418956927055 -1.5815210450623223, 157.7359342287388 -1.665048908801307" stroke="#495057" stroke-width="1" fill="none"></path></g></g><g><g transform="translate(76.32747054068375 193.981760283031) rotate(0 79.39678969363214 -1.43800040763918)"><path d="M0.19082123860716815 -0.06799119338393211 C26.98858874819862 -0.2639125632793442, 133.66446625402506 -0.7063362506780702, 159.96171572772784 -1.0083680026535604 M-1.168136340463534 -1.1492905152495951 C25.64853431104372 -1.7116484676507102, 132.70517460939783 -2.883314051619165, 159.64214995031244 -2.8080096218944255" stroke="#495057" stroke-width="1" fill="none"></path></g></g><g><g transform="translate(76.17873940441757 233.65919629009443) rotate(0 78.98281406173018 -0.44705202556217216)"><path d="M-0.06799119338393211 1.197104164212942 C26.49222434094797 0.8167659218888692, 133.0743482704585 -1.6566165855620245, 159.52845342271033 -2.0912082153372693 M-1.562825299249962 0.7799799050856384 C24.878564615563185 0.5181618728488648, 132.35017481234237 -0.8136133092269492, 158.90334108862098 -0.9686870425287863" stroke="#495057" stroke-width="1" fill="none"></path></g></g><g><g transform="translate(75.09208210419865 72.35828155744821) rotate(0 0.3713109978113778 80.51919655718841)"><path d="M1.197104164212942 0.6151107229292392 C1.0335850439965726 27.250325425217547, -0.572520975023508 133.17334797357518, -0.7902934826910495 159.74329702034592 M0.3664451210852713 -0.10756009287200863 C0.5690571739431471 26.71551007631856, 1.7232866441365333 134.23293244792458, 1.5067569752689454 161.14595320724882" stroke="#495057" stroke-width="1" fill="none"></path></g></g><g><g transform="translate(115.09208210419865 72.35828155744821) rotate(0 0.1421382715240327 80.84533307081556)"><path d="M0.6151107229292392 -0.7902934826910495 C0.7613189797382724 25.843695504280436, 0.7283157461788126 134.00550658808402, 0.8092583474702678 161.00103808604183 M-0.5210948768723755 1.4091984935570507 C-0.5494201901741401 28.743224662203964, -0.41929543664682734 135.6261004116231, -0.27355618047532526 162.48095962432214" stroke="#495057" stroke-width="1" fill="none"></path></g></g><g><g transform="translate(195.09208210419865 72.35828155744821) rotate(0 0.10537230167537359 80.19893323826604)"><path d="M-0.7902934826910495 -0.25670297965407374 C-0.822971162386246 26.35398599781717, 0.6721732547506312 133.65000778924053, 1.0010380860417627 160.2792445877567 M0.995663709556684 -1.437075989311561 C0.6906341745238678 25.327203985915208, 0.08557142111469 134.85289634872538, -0.00451109052640275 161.83494246584362" stroke="#495057" stroke-width="1" fill="none"></path></g></g><g><g transform="translate(155.09208210419865 72.35828155744821) rotate(0 0.7763431235170231 79.91873845066876)"><path d="M-0.25670297965407374 -0.10953088179230686 C-0.18760455009528038 26.60130449168074, 0.9420550496782842 133.04201372525034, 1.0297013002819995 159.47471875814722 M1.8093892266880722 -1.2126385400723665 C1.6696896169893392 25.778043833343936, -0.062252048011895766 134.29410112257426, 0.09992846352045026 161.05011544140987" stroke="#495057" stroke-width="1" fill="none"></path></g></g><g><g transform="translate(235.09208210419865 72.35828155744821) rotate(0 -0.428898743544039 79.51945039033892)"><path d="M-0.10953088179230686 0.03480500355362892 C0.15024733815364472 26.55675646267521, 0.7867279576148803 132.3827242683464, 0.76837583698466 158.8750057750754 M-1.6261733240727336 -0.9925263149198145 C-1.4489371411965795 25.69275374800588, -0.7783803022362327 133.20191299527264, -0.1416981946011674 160.03142709559762" stroke="#495057" stroke-width="1" fill="none"></path></g></g><g transform="translate(64.27267456054688 236.17826491135816) rotate(0 90 24.5)"><text x="0" y="36" font-family="Virgil, Segoe UI Emoji" font-size="31.122376662034274px" fill="#000000" text-anchor="start" style="white-space: pre;" direction="ltr">Core State</text></g></svg>