<svg version="1.1" xmlns="http://www.w3.org/2000/svg" viewBox="0 0 64.18345033488015 52.407663233608105" width="64.18345033488015" height="52.407663233608105">
  <!-- svg-source:excalidraw -->
  
  <defs>
    <style>
      @font-face {
        font-family: "Virgil";
        src: url("https://excalidraw.com/FG_Virgil.woff2");
      }
      @font-face {
        font-family: "Cascadia";
        src: url("https://excalidraw.com/Cascadia.woff2");
      }
    </style>
  </defs>
  <g><g transform="translate(20.60541204999504 40.19917142921264) rotate(0 4.467332096037353 -21.602569420225635)" fill-rule="evenodd"><path d="M0 -15.321855357267484 L5.023626096176521 -30.113630294799805 L7.2912348376764555 -29.224031108969832 L8.930895001589816 -26.48546005594832 L5.023626096176521 -13.089136291305536 L0 -15.321855357267484" stroke="none" stroke-width="0" fill="#15aabf" fill-rule="evenodd"></path><path d="M0 -15.321855357267484 C0.41863863097170423 -16.62427598352084, 1.674560769800805 -20.671083291865564, 2.5118317858302253 -23.13637911478762 C3.3491028018596456 -25.601674937709674, 3.9537822268832556 -29.555450137939687, 5.023626096176521 -30.113630294799805 C6.093469965469787 -30.671810451659923, 8.698315902411982 -28.392575722010257, 8.930895001589816 -26.48546005594832 C9.16347410076765 -24.578344389886382, 7.070312175479066 -20.903656925868646, 6.419100691243517 -18.67093629842818 C5.7678892070079675 -16.438215670987717, 6.0934762113837735 -13.647316448165652, 5.023626096176521 -13.089136291305536 C3.9537759809692683 -12.53095613444542, 0.8372710160294202 -14.949735512940492, 0 -15.321855357267484 M0 -15.321855357267484 C0.41863863097170423 -16.62427598352084, 1.674560769800805 -20.671083291865564, 2.5118317858302253 -23.13637911478762 C3.3491028018596456 -25.601674937709674, 3.9537822268832556 -29.555450137939687, 5.023626096176521 -30.113630294799805 C6.093469965469787 -30.671810451659923, 8.698315902411982 -28.392575722010257, 8.930895001589816 -26.48546005594832 C9.16347410076765 -24.578344389886382, 7.070312175479066 -20.903656925868646, 6.419100691243517 -18.67093629842818 C5.7678892070079675 -16.438215670987717, 6.0934762113837735 -13.647316448165652, 5.023626096176521 -13.089136291305536 C3.9537759809692683 -12.53095613444542, 0.8372710160294202 -14.949735512940492, 0 -15.321855357267484" stroke="#000000" stroke-width="1" fill="none"></path></g></g><g><g transform="translate(77.04544067382812 34.108242524996285) rotate(0 -44.95371550638805 -10.35600921532398)" fill-rule="evenodd"><path d="M-34.11280985760278 -8.672747857669558 L-58.11454567223831 -10.068194346123601 L-64.55106543685561 -9.893764413398495 L-67.04544067382812 -8.951837155360355 L-64.63829665235376 -6.509798773912536 L-59.510020267305286 -4.207305041310122 L-29.363904237467132 -3.4354470555121313 L-25.181914856012938 -3.928215743619321 L-23.278437825218738 -5.371635133369402 L-22.861990338948015 -7.486615121934216 L-24.240008385157328 -14.969718289005968 L-25.740112189136564 -17.04545021057129 L-27.85072441736886 -17.097779161111106 L-30.205540952189484 -15.649999037681766 L-34.39188978642263 -8.951837155360355" stroke="none" stroke-width="0" fill="#15aabf" fill-rule="evenodd"></path><path d="M-34.11280985760278 -8.672747857669558 C-38.11309916004203 -8.905322272411897, -52.625773869534086 -10.021679463175134, -58.11454567223831 -10.068194346123601 C-63.60331747494253 -10.114709229072067, -66.8128615746503 -9.928652039495935, -67.04544067382812 -8.951837155360355 C-67.27801977300595 -7.975022271224775, -62.90561765289294 -4.998060393651828, -59.510020267305286 -4.207305041310122 C-56.11442288171763 -3.416549688968417, -52.393207262184234 -4.253819924258589, -46.67185636030217 -4.207305041310122 C-40.95050545842011 -4.160790158361656, -29.04265794812829 -2.672310000314434, -25.181914856012938 -3.928215743619321 C-21.321171763897585 -5.184121486924208, -23.414364918756124 -9.556533756647449, -23.50739780761006 -11.742739501139443 C-23.600430696464 -13.928945245631438, -24.62375499837333 -16.394240287814235, -25.740112189136564 -17.04545021057129 C-26.8564693798998 -17.696660133328344, -28.763578019308472 -16.99893454688359, -30.205540952189484 -15.649999037681766 C-31.647503885070495 -14.301063528479943, -33.694164980717105 -10.06819746908059, -34.39188978642263 -8.951837155360355 M-34.11280985760278 -8.672747857669558 C-38.11309916004203 -8.905322272411897, -52.625773869534086 -10.021679463175134, -58.11454567223831 -10.068194346123601 C-63.60331747494253 -10.114709229072067, -66.8128615746503 -9.928652039495935, -67.04544067382812 -8.951837155360355 C-67.27801977300595 -7.975022271224775, -62.90561765289294 -4.998060393651828, -59.510020267305286 -4.207305041310122 C-56.11442288171763 -3.416549688968417, -52.393207262184234 -4.253819924258589, -46.67185636030217 -4.207305041310122 C-40.95050545842011 -4.160790158361656, -29.04265794812829 -2.672310000314434, -25.181914856012938 -3.928215743619321 C-21.321171763897585 -5.184121486924208, -23.414364918756124 -9.556533756647449, -23.50739780761006 -11.742739501139443 C-23.600430696464 -13.928945245631438, -24.62375499837333 -16.394240287814235, -25.740112189136564 -17.04545021057129 C-26.8564693798998 -17.696660133328344, -28.763578019308472 -16.99893454688359, -30.205540952189484 -15.649999037681766 C-31.647503885070495 -14.301063528479943, -33.694164980717105 -10.06819746908059, -34.39188978642263 -8.951837155360355" stroke="#000000" stroke-width="1" fill="none"></path></g></g><g><g transform="translate(20.605412049995493 29.093669372719205) rotate(0 5.747579902518282 5.707603278799468)" fill-rule="evenodd"><path d="M0 -0.8672723596131191 L6.13998328693977 11.970872809648021 L9.349514894819572 13.313993860888877 L11.442689311936137 11.970872809648021 L8.651815072770008 3.3190811590554947 L5.023626096176536 -1.7045402526855469 L0 -0.8672723596131191" stroke="none" stroke-width="0" fill="#15aabf" fill-rule="evenodd"></path><path d="M0 -0.8672723596131191 C1.023330547823295 1.2724185019304044, 4.23286840161708 9.831181948104497, 6.13998328693977 11.970872809648021 C8.047098172262459 14.110563671191546, 11.02405068096443 13.412838084746776, 11.442689311936137 11.970872809648021 C11.861327942907844 10.528907534549267, 9.721658942063275 5.598316669444422, 8.651815072770008 3.3190811590554947 C7.581971203476741 1.0398456486665668, 6.4655952749715375 -1.006814666240778, 5.023626096176536 -1.7045402526855469 C3.581656917381535 -2.4022658391303158, 0.8372710160294227 -1.0068170084585237, 0 -0.8672723596131191 M0 -0.8672723596131191 C1.023330547823295 1.2724185019304044, 4.23286840161708 9.831181948104497, 6.13998328693977 11.970872809648021 C8.047098172262459 14.110563671191546, 11.02405068096443 13.412838084746776, 11.442689311936137 11.970872809648021 C11.861327942907844 10.528907534549267, 9.721658942063275 5.598316669444422, 8.651815072770008 3.3190811590554947 C7.581971203476741 1.0398456486665668, 6.4655952749715375 -1.006814666240778, 5.023626096176536 -1.7045402526855469 C3.581656917381535 -2.4022658391303158, 0.8372710160294227 -1.0068170084585237, 0 -0.8672723596131191" stroke="#000000" stroke-width="1" fill="none"></path></g></g><g><g transform="translate(35.57290819719901 28.61043614204044) rotate(0 -13.08383703951398 -6.170581095049101)" fill-rule="evenodd"><path d="M-8.788406492899925 -4.16291897168139 L-17.27276611328125 -4.609461847986688 L-16.07267932254948 -6.674728974886586 L-13.253865236340033 -8.181816101074219 L-8.788406492899925 -4.16291897168139" stroke="none" stroke-width="0" fill="#ffff" fill-rule="evenodd"></path><path d="M-8.788406492899925 -4.16291897168139 C-10.202466429630146 -4.2373427843989395, -16.528522989374565 -3.9396456597545493, -17.27276611328125 -4.609461847986688 C-18.017009237187935 -5.279278036218826, -14.667925173070254 -8.256239913791768, -13.253865236340033 -8.181816101074219 C-11.839805299609813 -8.10739228835667, -9.53264961680661 -4.832735159913528, -8.788406492899925 -4.16291897168139 M-8.788406492899925 -4.16291897168139 C-10.202466429630146 -4.2373427843989395, -16.528522989374565 -3.9396456597545493, -17.27276611328125 -4.609461847986688 C-18.017009237187935 -5.279278036218826, -14.667925173070254 -8.256239913791768, -13.253865236340033 -8.181816101074219 C-11.839805299609813 -8.10739228835667, -9.53264961680661 -4.832735159913528, -8.788406492899925 -4.16291897168139" stroke="#000000" stroke-width="1" fill="none"></path></g></g><g><g transform="translate(45.13744539984896 27.991218018951713) rotate(0 3.478585465650781 2.528129850247254)" fill-rule="evenodd"><path d="M0 -0.4625452584603296 L2.9025511812747737 5.119259433097809 L6.474894191717134 5.789073747555762 L6.921452058216001 3.3330804327798633 L3.3490790673864934 -0.909088134765625 L0 -0.4625452584603296" stroke="none" stroke-width="0" fill="#15aabf" fill-rule="evenodd"></path><path d="M0 -0.4625452584603296 C0.4837585302124623 0.46775552346602683, 1.8234021493219181 4.077322932095127, 2.9025511812747737 5.119259433097809 C3.9817002132276293 6.1611959341004905, 5.805077378893595 6.0867702476087535, 6.474894191717134 5.789073747555762 C7.144711004540672 5.491377247502771, 6.921452058216001 3.891260901935678, 6.921452058216001 3.3330804327798633 C6.921452058216001 2.7748999636240486, 6.6609574710594 2.6260510890061473, 6.474894191717134 2.439990932620874 C6.288830912374867 2.253930776235601, 5.99113066477348 2.4399915572122706, 5.805072382162404 2.216719494468224 C5.619014099551328 1.9934474317241775, 5.693450404096851 1.4352663379769648, 5.358544496050676 1.100358556156595 C5.023638588004501 0.7654507743362251, 4.130547838662719 0.542180585366375, 3.7956369338853553 0.20727280354600508 C3.4607260291079913 -0.12763497827436493, 3.9816852230340527 -0.7974517910979025, 3.3490790673864934 -0.909088134765625 C2.716472911738934 -1.0207244784333476, 0.5581798445644156 -0.5369690711778788, 0 -0.4625452584603296 M0 -0.4625452584603296 C0.4837585302124623 0.46775552346602683, 1.8234021493219181 4.077322932095127, 2.9025511812747737 5.119259433097809 C3.9817002132276293 6.1611959341004905, 5.805077378893595 6.0867702476087535, 6.474894191717134 5.789073747555762 C7.144711004540672 5.491377247502771, 6.921452058216001 3.891260901935678, 6.921452058216001 3.3330804327798633 C6.921452058216001 2.7748999636240486, 6.6609574710594 2.6260510890061473, 6.474894191717134 2.439990932620874 C6.288830912374867 2.253930776235601, 5.99113066477348 2.4399915572122706, 5.805072382162404 2.216719494468224 C5.619014099551328 1.9934474317241775, 5.693450404096851 1.4352663379769648, 5.358544496050676 1.100358556156595 C5.023638588004501 0.7654507743362251, 4.130547838662719 0.542180585366375, 3.7956369338853553 0.20727280354600508 C3.4607260291079913 -0.12763497827436493, 3.9816852230340527 -0.7974517910979025, 3.3490790673864934 -0.909088134765625 C2.716472911738934 -1.0207244784333476, 0.5581798445644156 -0.5369690711778788, 0 -0.4625452584603296" stroke="#000000" stroke-width="1" fill="none"></path></g></g></svg>