<svg version="1.1" xmlns="http://www.w3.org/2000/svg" viewBox="0 0 64.42820959310552 52.58718917723144" width="64.42820959310552" height="52.58718917723144">
  <!-- svg-source:excalidraw -->
  
  <defs>
    <style>
      @font-face {
        font-family: "Virgil";
        src: url("https://excalidraw.com/FG_Virgil.woff2");
      }
      @font-face {
        font-family: "Cascadia";
        src: url("https://excalidraw.com/Cascadia.woff2");
      }
    </style>
  </defs>
  <g><g transform="translate(67.77030345943058 40.19964529407491) rotate(0 -28.498335196221547 -21.555421428600198)" fill-rule="evenodd"><path d="M-24.006255804946147 -15.2399146343473 L-29.057710850369126 -30.113630294799805 L-31.337881268906695 -29.219103072902232 L-32.986624517151846 -26.465361393448095 L-29.057710850369126 -12.994827166681343 L-24.006255804946147 -15.2399146343473" stroke="none" stroke-width="0" fill="#fa5252" fill-rule="evenodd"></path><path d="M-24.006255804946147 -15.2399146343473 C-24.427213532321694 -16.54955016808215, -25.690092994962278 -20.618775226680985, -26.53200216919944 -23.097727836756402 C-27.373911343436603 -25.57668044683182, -27.981940459043727 -29.55235803535119, -29.057710850369126 -30.113630294799805 C-30.133481241694525 -30.67490255424842, -32.75275701954967 -28.383041744074898, -32.986624517151846 -26.465361393448095 C-33.22049201475402 -24.547681042821292, -31.11573478044596 -20.852637228833448, -30.46091583598217 -18.60754819103899 C-29.806096891518383 -16.362459153244533, -30.133487522208462 -13.556099426129958, -29.057710850369126 -12.994827166681343 C-27.98193417852979 -12.433554907232729, -24.84816497918331 -14.865733389736308, -24.006255804946147 -15.2399146343473 M-24.006255804946147 -15.2399146343473 C-24.427213532321694 -16.54955016808215, -25.690092994962278 -20.618775226680985, -26.53200216919944 -23.097727836756402 C-27.373911343436603 -25.57668044683182, -27.981940459043727 -29.55235803535119, -29.057710850369126 -30.113630294799805 C-30.133481241694525 -30.67490255424842, -32.75275701954967 -28.383041744074898, -32.986624517151846 -26.465361393448095 C-33.22049201475402 -24.547681042821292, -31.11573478044596 -20.852637228833448, -30.46091583598217 -18.60754819103899 C-29.806096891518383 -16.362459153244533, -30.133487522208462 -13.556099426129958, -29.057710850369126 -12.994827166681343 C-27.98193417852979 -12.433554907232729, -24.84816497918331 -14.865733389736308, -24.006255804946147 -15.2399146343473" stroke="#000000" stroke-width="1" fill="none"></path></g></g><g><g transform="translate(104.41307709187186 34.14736766789008) rotate(0 -72.1989722953191 -10.318952294609787)" fill-rule="evenodd"><path d="M-83.09993237636296 -8.626366318842084 L-58.965236210971966 -10.029543042142395 L-52.49306061162014 -9.85414683492713 L-49.98486749876626 -8.907001663502145 L-52.405346168862955 -6.451435332148399 L-57.56203122535892 -4.1361866731246835 L-87.87514510036121 -3.360052892054311 L-92.08030108856869 -3.8555513284646246 L-93.99432264729303 -5.306966704414646 L-94.41307709187181 -7.433662865646809 L-93.02742535765817 -14.958219535478424 L-91.5190115577067 -17.04545021057129 L-89.39670735251318 -17.09806904329597 L-87.0288460431457 -15.642268776885523 L-82.8193064524738 -8.907001663502145" stroke="none" stroke-width="0" fill="#fa5252" fill-rule="evenodd"></path><path d="M-83.09993237636296 -8.626366318842084 C-79.07748301546445 -8.860229106058803, -64.48441369057142 -9.982770484699051, -58.965236210971966 -10.029543042142395 C-53.44605873137252 -10.076315599585739, -50.21873499636844 -9.889227725005096, -49.98486749876626 -8.907001663502145 C-49.75100000116409 -7.924775601999193, -54.147623541095406 -4.93132250485426, -57.56203122535892 -4.1361866731246835 C-60.97643890962244 -3.3410508413951066, -64.71826862714572 -4.182959230568026, -70.47131360434734 -4.1361866731246835 C-76.22435858154897 -4.089414115681341, -88.19817097012871 -2.5926883521731217, -92.08030108856869 -3.8555513284646246 C-95.96243120700866 -5.1184143047561275, -93.85764257013086 -9.51504805052259, -93.7640943149872 -11.7133645308737 C-93.67054605984355 -13.911681011224811, -92.64155293634695 -16.390632836235987, -91.5190115577067 -17.04545021057129 C-90.39647017906645 -17.70026758490659, -88.47879689401786 -16.998676868063715, -87.0288460431457 -15.642268776885523 C-85.57889519227355 -14.285860685707332, -83.52089638425245 -10.029546182399375, -82.8193064524738 -8.907001663502145 M-83.09993237636296 -8.626366318842084 C-79.07748301546445 -8.860229106058803, -64.48441369057142 -9.982770484699051, -58.965236210971966 -10.029543042142395 C-53.44605873137252 -10.076315599585739, -50.21873499636844 -9.889227725005096, -49.98486749876626 -8.907001663502145 C-49.75100000116409 -7.924775601999193, -54.147623541095406 -4.93132250485426, -57.56203122535892 -4.1361866731246835 C-60.97643890962244 -3.3410508413951066, -64.71826862714572 -4.182959230568026, -70.47131360434734 -4.1361866731246835 C-76.22435858154897 -4.089414115681341, -88.19817097012871 -2.5926883521731217, -92.08030108856869 -3.8555513284646246 C-95.96243120700866 -5.1184143047561275, -93.85764257013086 -9.51504805052259, -93.7640943149872 -11.7133645308737 C-93.67054605984355 -13.911681011224811, -92.64155293634695 -16.390632836235987, -91.5190115577067 -17.04545021057129 C-90.39647017906645 -17.70026758490659, -88.47879689401786 -16.998676868063715, -87.0288460431457 -15.642268776885523 C-85.57889519227355 -14.285860685707332, -83.52089638425245 -10.029546182399375, -82.8193064524738 -8.907001663502145" stroke="#000000" stroke-width="1" fill="none"></path></g></g><g><g transform="translate(74.52200938955775 29.18999843512546) rotate(0 -36.537381011449725 5.748663692571512)" fill-rule="evenodd"><path d="M-30.75796173507378 -0.8626342187053545 L-36.931958159137004 12.046629318741248 L-40.1592693331132 13.39719074210599 L-42.26403912844914 12.046629318741248 L-39.45770452339034 3.3469100823519824 L-35.80941678049678 -1.7045402526855469 L-30.75796173507378 -0.8626342187053545" stroke="none" stroke-width="0" fill="#fa5252" fill-rule="evenodd"></path><path d="M-30.75796173507378 -0.8626342187053545 C-31.78696113908432 1.2889097042024122, -35.014278593574446 9.895085395833481, -36.931958159137004 12.046629318741248 C-38.84963772469956 14.198173241649014, -41.84308140107358 13.496582524806126, -42.26403912844914 12.046629318741248 C-42.6849968558247 10.59667611267637, -40.53347491471573 5.638771677589782, -39.45770452339034 3.3469100823519824 C-38.38193413206495 1.0550484871141834, -37.259373911882875 -1.0029495358426574, -35.80941678049678 -1.7045402526855469 C-34.35945964911069 -2.4061309695284363, -31.599870909310948 -1.0029518910353865, -30.75796173507378 -0.8626342187053545 M-30.75796173507378 -0.8626342187053545 C-31.78696113908432 1.2889097042024122, -35.014278593574446 9.895085395833481, -36.931958159137004 12.046629318741248 C-38.84963772469956 14.198173241649014, -41.84308140107358 13.496582524806126, -42.26403912844914 12.046629318741248 C-42.6849968558247 10.59667611267637, -40.53347491471573 5.638771677589782, -39.45770452339034 3.3469100823519824 C-38.38193413206495 1.0550484871141834, -37.259373911882875 -1.0029495358426574, -35.80941678049678 -1.7045402526855469 C-34.35945964911069 -2.4061309695284363, -31.599870909310948 -1.0029518910353865, -30.75796173507378 -0.8626342187053545" stroke="#000000" stroke-width="1" fill="none"></path></g></g><g><g transform="translate(51.61529001119743 28.668206671190717) rotate(0 -9.745336208690333 -6.159439629535186)" fill-rule="evenodd"><path d="M-14.06456178231964 -4.1406558330442005 L-5.533202084953324 -4.589672384500303 L-6.739936893222865 -6.666380294005144 L-9.574366121291689 -8.181816101074219 L-14.06456178231964 -4.1406558330442005" stroke="none" stroke-width="0" fill="#ffff" fill-rule="evenodd"></path><path d="M-14.06456178231964 -4.1406558330442005 C-12.642668499425254 -4.215491924953551, -6.281568028457982 -3.9161456731619664, -5.533202084953324 -4.589672384500303 C-4.7848361414486655 -5.263199095838639, -8.152472838397303 -8.25665219298357, -9.574366121291689 -8.181816101074219 C-10.996259404186075 -8.106980009164868, -13.31619583881498 -4.814182544382537, -14.06456178231964 -4.1406558330442005 M-14.06456178231964 -4.1406558330442005 C-12.642668499425254 -4.215491924953551, -6.281568028457982 -3.9161456731619664, -5.533202084953324 -4.589672384500303 C-4.7848361414486655 -5.263199095838639, -8.152472838397303 -8.25665219298357, -9.574366121291689 -8.181816101074219 C-10.996259404186075 -8.106980009164868, -13.31619583881498 -4.814182544382537, -14.06456178231964 -4.1406558330442005" stroke="#000000" stroke-width="1" fill="none"></path></g></g><g><g transform="translate(37.700987224263145 28.08584642410517) rotate(0 -22.10272640026875 2.5471707109766726)" fill-rule="evenodd"><path d="M-18.6048709140154 -0.4600715833095214 L-21.52350110833025 5.15265415143358 L-25.115633519979088 5.82617897861774 L-25.564665144668634 3.356580408992448 L-21.972502586552903 -0.909088134765625 L-18.6048709140154 -0.4600715833095214" stroke="none" stroke-width="0" fill="#fa5252" fill-rule="evenodd"></path><path d="M-18.6048709140154 -0.4600715833095214 C-19.091309279734542 0.4753827058143289, -20.438374007336304 4.104945724445703, -21.52350110833025 5.15265415143358 C-22.6086282093242 6.2003625784214575, -24.442106180589356 6.125524602357929, -25.115633519979088 5.82617897861774 C-25.78916085936882 5.526833354877551, -25.564665144668634 3.9178529824667585, -25.564665144668634 3.356580408992448 C-25.564665144668634 2.7953078355181376, -25.302727518060827 2.645634395596649, -25.115633519979088 2.458543537771878 C-24.92853952189735 2.2714526799471066, -24.62919012984879 2.458544165823268, -24.442101156178197 2.234035262043822 C-24.255012182507603 2.0095263582643765, -24.329860835444823 1.4482531567386747, -23.99309967795553 1.111490115095204 C-23.65633852046624 0.7747270734517331, -22.75830039314289 0.5502200538264682, -22.421534211242452 0.2134570121829967 C-22.084768029342015 -0.12330602946047478, -22.608613136090746 -0.7968333688502053, -21.972502586552903 -0.909088134765625 C-21.33639203701506 -1.0213429006810446, -19.166142859438317 -0.5349076752188721, -18.6048709140154 -0.4600715833095214 M-18.6048709140154 -0.4600715833095214 C-19.091309279734542 0.4753827058143289, -20.438374007336304 4.104945724445703, -21.52350110833025 5.15265415143358 C-22.6086282093242 6.2003625784214575, -24.442106180589356 6.125524602357929, -25.115633519979088 5.82617897861774 C-25.78916085936882 5.526833354877551, -25.564665144668634 3.9178529824667585, -25.564665144668634 3.356580408992448 C-25.564665144668634 2.7953078355181376, -25.302727518060827 2.645634395596649, -25.115633519979088 2.458543537771878 C-24.92853952189735 2.2714526799471066, -24.62919012984879 2.458544165823268, -24.442101156178197 2.234035262043822 C-24.255012182507603 2.0095263582643765, -24.329860835444823 1.4482531567386747, -23.99309967795553 1.111490115095204 C-23.65633852046624 0.7747270734517331, -22.75830039314289 0.5502200538264682, -22.421534211242452 0.2134570121829967 C-22.084768029342015 -0.12330602946047478, -22.608613136090746 -0.7968333688502053, -21.972502586552903 -0.909088134765625 C-21.33639203701506 -1.0213429006810446, -19.166142859438317 -0.5349076752188721, -18.6048709140154 -0.4600715833095214" stroke="#000000" stroke-width="1" fill="none"></path></g></g></svg>