<svg version="1.1" xmlns="http://www.w3.org/2000/svg" viewBox="0 0 65.00972919291667 53.01372199011871" width="65.00972919291667" height="53.01372199011871">
  <!-- svg-source:excalidraw -->
  
  <defs>
    <style>
      @font-face {
        font-family: "Virgil";
        src: url("https://excalidraw.com/FG_Virgil.woff2");
      }
      @font-face {
        font-family: "Cascadia";
        src: url("https://excalidraw.com/Cascadia.woff2");
      }
    </style>
  </defs>
  <g><g transform="translate(20.80374485767038 40.20077114200831) rotate(0 4.550876093502666 -21.44340327075514)" fill-rule="evenodd"><path d="M0 -15.045232983707153 L5.117573400031036 -30.113630294799805 L7.4275889057650755 -29.2073946309717 L9.097912508534794 -26.417609303257013 L5.117573400031036 -12.770759628613035 L0 -15.045232983707153" stroke="none" stroke-width="0" fill="#fa5252" fill-rule="evenodd"></path><path d="M0 -15.045232983707153 C0.426467631362293 -16.37201030052196, 1.7058768881685853 -20.49449733274723, 2.558805788173758 -23.005896884596005 C3.4117346881789303 -25.51729643644478, 4.027722279970863 -29.545011558356304, 5.117573400031036 -30.113630294799805 C6.207424520091209 -30.682249031243305, 8.860983925760381 -28.360390118662288, 9.097912508534794 -26.417609303257013 C9.334841091309206 -24.474828487851738, 7.202534748094804 -20.73142034814215, 6.539144896677511 -18.456945402368156 C5.8757550452602185 -16.18247045659416, 6.2074308828106215 -13.339378365056536, 5.117573400031036 -12.770759628613035 C4.0277159172514505 -12.202140892169535, 0.8529289000051726 -14.666154091191467, 0 -15.045232983707153 M0 -15.045232983707153 C0.426467631362293 -16.37201030052196, 1.7058768881685853 -20.49449733274723, 2.558805788173758 -23.005896884596005 C3.4117346881789303 -25.51729643644478, 4.027722279970863 -29.545011558356304, 5.117573400031036 -30.113630294799805 C6.207424520091209 -30.682249031243305, 8.860983925760381 -28.360390118662288, 9.097912508534794 -26.417609303257013 C9.334841091309206 -24.474828487851738, 7.202534748094804 -20.73142034814215, 6.539144896677511 -18.456945402368156 C5.8757550452602185 -16.18247045659416, 6.2074308828106215 -13.339378365056536, 5.117573400031036 -12.770759628613035 C4.0277159172514505 -12.202140892169535, 0.8529289000051726 -14.666154091191467, 0 -15.045232983707153" stroke="#000000" stroke-width="1" fill="none"></path></g></g><g><g transform="translate(77.04544067382812 34.240324467983726) rotate(0 -44.54057607736979 -10.230909350452336)" fill-rule="evenodd"><path d="M-33.496933632981865 -8.516169163918812 L-57.947528165293356 -9.937712028327926 L-64.50441789107322 -9.760020065034201 L-67.04544067382812 -8.800477736800628 L-64.5932804257323 -6.312770566025339 L-59.36909966193981 -3.967217681690963 L-28.659218282438353 -3.18092510714452 L-24.399021124447035 -3.682909108809148 L-22.45994699076968 -5.153322020250972 L-22.03571148091139 -7.307854448393871 L-23.43949997213904 -14.93089983121823 L-24.967657358368953 -17.04545021057129 L-27.11774034428278 -17.09875776973417 L-29.51659452447809 -15.623902574122637 L-33.78123266178458 -8.800477736800628" stroke="none" stroke-width="0" fill="#fa5252" fill-rule="evenodd"></path><path d="M-33.496933632981865 -8.516169163918812 C-37.572032721700445 -8.753092974653665, -52.356110325152315 -9.890327266180957, -57.947528165293356 -9.937712028327926 C-63.5389460054344 -9.985096790474895, -66.80851209105371 -9.79556012790679, -67.04544067382812 -8.800477736800628 C-67.28236925660254 -7.805395345694468, -62.82819843342762 -4.772761024209241, -59.36909966193981 -3.967217681690963 C-55.910000890452004 -3.1616743391726856, -52.119194467816726 -4.014602443837932, -46.29084804490126 -3.967217681690963 C-40.462501621985794 -3.919832919543994, -28.331964336044855 -2.4035165541413113, -24.399021124447035 -3.682909108809148 C-20.466077912849215 -4.9623016634769845, -22.598416069660697 -9.416482826070961, -22.69318877531435 -11.643573009697985 C-22.787961480968004 -13.870663193325008, -23.830423066841664 -16.382061949833847, -24.967657358368953 -17.04545021057129 C-26.104891649896242 -17.70883847130873, -28.047665307242152 -16.998064653084413, -29.51659452447809 -15.623902574122637 C-30.98552374171403 -14.24974049516086, -33.07045963890016 -9.93771520968763, -33.78123266178458 -8.800477736800628 M-33.496933632981865 -8.516169163918812 C-37.572032721700445 -8.753092974653665, -52.356110325152315 -9.890327266180957, -57.947528165293356 -9.937712028327926 C-63.5389460054344 -9.985096790474895, -66.80851209105371 -9.79556012790679, -67.04544067382812 -8.800477736800628 C-67.28236925660254 -7.805395345694468, -62.82819843342762 -4.772761024209241, -59.36909966193981 -3.967217681690963 C-55.910000890452004 -3.1616743391726856, -52.119194467816726 -4.014602443837932, -46.29084804490126 -3.967217681690963 C-40.462501621985794 -3.919832919543994, -28.331964336044855 -2.4035165541413113, -24.399021124447035 -3.682909108809148 C-20.466077912849215 -4.9623016634769845, -22.598416069660697 -9.416482826070961, -22.69318877531435 -11.643573009697985 C-22.787961480968004 -13.870663193325008, -23.830423066841664 -16.382061949833847, -24.967657358368953 -17.04545021057129 C-26.104891649896242 -17.70883847130873, -28.047665307242152 -16.998064653084413, -29.51659452447809 -15.623902574122637 C-30.98552374171403 -14.24974049516086, -33.07045963890016 -9.93771520968763, -33.78123266178458 -8.800477736800628" stroke="#000000" stroke-width="1" fill="none"></path></g></g><g><g transform="translate(20.803744857670836 29.41886511100256) rotate(0 5.8550659345581835 5.84621847173662)" fill-rule="evenodd"><path d="M0 -0.8516145340400794 L6.254807691558339 12.226617994840225 L9.524361051738865 13.594856879116136 L11.656680120392098 12.226617994840225 L8.813613479732101 3.413028375305938 L5.117573400031049 -1.7045402526855469 L0 -0.8516145340400794" stroke="none" stroke-width="0" fill="#fa5252" fill-rule="evenodd"></path><path d="M0 -0.8516145340400794 C1.0424679485930566 1.3280908874399713, 4.31202767149299 10.046912573360174, 6.254807691558339 12.226617994840225 C8.197587711623688 14.406323416320276, 11.230212489029803 13.69554959809594, 11.656680120392098 12.226617994840225 C12.083147751754392 10.75768639158451, 9.903464599792276 5.734888083226901, 8.813613479732101 3.413028375305938 C7.723762359671927 1.0911686673849759, 6.5865089799864 -0.9937664344612106, 5.117573400031049 -1.7045402526855469 C3.648637820075699 -2.4153140709098833, 0.8529289000051749 -0.9937688204809906, 0 -0.8516145340400794 M0 -0.8516145340400794 C1.0424679485930566 1.3280908874399713, 4.31202767149299 10.046912573360174, 6.254807691558339 12.226617994840225 C8.197587711623688 14.406323416320276, 11.230212489029803 13.69554959809594, 11.656680120392098 12.226617994840225 C12.083147751754392 10.75768639158451, 9.903464599792276 5.734888083226901, 8.813613479732101 3.413028375305938 C7.723762359671927 1.0911686673849759, 6.5865089799864 -0.9937664344612106, 5.117573400031049 -1.7045402526855469 C3.648637820075699 -2.4153140709098833, 0.8529289000051749 -0.9937688204809906, 0 -0.8516145340400794" stroke="#000000" stroke-width="1" fill="none"></path></g></g><g><g transform="translate(35.728129934539766 28.80546274573561) rotate(0 -13.005499483138578 -6.132968800141711)" fill-rule="evenodd"><path d="M-8.629739686094064 -4.087761198681033 L-17.27276611328125 -4.542654915291952 L-16.05023638666568 -6.646544796870842 L-13.17870739325642 -8.181816101074219 L-8.629739686094064 -4.087761198681033" stroke="none" stroke-width="0" fill="#ffff" fill-rule="evenodd"></path><path d="M-8.629739686094064 -4.087761198681033 C-10.070244090625263 -4.163576818116186, -16.51460482875419 -3.8603124315597546, -17.27276611328125 -4.542654915291952 C-18.03092739780831 -5.22499739902415, -14.619211797787617 -8.257631720509371, -13.17870739325642 -8.181816101074219 C-11.738202988725224 -8.106000481639066, -9.387900970621123 -4.770103682413231, -8.629739686094064 -4.087761198681033 M-8.629739686094064 -4.087761198681033 C-10.070244090625263 -4.163576818116186, -16.51460482875419 -3.8603124315597546, -17.27276611328125 -4.542654915291952 C-18.03092739780831 -5.22499739902415, -14.619211797787617 -8.257631720509371, -13.17870739325642 -8.181816101074219 C-11.738202988725224 -8.106000481639066, -9.387900970621123 -4.770103682413231, -8.629739686094064 -4.087761198681033" stroke="#000000" stroke-width="1" fill="none"></path></g></g><g><g transform="translate(45.794554069255355 28.310672535667038) rotate(0 3.5436388194372057 2.592409586889687)" fill-rule="evenodd"><path d="M0 -0.45419441815470835 L2.956832063760841 5.231996127639971 L6.595981796648172 5.914336702556357 L7.05089078378568 3.412413625933031 L3.4117105098451623 -0.909088134765625 L0 -0.45419441815470835" stroke="none" stroke-width="0" fill="#fa5252" fill-rule="evenodd"></path><path d="M0 -0.45419441815470835 C0.49280534396014014 0.49350400614440487, 1.8575017643194789 4.170574274188127, 2.956832063760841 5.231996127639971 C4.056162363202203 6.293417981091816, 5.913638676644033 6.217600452840847, 6.595981796648172 5.914336702556357 C7.278324916652312 5.611072952271867, 7.05089078378568 3.9810326805124996, 7.05089078378568 3.412413625933031 C7.05089078378568 2.8437945713535626, 6.785524662867703 2.692162059939369, 6.595981796648172 2.502622375079545 C6.406438930428642 2.3130826902197206, 6.103171362512501 2.502623011351484, 5.9136335864685 2.2751755167740844 C5.7240958104245 2.0477280221966847, 5.799924155298477 1.4791083313452746, 5.458755140384171 1.137937407615146 C5.117586125469865 0.7967664838850175, 4.207793602072498 0.5693208981234419, 3.8666194969826635 0.22814997439331341 C3.525445391892829 -0.11302094933681511, 4.056147092675606 -0.7953640693409547, 3.4117105098451623 -0.909088134765625 C2.7672739270147186 -1.0228122001902953, 0.568618418307527 -0.5300100375898611, 0 -0.45419441815470835 M0 -0.45419441815470835 C0.49280534396014014 0.49350400614440487, 1.8575017643194789 4.170574274188127, 2.956832063760841 5.231996127639971 C4.056162363202203 6.293417981091816, 5.913638676644033 6.217600452840847, 6.595981796648172 5.914336702556357 C7.278324916652312 5.611072952271867, 7.05089078378568 3.9810326805124996, 7.05089078378568 3.412413625933031 C7.05089078378568 2.8437945713535626, 6.785524662867703 2.692162059939369, 6.595981796648172 2.502622375079545 C6.406438930428642 2.3130826902197206, 6.103171362512501 2.502623011351484, 5.9136335864685 2.2751755167740844 C5.7240958104245 2.0477280221966847, 5.799924155298477 1.4791083313452746, 5.458755140384171 1.137937407615146 C5.117586125469865 0.7967664838850175, 4.207793602072498 0.5693208981234419, 3.8666194969826635 0.22814997439331341 C3.525445391892829 -0.11302094933681511, 4.056147092675606 -0.7953640693409547, 3.4117105098451623 -0.909088134765625 C2.7672739270147186 -1.0228122001902953, 0.568618418307527 -0.5300100375898611, 0 -0.45419441815470835" stroke="#000000" stroke-width="1" fill="none"></path></g></g></svg>