<svg version="1.1" xmlns="http://www.w3.org/2000/svg" viewBox="0 0 158.2210342189435 287.02040500289763" width="158.2210342189435" height="287.02040500289763">
  <!-- svg-source:excalidraw -->
  
  <defs>
    <style>
      @font-face {
        font-family: "Virgil";
        src: url("https://excalidraw.com/FG_Virgil.woff2");
      }
      @font-face {
        font-family: "Cascadia";
        src: url("https://excalidraw.com/Cascadia.woff2");
      }
    </style>
  </defs>
  <g transform="translate(72.80648517218867 11.25) rotate(0 33.75 38.125)"><path d="M20.252216825706945 2.829016064989709 C25.965826858571354 -0.5895275325608851, 35.596410806623155 -1.0013133090865463, 42.18484241437786 1.0163007976651244 C48.77327402213257 3.033914904416795, 55.59381444048359 8.865961773502438, 59.78280647223521 14.934700705499733 C63.971798503986825 21.003439637497028, 67.12392623809818 29.532769836756273, 67.31879460488756 37.4287343896489 C67.51366297167694 45.32469894254153, 65.26548413037945 56.06860053317387, 60.95201667297151 62.3104880228555 C56.63854921556357 68.55237551253713, 48.1941882627226 73.19105899148867, 41.43798986043991 74.88005932773868 C34.68179145815723 76.56905966398868, 26.526074771712153 75.39704382479307, 20.414826259275394 72.44449004035553 C14.303577746838634 69.49193625591799, 8.10743791093313 63.86295630178597, 4.770498785819349 57.164736621113406 C1.433559660705567 50.46651694044084, -0.6222684452837175 39.83920826909763, 0.39319150859270025 32.25517195632016 C1.408651462469118 24.671135643542687, 6.242289989769653 16.912178328799992, 10.863258509077856 11.66051874444857 C15.484227028386059 6.4088591600971485, 24.23092205161138 2.593881003105049, 28.119002624441915 0.745214450211634 C32.00708319727245 -1.1034521026817814, 34.11519278208856 0.10540081039537813, 34.19174194606107 0.5685194270880771 M26.75924067175103 -0.001522301509709223 C33.34639028721466 -2.16967051031172, 42.42776531763632 -1.36986664406442, 48.423955761649815 2.1864458954903796 C54.42014620566331 5.742758435045179, 59.84005642318398 14.2246077317308, 62.736383335831974 21.33635293581909 C65.63271024847997 28.44809813990738, 66.94761851601095 37.456706731571, 65.80191723753777 44.856917120020114 C64.65621595906458 52.257127508469225, 60.55748797512179 60.38155133355824, 55.862175664992904 65.73761526651377 C51.16686335486402 71.09367919946929, 44.40091350906215 76.00950084881262, 37.63004337676446 76.99330071775327 C30.859173244466774 77.97710058669392, 21.25167722638377 76.19663001791065, 15.23695487120678 71.64041448015765 C9.222232516029791 67.08419894240464, 4.042680218220305 57.39453873702349, 1.5417092457025205 49.65600749123524 C-0.9592617268152632 41.917476245447, -1.7168184896489702 32.220460344471626, 0.23112903610007862 25.209227005428176 C2.1790765618491275 18.197993666384725, 8.939881021026025 11.769533806180778, 13.229394400196814 7.588607456974536 C17.518907779367602 3.407681107768295, 24.00075869831911 1.0677788640213008, 25.968209311124802 0.12366891019073023 C27.935659923930494 -0.8204410436398403, 24.74207844866607 0.9414171258573951, 25.03409807703096 1.9239477339911133" stroke="#000000" stroke-width="4" fill="none"></path></g><g><g transform="translate(106.55648517218867 83.75) rotate(0 -18.89494836926457 96.09533696818627)"><path d="M1.1910556018352507 -0.9550438106060027 C-0.12403451402982091 9.763306599855422, -6.954111812512079 44.24369822939238, -8.069781762361526 64.16454904675484 C-9.185451712210972 84.0853998641173, -0.35110233426094073 97.2308895568053, -5.502964097261429 118.5700610935688 C-10.654825860261916 139.9092326303323, -33.29687011837959 179.86584903200466, -38.98095234036445 192.19957826733588 M0.35722106345929205 1.1579542434867474 C-1.0406876520471027 11.519681367641315, -7.51238938303354 42.48709158804578, -8.660712651228533 62.25961254752241 C-9.809035919423525 82.03213350699903, -1.5002867754455647 97.97872913377049, -6.532718545710668 119.79308000034652 C-11.565150315975771 141.60743086692256, -33.63265043131076 180.94436353173415, -38.85530327281915 193.14571774697862" stroke="#000000" stroke-width="4" fill="none"></path></g></g><g><g transform="translate(104.05648517218867 197.5) rotate(0 21.60475261807443 39.756066934978605)"><path d="M-0.9550438106060027 0.6802182376384736 C6.42997326652209 13.522881621122362, 36.743698229392365 65.27389766573906, 44.164549046754836 78.24703590273857 M0.7444194594863802 -0.008271132940426362 C8.020424213294561 13.500533275073394, 36.43989593087075 66.23314572847448, 43.43414183267392 79.5204050028976" stroke="#000000" stroke-width="4" fill="none"></path></g></g><g><g transform="translate(99.05648517218867 110) rotate(0 -29.892423737156207 -5.5076949298381805)"><path d="M0.6802182376384736 0.41454904675483695 C-9.393785045544305 -1.3312668025493621, -49.30943566759427 -9.435777109861373, -59.252964097261426 -11.429938906431198 M-0.4218059169407935 -0.41341664903797204 C-10.802057212606694 -1.8870430710259825, -50.55738326203389 -8.324108304316178, -60.465065711950885 -9.986981581086294" stroke="#000000" stroke-width="4" fill="none"></path></g></g><g><g transform="translate(101.55648517218867 112.5) rotate(0 20.121554830265268 14.686299369251373)"><path d="M0.41454904675483695 -0.5029640972614288 C7.418733197450637 4.3451741397380825, 34.31422289013862 24.828129881620406, 41.0700610935688 29.769047659635543 M-0.826951433038339 -1.8126241936627776 C6.087033107960597 3.160154365962371, 33.21869603850879 25.881474857693537, 40.02754770406522 31.185222932165487" stroke="#000000" stroke-width="4" fill="none"></path></g></g><g transform="translate(69.05648517218867 10) rotate(0 33.75 38.125)"><path d="M30.567606665438653 -0.004813100938285686 C36.939273091561454 -1.015116957698341, 45.00934485457392 2.304092901324309, 50.965870326515486 6.304808936152703 C56.92239579845705 10.305524970981097, 63.825073382878685 16.84166772626811, 66.30675949708805 23.99948310803208 C68.78844561129742 31.15729848979605, 68.18504045856292 41.6323995720221, 65.85598701177167 49.25170122673653 C63.52693356498043 56.871002881450956, 57.89081377286136 65.21218373671823, 52.33243881634059 69.71529303631863 C46.774063859819826 74.21840233591902, 39.314448289906764 76.56402937200195, 32.50573727264709 76.27035702433889 C25.69702625538741 75.97668467667583, 16.633445326075044 72.89064587884668, 11.48017271278253 67.95325895034026 C6.326900099490014 63.01587202183382, 2.9363454604420562 54.46643981774381, 1.5861015928919926 46.6460354533003 C0.23585772534192917 38.82563108885679, 0.6098245013871506 28.06320771473397, 3.3787095074821494 21.030832763679204 C6.147594513577149 13.998457812624437, 13.263389670964855 8.032414867634827, 18.199411629461984 4.451785746971709 C23.135433587959113 0.8711566263085904, 29.996628474155603 0.25708681812217316, 32.994841258464916 -0.45294196029950484 C35.99305404277423 -1.162970738721183, 35.98336911641307 -0.4109081656140615, 36.18868833531787 0.19161307644164083 M41.51253596517622 -0.41985095140026374 C48.23972281432869 0.5994023367348937, 55.27397983993404 6.283397598193088, 59.516795965330985 12.520252459375673 C63.75961209072793 18.75710732055826, 66.47779710102839 29.187797119346147, 66.96943271755785 37.001278215695244 C67.46106833408732 44.81475931204434, 66.03239558192007 53.24124259835114, 62.46660966450778 59.401139037470244 C58.90082374709549 65.56103547658935, 52.47466222966059 71.75706408495611, 45.574717213084085 73.96065685040986 C38.67477219650758 76.16424961586361, 27.969183928180623 75.39566905160191, 21.06693956504877 72.62269563019271 C14.164695201916917 69.8497222087835, 7.503779809887279 63.647358484535644, 4.161251034292974 57.322816321954676 C0.8187222586986684 50.99827415937371, 0.36935648690135403 42.38223367045059, 1.0117669114829368 34.67544265470691 C1.6541773360645196 26.968651638963234, 3.4911290131990382 16.634716212515578, 8.015713581782471 11.082070227492611 C12.540298150365903 5.529424242469645, 22.516222455897527 3.0387556321777662, 28.159274322983535 1.3595667445691149 C33.80232619006954 -0.3196221430395365, 40.051606492817484 1.1992187302144899, 41.87402478429853 1.006936901840703 C43.69644307577957 0.8146550734669162, 39.663727527943934 -0.3855298376301697, 39.093784071869806 0.20587577432639392" stroke="#e67700" stroke-width="4" fill="none"></path></g><g><g transform="translate(102.80648517218867 82.5) rotate(0 -19.99786334897857 95.83754092085641)"><path d="M-0.17993890643119803 -0.23095234036445622 C-1.7574340363343557 10.334965437650679, -8.259150967995327 43.09862389763197, -9.050421732664109 62.89254257082939 C-9.841692497332891 82.68646124402682, 0.1658292591571815 96.8358354429404, -4.927563494443893 118.53255969882011 C-10.020956248044968 140.22928395469984, -34.154000490903854 180.92563691337904, -39.610778254270556 193.0728881061077 M-1.7335455616470428 -1.3978062643948943 C-3.5316219235615187 9.341461095279081, -9.50257409514549 43.79085323211116, -10.15618860593997 63.97980267173611 C-10.80980311673445 84.16875211136106, -0.7119660954829312 98.59627161012652, -5.655232626413927 119.73589037335478 C-10.598499157344921 140.87550913658305, -34.32977424941026 178.90054005083007, -39.81578779152594 190.81751525110565" stroke="#e67700" stroke-width="4" fill="none"></path></g></g><g><g transform="translate(100.30648517218867 196.25) rotate(0 21.671495454246212 39.44707191727127)"><path d="M-0.23095234036445622 -0.3004217326641082 C7.001632104317347 12.866640836000444, 35.59862389763197 65.79082925915719, 42.89254257082939 78.82243650555611 M-1.8113410483952612 -1.5037470876518637 C5.842203940932329 11.88976607776247, 37.74365757493612 67.02146640843712, 45.15433195688762 80.39789092219435" stroke="#e67700" stroke-width="4" fill="none"></path></g></g><g><g transform="translate(95.30648517218867 108.75) rotate(0 -28.922430832153225 -5.08033341300208)"><path d="M-0.3004217326641082 -0.8574574291706085 C-10.050025830666225 -2.7302054226398464, -48.79250407417615 -9.830831223726273, -58.677563494443895 -11.467440301179886 M1.7427181283477693 1.3067734751757234 C-8.142824409917617 -0.3604244666639713, -49.76906258207125 -7.706565827960148, -59.58757979265414 -10.04417120807804" stroke="#e67700" stroke-width="4" fill="none"></path></g></g><g><g transform="translate(97.80648517218867 111.25) rotate(0 20.087551134824764 14.644800069546335)"><path d="M-0.8574574291706085 0.07243650555610648 C6.019794577360153 4.979043751955032, 33.91916877627373 23.970999509096146, 41.032559698820116 29.139221745729447 M0.8932386911753567 -0.9351382743660361 C7.613651712322609 4.126805524593219, 33.22623851486482 25.184351039594038, 39.97035807707347 30.224738413458688" stroke="#e67700" stroke-width="4" fill="none"></path></g></g><g><g transform="translate(23.408336899700657 99.69644207045963) rotate(351.55255355404967 0 7.272725423177121)"><path d="M0 0 C0 2.424241807725707, 0 12.121209038628535, 0 14.545450846354242 M0 0 C0 2.424241807725707, 0 12.121209038628535, 0 14.545450846354242" stroke="#000000" stroke-width="4" fill="none"></path></g></g><g><g transform="translate(21.954077530050085 100.21880293581728) rotate(351.55255355404967 0 7.272725423177121)"><path d="M0 0 C0 2.424241807725707, 0 12.121209038628535, 0 14.545450846354242 M0 0 C0 2.424241807725707, 0 12.121209038628535, 0 14.545450846354242" stroke="#e67700" stroke-width="4" fill="none"></path></g></g><g transform="translate(14.97089985166383 89.05239508957891) rotate(351.55255355404967 5.757568359375 6.06060791015625)"><path d="M5.757568359375 0 C6.9295180004293435 -0.07737825019163536, 8.513445636236126 0.5832138334908264, 9.458461962704506 1.4179128986581322 C10.403478289172886 2.252611963825438, 11.213448508199487 3.729361229907794, 11.427666318185278 5.008194391003834 C11.641884128171068 6.287027552099874, 11.360584423174158 7.966324856933884, 10.743768822619241 9.090911865234375 C10.126953222064325 10.215498873534866, 8.886006851309942 11.311582344878047, 7.726772714855773 11.755716440806783 C6.567538578401604 12.199850536735518, 4.947598140348396 12.199850536735518, 3.7883640038942272 11.755716440806783 C2.6291298674400583 11.311582344878047, 1.3881834966856754 10.215498873534866, 0.7713678961307577 9.090911865234375 C0.15455229557584016 7.966324856933883, -0.12674740942106766 6.2870275520998735, 0.08747040056472155 5.008194391003833 C0.30168821055051076 3.729361229907793, 1.1116584295771132 2.2526119638254385, 2.056674756045493 1.417912898658133 C3.0016910825138727 0.5832138334908276, 5.140752758820081 0.21611679007583465, 5.757568359374999 0 C6.374383959929917 -0.21611679007583465, 5.757568359375 0.020202026367187667, 5.757568359375 0.12121215820312514 M5.757568359375 0 C6.9295180004293435 -0.07737825019163536, 8.513445636236126 0.5832138334908264, 9.458461962704506 1.4179128986581322 C10.403478289172886 2.252611963825438, 11.213448508199487 3.729361229907794, 11.427666318185278 5.008194391003834 C11.641884128171068 6.287027552099874, 11.360584423174158 7.966324856933884, 10.743768822619241 9.090911865234375 C10.126953222064325 10.215498873534866, 8.886006851309942 11.311582344878047, 7.726772714855773 11.755716440806783 C6.567538578401604 12.199850536735518, 4.947598140348396 12.199850536735518, 3.7883640038942272 11.755716440806783 C2.6291298674400583 11.311582344878047, 1.3881834966856754 10.215498873534866, 0.7713678961307577 9.090911865234375 C0.15455229557584016 7.966324856933883, -0.12674740942106766 6.2870275520998735, 0.08747040056472155 5.008194391003833 C0.30168821055051076 3.729361229907793, 1.1116584295771132 2.2526119638254385, 2.056674756045493 1.417912898658133 C3.0016910825138727 0.5832138334908276, 5.140752758820081 0.21611679007583465, 5.757568359374999 0 C6.374383959929917 -0.21611679007583465, 5.757568359375 0.020202026367187667, 5.757568359375 0.12121215820312514" stroke="none" stroke-width="0" fill="#fd7e14"></path><path d="M5.757568359375 0 C6.9295180004293435 -0.07737825019163536, 8.513445636236126 0.5832138334908264, 9.458461962704506 1.4179128986581322 C10.403478289172886 2.252611963825438, 11.213448508199487 3.729361229907794, 11.427666318185278 5.008194391003834 C11.641884128171068 6.287027552099874, 11.360584423174158 7.966324856933884, 10.743768822619241 9.090911865234375 C10.126953222064325 10.215498873534866, 8.886006851309942 11.311582344878047, 7.726772714855773 11.755716440806783 C6.567538578401604 12.199850536735518, 4.947598140348396 12.199850536735518, 3.7883640038942272 11.755716440806783 C2.6291298674400583 11.311582344878047, 1.3881834966856754 10.215498873534866, 0.7713678961307577 9.090911865234375 C0.15455229557584016 7.966324856933883, -0.12674740942106766 6.2870275520998735, 0.08747040056472155 5.008194391003833 C0.30168821055051076 3.729361229907793, 1.1116584295771132 2.2526119638254385, 2.056674756045493 1.417912898658133 C3.0016910825138727 0.5832138334908276, 5.140752758820081 0.21611679007583465, 5.757568359374999 0 C6.374383959929917 -0.21611679007583465, 5.757568359375 0.020202026367187667, 5.757568359375 0.12121215820312514 M5.757568359375 0 C6.9295180004293435 -0.07737825019163536, 8.513445636236126 0.5832138334908264, 9.458461962704506 1.4179128986581322 C10.403478289172886 2.252611963825438, 11.213448508199487 3.729361229907794, 11.427666318185278 5.008194391003834 C11.641884128171068 6.287027552099874, 11.360584423174158 7.966324856933884, 10.743768822619241 9.090911865234375 C10.126953222064325 10.215498873534866, 8.886006851309942 11.311582344878047, 7.726772714855773 11.755716440806783 C6.567538578401604 12.199850536735518, 4.947598140348396 12.199850536735518, 3.7883640038942272 11.755716440806783 C2.6291298674400583 11.311582344878047, 1.3881834966856754 10.215498873534866, 0.7713678961307577 9.090911865234375 C0.15455229557584016 7.966324856933883, -0.12674740942106766 6.2870275520998735, 0.08747040056472155 5.008194391003833 C0.30168821055051076 3.729361229907793, 1.1116584295771132 2.2526119638254385, 2.056674756045493 1.417912898658133 C3.0016910825138727 0.5832138334908276, 5.140752758820081 0.21611679007583465, 5.757568359374999 0 C6.374383959929917 -0.21611679007583465, 5.757568359375 0.020202026367187667, 5.757568359375 0.12121215820312514" stroke="#000000" stroke-width="1" fill="none"></path></g><g transform="translate(10.824832128981939 113.53572141961774) rotate(351.55255355404967 14.242431640625 6.666666666666686)"><path d="M0 0 L28.48486328125 0 L28.48486328125 13.333333333333371 L0 13.333333333333371" stroke="none" stroke-width="0" fill="#fd7e14"></path><path d="M0 0 C7.094463259083205 0, 14.18892651816641 0, 28.48486328125 0 M0 0 C7.752489977350706 0, 15.504979954701412 0, 28.48486328125 0 M28.48486328125 0 C28.48486328125 2.718781381845482, 28.48486328125 5.437562763690964, 28.48486328125 13.333333333333371 M28.48486328125 0 C28.48486328125 4.516461620728188, 28.48486328125 9.032923241456375, 28.48486328125 13.333333333333371 M28.48486328125 13.333333333333371 C18.652417988531305 13.333333333333371, 8.81997269581261 13.333333333333371, 0 13.333333333333371 M28.48486328125 13.333333333333371 C21.600145163436174 13.333333333333371, 14.715427045622345 13.333333333333371, 0 13.333333333333371 M0 13.333333333333371 C0 10.076779454946546, 0 6.8202255765597215, 0 0 M0 13.333333333333371 C0 10.115620364745487, 0 6.897907396157602, 0 0" stroke="#000000" stroke-width="1" fill="none"></path></g></svg>