<svg version="1.1" xmlns="http://www.w3.org/2000/svg" viewBox="0 0 192.25314543486581 46.135948321022795" width="192.25314543486581" height="46.135948321022795">
  <!-- svg-source:excalidraw -->
  
  <defs>
    <style>
      @font-face {
        font-family: "Virgil";
        src: url("https://excalidraw.com/FG_Virgil.woff2");
      }
      @font-face {
        font-family: "Cascadia";
        src: url("https://excalidraw.com/Cascadia.woff2");
      }
    </style>
  </defs>
  <g><g transform="translate(179.87762840629568 15.447928261904792) rotate(0 -83.75105568886278 7.620045898606605)"><path d="M2.375517028570175 -2.6175138890743255 C-11.129035240338826 -2.998380333218421, -52.26784946683338 -7.686180534131553, -80.55831685618509 -4.142728537520441 C-108.84878424553679 -0.5992765409093277, -153.42756111379413 14.733199069697985, -167.36728730754007 18.643198090592353 M0.22055920198559775 2.133239046782255 C-13.447297352926515 2.3845162797138637, -52.93365218846293 -3.7160229803296194, -81.28335012317648 -0.6235594782736618 C-109.63304805789002 2.468904023782296, -156.32561487397504 17.04680804555548, -169.87762840629568 20.688020059118" stroke="#364fc7" stroke-width="4" fill="none"></path></g><g transform="translate(179.87762840629568 15.447928261904792) rotate(0 -83.75105568886278 7.620045898606605)"><path d="M-149.3134800763515 7.081410384705567 C-153.79555299557097 7.23386228294061, -164.00721709659845 17.334346289126874, -171.71812452913275 18.09967459107372 M-145.49353226737057 3.7820977037458654 C-155.19228124784206 10.9292621251705, -163.07962275448682 15.94939308769381, -169.40714221240034 19.52708558107349" stroke="#364fc7" stroke-width="4" fill="none"></path></g><g transform="translate(179.87762840629568 15.447928261904792) rotate(0 -83.75105568886278 7.620045898606605)"><path d="M-143.69397955220933 26.818208915495845 C-149.694159376921 20.81438373048028, -161.68579961816587 24.66323908779338, -171.71812452913275 18.09967459107372 M-139.8740317432284 23.518896234536143 C-151.85692685532348 23.768949156735108, -161.7077094870508 21.89308611652837, -169.40714221240034 19.52708558107349" stroke="#364fc7" stroke-width="4" fill="none"></path></g></g></svg>