<svg version="1.1" xmlns="http://www.w3.org/2000/svg" viewBox="0 0 131.81817626953125 169.45452880859375" width="131.81817626953125" height="169.45452880859375">
  <!-- svg-source:excalidraw -->
  
  <defs>
    <style>
      @font-face {
        font-family: "Virgil";
        src: url("https://excalidraw.com/FG_Virgil.woff2");
      }
      @font-face {
        font-family: "Cascadia";
        src: url("https://excalidraw.com/Cascadia.woff2");
      }
    </style>
  </defs>
  <g transform="translate(10 19.272705078125) rotate(0 55.909088134765625 65.45455932617188)"><path d="M0 0 C0 0, 0 0, 0 0 M0 0 C0 0, 0 0, 0 0 M-1.053362423893983 7.522574500789038 C1.4016314338329507 5.5226756916222115, 3.6172283762946105 3.8755366624033716, 5.82211843687529 1.2184208463725856 M-0.6657231308193752 5.658890505184524 C1.731704796318294 3.569960792789142, 3.837448632689129 0.984385989953066, 4.251265355529732 0.16933121493433057 M1.710922850025784 12.93707218807894 C1.2748120785339974 9.352039170255567, 9.185550882334608 5.363824859674855, 9.72085673953308 1.5742848987772824 M0.7969953128229488 11.940923870026648 C1.7617292345495486 7.957237170660966, 5.877350572965133 6.141635167870559, 11.162130732786787 -1.088786751489365 M2.010846790806367 21.745755894948417 C3.606519574094113 9.126821101325643, 12.752630611745255 7.733300161341226, 14.882836572363455 -3.557850106905682 M1.1343329743901034 19.54732366548913 C4.825554573970868 14.671286665407607, 8.949421261111537 10.914698017920792, 17.614532127513964 2.1182925633084944 M2.109113298561356 26.9683920421592 C3.5876150618680045 20.85549975495912, 5.9405891585058495 9.896732928616967, 20.485907709503437 1.0482672354369882 M2.1783885808847163 22.955545073091148 C7.087758000029492 13.614899989658126, 15.532237013732384 7.301028008013457, 21.362511931264663 -0.38934412839119403 M0.6442010263492719 29.368238379944316 C6.91151845730359 19.05628110817099, 19.53373416693985 14.548199309724968, 26.65617116042635 -2.025338825396007 M1.9150866354396001 32.28747477917766 C7.43949978042673 21.908562298833424, 14.269715848404982 16.09190537821705, 27.929354886200638 -0.17371197473139155 M-0.43730365308937635 35.235995484331 C3.1881390736999258 26.15309565128321, 11.075275108042376 18.822218434046118, 31.605647326863206 -3.102052293600213 M-1.1096212548297366 37.79304187540089 C10.70778030891772 26.4063299013133, 21.787121590827763 14.285890100524387, 31.3373841284279 -0.43490396428264333 M0.045560632985925054 45.377988931346465 C4.264102089437137 33.05343944574423, 16.880534470394906 25.390260720603973, 39.656495494583 3.5292061475199183 M-0.34197098280777993 42.83936295341306 C12.930367947956945 27.901111663888834, 28.941101883271042 11.713876077326812, 38.24249917809044 0.5130127352755984 M-1.9600468296558446 51.88029803768627 C15.41112640259561 31.385906707756696, 23.496543903933826 17.393647654814682, 39.989486065316726 0.07630249376883569 M-1.9385630283505506 48.92487084553473 C13.897906885219168 34.481491828234816, 27.17491965093853 21.107206580971397, 42.43264817129426 -2.0456798646272176 M2.351644360716328 51.325788799154864 C15.792751214523555 38.778792854720486, 38.17503341585353 14.617160966878664, 46.89552832483339 1.7815660618420885 M1.076050744647965 53.146347563195334 C18.192835043497386 34.40529122900993, 39.17538847380223 14.102551156896801, 48.829355628183365 1.559326068329458 M2.8965434898714335 61.3317905324478 C18.956073792648446 38.92523287791951, 33.1460597075218 24.000666310683144, 54.524142674863995 -2.6158871524558656 M0.8108948563317568 60.98660093871544 C13.933995116211143 46.19636144482468, 27.69183417117475 28.771589612948883, 51.98619468486375 0.09668754557508308 M-3.2068880694500237 69.7671288135923 C16.62715525901649 45.155073172512935, 39.63154228515156 22.854897161461423, 61.13498840117754 -2.342477832429484 M0.3509834138163299 67.78149756374727 C14.293851512969175 52.63682408413789, 27.187712387793816 35.53432617792393, 60.09031486147941 -1.7789126005698002 M-0.10581394450753834 71.51625421861557 C23.087098538189142 45.6235474453107, 44.71156923013733 24.899450784248984, 63.846335905505015 -0.1278399822743168 M1.0391430242171893 71.73409152994303 C26.199528347834246 44.473435749445414, 52.225860237723545 15.844935017469489, 65.46091429413636 1.1855576413242588 M2.3188001504678795 81.24337106421319 C15.329287020915988 63.91078486207396, 31.643241763586403 45.669021913995934, 66.88659447361543 -3.6671442852948175 M1.7578357076783249 78.92875316962329 C15.93335098619184 56.93964666012834, 36.31356114156978 33.49247398385529, 68.55076750297859 -0.37084389642219406 M2.54459961720724 82.6094703461896 C18.0111239031101 67.54279787491222, 38.165476458124 42.470501656656864, 76.34278450723978 2.8412252543134855 M0.7715721003057467 84.7982019942175 C17.176202279097005 64.4264415920278, 33.077874696934536 47.338592640197994, 72.4446976241121 -1.710710202379687 M-0.3406312585204674 92.81000638124034 C18.911251998514082 73.51944000358765, 29.950175750223433 53.43631455553772, 76.41206529214708 3.23334795324611 M-0.2715607777565552 90.9111833360462 C21.29892486074284 69.33716872275853, 39.032073309412986 45.24947467828287, 78.86110417768089 0.7893915557722977 M3.453443896025263 95.79192974539265 C29.094114379595183 61.404533754626414, 63.19863279961926 22.794925316880494, 88.1502072300683 1.8420898073075307 M1.5025136806069241 98.43950128676161 C25.916698258167205 70.2642732691632, 50.90598895103712 38.77844695826474, 86.65043529979096 -1.6487566105367648 M-2.0484635464150642 103.01781601467374 C33.8860989736053 64.33857198865564, 63.939392791830926 21.347340906341984, 89.72311960677246 0.034780133193279994 M1.4756845825116898 105.17214743801597 C30.335962723315344 71.25206748918478, 56.986847596450126 39.34784414214323, 91.7967155105863 -1.4173468689863427 M0.9445556999275411 110.22999450577916 C35.30293650412348 68.22308994409693, 71.28172355142658 25.062880318085547, 99.15532282399059 0.6755349267078259 M-1.1805235518982684 110.52942962212981 C33.117104800173145 71.43636886782026, 70.17618830911833 30.064570145263644, 93.91601794617296 -1.8102222081469677 M2.082022036784089 118.66758121451339 C32.40895483361938 77.91039809448833, 67.13020498877418 37.333350809192524, 102.58147616749162 0.6629335045467073 M-1.6625375865169403 117.03000485053262 C38.92077341164068 73.57152356802627, 81.02815734218737 27.935854732802056, 100.25799212669486 -0.2351997956981009 M3.1235947499235692 119.60415545757195 C38.525371549535336 78.78344953459771, 84.77775929844367 27.050378296525736, 104.9948500390066 3.392341862514378 M-1.533208001200336 123.07855595554491 C39.49262682592435 76.76513949899332, 77.78503560138691 31.290044200833492, 108.20433618825805 0.4982523797897116 M-3.968514787913513 131.56479281098206 C23.40788517421628 103.21663682666595, 42.32681470826667 80.9584788895728, 114.49885372430451 3.2935893173063775 M1.1206043111670496 128.4328245288189 C25.68743556341336 98.89117025310456, 48.29050247025973 69.82087516331322, 113.27032465100653 0.9666921506370088 M-0.1856021460056354 131.58077469032543 C29.881368703920124 98.89249681299356, 60.65010849282676 65.99614587701716, 110.43127150915434 1.3121301856182654 M0.2819690156817387 133.70832050156133 C44.42549718425263 84.5987922962886, 87.79572514851237 32.29607173509258, 112.97904453508427 0.8638648491643508 M8.715412106368724 131.19900751118374 C45.34179586252885 83.12162173814426, 87.88757908721115 39.73307597041723, 113.52032170831558 6.654334203922801 M5.941768277440254 132.63774130497885 C41.87932709765895 95.11335771839765, 74.58980255128043 56.508237531258644, 112.76745438962575 8.995993727469497 M15.151392110026002 130.52911849136638 C34.79189263125904 105.5874575202096, 56.574844567792844 77.5801834348229, 113.35283375250974 13.023357787801665 M10.78810647163403 134.36806767250584 C51.201789757275876 84.92691151917052, 91.99116126680659 38.88220871360572, 113.20456137972751 15.767651216759127 M19.678108266697237 130.40397362667778 C56.43741307785391 87.40302328666056, 92.17266586824354 46.141864130246276, 118.59395304346785 20.892691933059325 M15.921431734369108 131.87108161557177 C54.3825554452727 88.04610884677524, 94.18385705749068 45.015417787586316, 115.96112614149555 19.70530682846271 M19.961469862151404 128.69090223381352 C47.508793600896965 105.19437261826349, 76.95840912995803 74.9920963454999, 112.5189638669589 26.270290956391314 M23.57576858578946 130.50459096649718 C45.37492543156365 105.3249552580475, 71.16156086305406 75.28191508585044, 115.09148569507389 28.471455894900778 M29.525997298119506 132.75402030857808 C49.29867953780066 106.52156121305418, 67.02911178906221 80.85842205483334, 111.10570259572337 33.91560543382487 M27.617190162001094 132.72475273671157 C57.83632249573843 96.34679173054855, 89.76030864715867 62.62630585036146, 114.87596664757798 32.33165250772557 M30.00634986037055 135.99190716766697 C55.20148545637451 111.07883451067137, 71.715871129889 81.38994211202873, 118.5663806025018 38.10371094138722 M33.54534598314801 130.87374975853544 C60.53911503910143 100.30481970353804, 89.78333637596884 71.0582668233256, 113.10270810612337 37.16863825858931 M37.89579795063553 130.29992880688462 C66.37616238222101 100.95884143796698, 89.1362702941546 74.93225312974056, 114.87940717306316 43.3894367957739 M40.99193418533621 131.89211404339824 C64.56034363036069 103.3860640190339, 89.1437164866509 73.75310258880106, 116.34948459085405 45.496470979812536 M40.79775085468345 130.60791454292664 C72.3739163514022 104.15994664239449, 102.04476824807097 70.1319212175036, 113.88180270913846 53.82439899278937 M43.72222928870969 134.10640342362055 C62.12768459183582 111.78191017885487, 79.16066602019816 89.96485149532461, 113.826119237876 49.92755768282471 M47.51816994525479 132.09718995182018 C75.70651817781689 98.25466917926389, 97.61225985440515 73.91079977080256, 115.52072649649668 57.49467684912916 M47.47749540038394 132.69623449085455 C72.71754482541382 103.49959357539288, 100.06847492925051 77.80153396134185, 113.37601156733322 57.96033119994637 M51.59739159509009 130.96470560959256 C73.80951035219172 113.59277963551655, 95.48220734547954 91.66001865732622, 115.94588990787835 63.73784594082054 M53.25680912747448 132.70841133675253 C75.58298459064724 104.40017131123469, 98.91158088854598 81.7125002222021, 115.31855068634124 65.44628312282975 M58.84195008995832 129.18716583293923 C72.45700936489551 117.6935528358747, 91.32366274923535 97.17249606865444, 111.04137931602396 67.9071068438907 M60.598882490125305 134.07105429363497 C71.65941338071121 117.19096615227278, 86.23710868262727 102.45582037599145, 115.73093820201554 69.6040925431271 M65.41699083159048 131.73806161766473 C84.56773947387522 113.09164028242385, 99.73980076144237 96.17532011516744, 115.9574790067025 72.13541387503518 M65.4244761244424 133.0606328729314 C84.52061442879202 111.43359749508008, 101.94341306559491 92.87664317656358, 113.7300111345001 74.0337547931589 M74.09779810575557 131.12534728046455 C82.76916529727094 113.03886375074649, 104.42604430706399 96.7993368984813, 111.20308438164498 82.55250803005848 M72.03792705056978 131.0896424069623 C85.85554158753186 116.89555756528436, 100.92147948466332 98.49741611873839, 113.31465511990096 82.18361438435468 M73.01826731418463 135.85376381714315 C92.17335628526918 116.62811957252663, 106.23650183076003 95.71473652404966, 114.89722972662041 85.82259362565608 M75.62562090461346 131.41892740715713 C85.99788005985127 118.13453846468921, 96.47148774415744 107.05235975630612, 115.3673321783621 86.13804164903493 M83.9224327426466 130.96251554439607 C90.03231929379766 123.16775334578618, 100.03847866576665 112.93035129746198, 112.86150141436927 94.36137123785527 M82.2575197067174 131.94535820583644 C94.73084085923706 116.16912444518888, 105.53634602804905 103.07821418856223, 115.49649391699903 92.08446567885191 M84.91293979287252 130.48759345802782 C90.04586919548902 127.64490004604129, 99.14475181237381 114.90356980937705, 118.15186081763206 103.10016644268325 M87.38563409298763 133.91415431442974 C93.00154978692453 122.9288288839894, 98.28739648056349 118.61746705057692, 115.31840444292722 101.32750306545785 M90.70257275063138 129.9994518747339 C101.63173647414816 121.60798993050504, 109.18027488690407 111.05200919454657, 110.5904672221778 102.25005855683554 M91.84555108356814 130.70656106525752 C96.92805247403993 126.42673224239726, 103.18560159651211 118.56208463582021, 113.7389632762907 107.30308664117325 M99.36272701765418 135.06533179031874 C104.92484453327035 126.70850381561434, 108.48741690806979 114.67052859904605, 110.85809102973747 114.51891357611665 M96.35490631456494 132.55217296974922 C102.47420722882708 125.03531543682995, 107.73720001081257 122.05412167649186, 116.79611855319547 113.04549841742762 M100.65231119571678 129.92254549049377 C107.07049250980928 130.0067850107437, 109.08135507324594 121.21477057435243, 116.63773668730944 115.77458852023908 M101.54528737580829 131.3757346873039 C105.34286079001089 128.67076392230788, 108.15594435279564 125.9965390504937, 113.7077022916296 119.88427465909251 M109.07242268761527 130.68362738044075 C111.18834841961683 130.4692150474726, 111.87810398257152 128.6838039902603, 113.78633400527607 126.09586237540847 M107.03716291552317 132.6591687224906 C110.13849380346973 130.56796724452104, 110.20179212961897 127.9219392861176, 114.40419701589119 124.96124777740246" stroke="#fab005" stroke-width="0.5" fill="none"></path><path d="M0.6286082118749619 -0.4530045837163925 C36.007753799500215 2.4995862406896183, 81.3531927220864 0.6559959811376164, 115.24192140996456 3.6016738563776016 M-0.1302395984530449 1.2043430730700493 C33.50453998977616 1.0646598373258755, 69.4038535745874 1.0828790698850796, 111.36248505860567 -0.6704425886273384 M109.94755266606808 -0.871962770819664 C108.5737515217493 49.01690912569609, 109.1198793179224 89.4006693278759, 113.14892433583736 127.44902731478214 M111.65722192078829 -1.4273681715130806 C109.66147339099959 44.73041305107802, 111.42730033153609 92.55517883177458, 109.87242735177279 131.66310953348875 M110.07000969350338 129.16032721102238 C78.9546810948105 132.908226782537, 42.863263018578564 133.9077456538444, -3.2758140712976456 132.0880830436945 M112.96471060067415 131.26781725138426 C83.19037482787238 127.64078379248721, 58.659576957902615 128.22597385024173, 1.2864300087094307 132.1720690652728 M1.64588163793087 131.26166321337223 C-0.5110649379085999 91.56032217972972, 0.48834044615512084 55.374377264251265, -0.6366639286279678 3.595501199364662 M0.6274315193295479 129.65598820894957 C-4.309227569706559 98.39865634392879, -3.8327835637403727 62.66524263076349, -1.8536368533968925 -0.9045503214001656" stroke="#000000" stroke-width="1" fill="none"></path></g><g transform="translate(43.85841994989107 10) rotate(0 22.050668184874496 74.72726440429688)"><text x="22.05066818487451" y="108.45452880859375" font-family="Virgil, Segoe UI Emoji" font-size="94.71765244373628px" fill="#e67700" text-anchor="middle" style="white-space: pre;" direction="ltr">?</text></g></svg>