<svg version="1.1" xmlns="http://www.w3.org/2000/svg" viewBox="0 0 115.24238914937976 129.4082848937607" width="115.24238914937976" height="129.4082848937607">
  <!-- svg-source:excalidraw -->
  
  <defs>
    <style>
      @font-face {
        font-family: "Virgil";
        src: url("https://excalidraw.com/FG_Virgil.woff2");
      }
      @font-face {
        font-family: "Cascadia";
        src: url("https://excalidraw.com/Cascadia.woff2");
      }
    </style>
  </defs>
  <g><g transform="translate(105.28242268727425 68.85017074987292) rotate(0 -47.66122811258437 -4.146028302992562)"><path d="M-0.04003353789448738 -0.45890770480036736 C-1.0845030454297861 -6.670446981241306, 0.9288286300996935 -26.43039209569494, -5.606554014235735 -35.312467413395645 C-12.141936658571165 -44.19454273109635, -26.910277397185567 -52.49833524748683, -39.25232940390706 -53.75135961100459 C-51.59438141062856 -55.00438397452235, -70.33636844033995 -49.8146500321726, -79.65886605456471 -42.83061359450221 C-88.98136366878947 -35.84657715683182, -94.29726656153798 -23.752061872929335, -95.18731508925558 -11.847140984982252 C-96.07736361697317 0.05777990296483182, -91.07672115042806 19.130870066831505, -84.99915722087026 28.598911733180284 C-78.92159329131246 38.06695339952906, -69.74804051592946 43.44067044531306, -58.72193151190877 44.9611090131104 C-47.69582250788808 46.481547580907744, -28.34377527201066 41.48200336570541, -18.84250319674611 37.72154313996434 C-9.341231121481565 33.96108291422327, -4.534649001751806 26.378660444942867, -1.7142990603214914 22.398347658663987 C1.1060508811088234 18.418034872385107, -2.383269759984796 15.706247061353139, -1.920403548164222 13.839666422291055 M-3.506290243417025 -3.1763399831950667 C-4.832781934688489 -10.427377054740985, -0.9132809145748624 -30.47355641449491, -6.940064404755831 -39.75252820894122 C-12.9668478949368 -49.031500003387535, -27.428443523993096 -58.76210904046893, -39.66699118450284 -58.85017074987292 C-51.905538845012586 -58.93823245927692, -71.9211294793586 -48.34809783384204, -80.3713503678143 -40.28089846536517 C-88.82157125627 -32.2136990968883, -88.83610094701251 -21.720016446957985, -90.3683165152371 -10.446974539011716 C-91.90053208346168 0.8260673689345541, -94.87863075410326 17.339057727605102, -89.56464377716183 27.35735298231244 C-84.25065680022041 37.37564823701978, -70.05480064705014 46.835714452217026, -58.48439465358853 49.662796989232305 C-46.913988660126925 52.489879526247584, -29.001184677321604 48.12593293423454, -20.142207816392183 44.31984820440412 C-11.283230955462761 40.51376347457369, -8.557113198831148 31.982736561425288, -5.330533488011998 26.826288610249758 C-2.103953777192848 21.66984065907423, -2.1317177039106534 15.735545816283635, -0.7827295514772867 13.381160497350944" stroke="#c92a2a" stroke-width="4" fill="none"></path></g><g transform="translate(105.28242268727425 68.85017074987292) rotate(0 -47.66122811258437 -4.146028302992562)"><path d="M-12.85387083367966 -25.504490837631405 C-6.379183002457427 -15.34130133155351, -2.8122455614980986 -13.54107796608417, -0.18771883472800255 -1.375871155411005 M-13.882798804357273 -28.886563416747034 C-6.425226795167298 -20.616541422178624, -3.436790357957644 -11.144345796666936, -0.928334966301918 0.34284164011478424" stroke="#c92a2a" stroke-width="4" fill="none"></path></g><g transform="translate(105.28242268727425 68.85017074987292) rotate(0 -47.66122811258437 -4.146028302992562)"><path d="M7.619612219541681 -26.903238154089298 C7.489023738048862 -16.293295311973836, 4.431134692493329 -14.040464139326627, -0.18771883472800255 -1.375871155411005 M6.590684248864067 -30.285310733204927 C7.276323476590737 -21.224816092842566, 3.479194743942468 -11.28903100151717, -0.928334966301918 0.34284164011478424" stroke="#c92a2a" stroke-width="4" fill="none"></path></g></g></svg>