<svg version="1.1" xmlns="http://www.w3.org/2000/svg" viewBox="0 0 117.84557445214628 25.3692747767127" width="117.84557445214628" height="25.3692747767127">
  <!-- svg-source:excalidraw -->
  
  <defs>
    <style>
      @font-face {
        font-family: "Virgil";
        src: url("https://excalidraw.com/FG_Virgil.woff2");
      }
      @font-face {
        font-family: "Cascadia";
        src: url("https://excalidraw.com/Cascadia.woff2");
      }
    </style>
  </defs>
  <g><g transform="translate(105.06361821459174 12.7853536895322) rotate(0 -46.1408309885186 -0.10071630117585073)"><path d="M2.7819562375545503 -0.19045700430870038 C-12.840382819376785 0.40618028945309204, -76.99883866410651 2.7517837120385105, -93.72129368783473 2.583921087180511 M0.8476368387043474 -2.7621589024364948 C-14.9996080667301 -2.915734702432332, -79.60491441633502 -2.2775187764772644, -95.06361821459174 -1.723310000057086" stroke="#364fc7" stroke-width="4" fill="none"></path></g><g transform="translate(105.06361821459174 12.7853536895322) rotate(0 -46.1408309885186 -0.10071630117585073)"><path d="M-25.32540988764582 13.35575053148121 C-14.759331904836582 3.9672549037425178, -11.798300565591735 6.05479004415129, 5.742668610811234 -3.6434875309467314 M-24.078856854055502 9.717234969662133 C-18.408939416207666 9.199492079289225, -11.448405204794296 3.9316908089976472, 3.7449045896530153 -1.7105528593063353" stroke="#364fc7" stroke-width="4" fill="none"></path></g><g transform="translate(105.06361821459174 12.7853536895322) rotate(0 -46.1408309885186 -0.10071630117585073)"><path d="M-26.005432987588165 -7.154187814827495 C-15.380937951773902 -10.39388225574292, -12.215590256158471 -2.1440331106211277, 5.742668610811234 -3.6434875309467314 M-24.758879953997848 -10.792703376646571 C-19.066975077195632 -5.795488109354496, -11.92345602276089 -5.5443476716429645, 3.7449045896530153 -1.7105528593063353" stroke="#364fc7" stroke-width="4" fill="none"></path></g></g></svg>