<svg version="1.1" xmlns="http://www.w3.org/2000/svg" viewBox="0 0 103.13655277393343 96.48870067230689" width="103.13655277393343" height="96.48870067230689">
  <!-- svg-source:excalidraw -->
  
  <defs>
    <style>
      @font-face {
        font-family: "Virgil";
        src: url("https://excalidraw.com/FG_Virgil.woff2");
      }
      @font-face {
        font-family: "Cascadia";
        src: url("https://excalidraw.com/Cascadia.woff2");
      }
    </style>
  </defs>
  <g><g transform="translate(12.019285827875137 85.83489803306088) rotate(0 39.54899055909158 -37.590547696907436)"><path d="M-2.0192858278751373 0.653802639245987 C4.7592944562435155 -3.3401605387528734, 28.796517070296595 -11.410371727360912, 42.65260919928551 -24.15848850607872 C56.50870132827442 -36.90660528479653, 74.56827320574129 -67.64998621039773, 81.11726694605832 -75.83489803306085 M2.0800062234699723 -1.45958688095212 C9.57505435700218 -6.1939910172919435, 35.27648766409675 -15.896505067113665, 48.02707971647382 -27.97215330913663 C60.777671768850894 -40.047801551159594, 72.87916333390676 -66.83260953434494, 78.5835585377324 -73.9134763330899" stroke="#364fc7" stroke-width="4" fill="none"></path></g><g transform="translate(12.019285827875137 85.83489803306088) rotate(0 39.54899055909158 -37.590547696907436)"><path d="M73.31931506700315 -47.26476519965773 C77.87417199532054 -57.26495838345737, 73.89400404807266 -66.9628892039692, 79.12242642856721 -70.22151784605606 M70.83950396485127 -46.22647717260962 C72.47845404469133 -53.62969143623236, 76.61984604576955 -61.45661434475112, 78.6448803029168 -73.85054911679848" stroke="#364fc7" stroke-width="4" fill="none"></path></g><g transform="translate(12.019285827875137 85.83489803306088) rotate(0 39.54899055909158 -37.590547696907436)"><path d="M55.90186954594821 -58.11615192702686 C66.89923179931681 -63.84192406477531, 69.37666108720683 -69.51665384565347, 79.12242642856721 -70.22151784605606 M53.42205844379634 -57.07786389997875 C59.604528856306445 -61.55128668645886, 68.33024808482949 -66.52208998951215, 78.6448803029168 -73.85054911679848" stroke="#364fc7" stroke-width="4" fill="none"></path></g></g></svg>