<svg version="1.1" xmlns="http://www.w3.org/2000/svg" viewBox="0 0 161.38046056659414 23.29621276771502" width="161.38046056659414" height="23.29621276771502">
  <!-- svg-source:excalidraw -->
  
  <defs>
    <style>
      @font-face {
        font-family: "Virgil";
        src: url("https://excalidraw.com/FG_Virgil.woff2");
      }
      @font-face {
        font-family: "Cascadia";
        src: url("https://excalidraw.com/Cascadia.woff2");
      }
    </style>
  </defs>
  <g><g transform="translate(11.868293080925923 10.055309376120562) rotate(0 68.82193720237115 1.592797007736948)"><path d="M1.0216312896460296 1.5639825034886599 C24.089133254974914 1.1478019205074796, 116.72779705618734 -0.0593789814207506, 139.51216748566824 0.21540685100334267 M-1.8682930809259415 -0.055309376120566967 C20.852618517244686 1.104896944820016, 115.10390389842206 3.4473358645991934, 138.033846868663 3.240903391594464" stroke="#5c940d" stroke-width="4" fill="none"></path></g><g transform="translate(11.868293080925923 10.055309376120562) rotate(0 68.82193720237115 1.592797007736948)"><path d="M111.96472204457903 15.185854551936877 C117.5588902998089 9.053295056267785, 131.45090168911358 6.557470588720772, 139.94432740890878 0.047061595226103314 M110.56206575576151 11.564137041191948 C115.23331231082057 11.647060019528762, 122.1032655568703 6.700577772556965, 139.62034084693985 4.891728793362552" stroke="#5c940d" stroke-width="4" fill="none"></path></g><g transform="translate(11.868293080925923 10.055309376120562) rotate(0 68.82193720237115 1.592797007736948)"><path d="M112.19343780953007 -5.334079450995545 C118.10751992910181 -4.49760537428587, 131.92187287601394 -0.026065292182041233, 139.94432740890878 0.047061595226103314 M110.79078152071254 -8.955796961740475 C115.61560113310702 -3.707389231050618, 122.42801722613048 -3.4917499116811097, 139.62034084693985 4.891728793362552" stroke="#5c940d" stroke-width="4" fill="none"></path></g></g></svg>