<svg version="1.1" xmlns="http://www.w3.org/2000/svg" viewBox="0 0 65.30908999920928 53.233297060017804" width="65.30908999920928" height="53.233297060017804">
  <!-- svg-source:excalidraw -->
  
  <defs>
    <style>
      @font-face {
        font-family: "Virgil";
        src: url("https://excalidraw.com/FG_Virgil.woff2");
      }
      @font-face {
        font-family: "Cascadia";
        src: url("https://excalidraw.com/Cascadia.woff2");
      }
    </style>
  </defs>
  <g><g transform="translate(68.26169074177642 40.201350717907786) rotate(0 -28.40934565205714 -21.385737379420135)" fill-rule="evenodd"><path d="M-23.828201570696816 -14.945012705792342 L-28.97981207618852 -30.113630294799805 L-31.30519155137416 -29.201367235475683 L-32.986624517151846 -26.39302697752563 L-28.97981207618852 -12.655411772957105 L-23.828201570696816 -14.945012705792342" stroke="none" stroke-width="0" fill="#15aabf" fill-rule="evenodd"></path><path d="M-23.828201570696816 -14.945012705792342 C-24.25750564867346 -16.280614450890866, -25.545424287641406 -20.430520244882246, -26.40402603855669 -22.95862317638349 C-27.262627789471974 -25.486726107884735, -27.882712329755993 -29.541229661276116, -28.97981207618852 -30.113630294799805 C-30.076911822621046 -30.686030928323493, -32.748120116596596 -28.348729275503185, -32.986624517151846 -26.39302697752563 C-33.225128917707096 -24.437324679548073, -31.078640553013926 -20.66901904102922, -30.410838479520038 -18.379416506934465 C-29.74303640602615 -16.08981397283971, -30.076918227659057 -13.227812406480792, -28.97981207618852 -12.655411772957105 C-27.882705924717982 -12.083011139433419, -24.6868033216121 -14.563412550319804, -23.828201570696816 -14.945012705792342 M-23.828201570696816 -14.945012705792342 C-24.25750564867346 -16.280614450890866, -25.545424287641406 -20.430520244882246, -26.40402603855669 -22.95862317638349 C-27.262627789471974 -25.486726107884735, -27.882712329755993 -29.541229661276116, -28.97981207618852 -30.113630294799805 C-30.076911822621046 -30.686030928323493, -32.748120116596596 -28.348729275503185, -32.986624517151846 -26.39302697752563 C-33.225128917707096 -24.437324679548073, -31.078640553013926 -20.66901904102922, -30.410838479520038 -18.379416506934465 C-29.74303640602615 -16.08981397283971, -30.076918227659057 -13.227812406480792, -28.97981207618852 -12.655411772957105 C-27.882705924717982 -12.083011139433419, -24.6868033216121 -14.563412550319804, -23.828201570696816 -14.945012705792342" stroke="#000000" stroke-width="1" fill="none"></path></g></g><g><g transform="translate(104.42594450690592 34.288177752096004) rotate(0 -71.77139950730128 -10.185585673039057)" fill-rule="evenodd"><path d="M-82.8884934868537 -8.45944070771597 L-58.27527745415162 -9.89043828837642 L-51.67477769493502 -9.711564491502337 L-49.1168545076966 -8.74564022384806 L-51.58532413339127 -6.24138725202449 L-56.844251050820105 -3.880234038266965 L-87.75838460014718 -3.08871181263577 L-92.04691643330874 -3.594034522134878 L-93.9988873963278 -5.074227185702414 L-94.42594450690589 -7.243089461556854 L-93.01281938419585 -14.916835905088027 L-91.4744981859305 -17.04545021057129 L-89.31011494565388 -17.0991123196099 L-86.89530592781703 -15.614447826132318 L-82.6023035782786 -8.74564022384806" stroke="none" stroke-width="0" fill="#15aabf" fill-rule="evenodd"></path><path d="M-82.8884934868537 -8.45944070771597 C-78.78629081473669 -8.697940304492711, -63.9038839506778 -9.84273836902107, -58.27527745415162 -9.89043828837642 C-52.64667095762544 -9.938138207731768, -49.35535890825185 -9.747340932199636, -49.1168545076966 -8.74564022384806 C-48.87835010714135 -7.743939515496484, -53.36214572906313 -4.691135069197148, -56.844251050820105 -3.880234038266965 C-60.32635637257708 -3.069333007336782, -64.14237554115704 -3.9279339576223125, -70.00948643823847 -3.880234038266965 C-75.8765973353199 -3.8325341189116173, -88.08781512051728 -2.306132696391705, -92.04691643330874 -3.594034522134878 C-96.0060177461002 -4.881936347878051, -93.8594973562169 -9.3657423779866, -93.7640943149872 -11.607644992726001 C-93.6686912737575 -13.849547607465404, -92.61929625045886 -16.377649738336903, -91.4744981859305 -17.04545021057129 C-90.32970012140214 -17.713250682805675, -88.37400502909236 -16.99774949058619, -86.89530592781703 -15.614447826132318 C-85.41660682654171 -14.231146161678447, -83.31780396986834 -9.890441490895437, -82.6023035782786 -8.74564022384806 M-82.8884934868537 -8.45944070771597 C-78.78629081473669 -8.697940304492711, -63.9038839506778 -9.84273836902107, -58.27527745415162 -9.89043828837642 C-52.64667095762544 -9.938138207731768, -49.35535890825185 -9.747340932199636, -49.1168545076966 -8.74564022384806 C-48.87835010714135 -7.743939515496484, -53.36214572906313 -4.691135069197148, -56.844251050820105 -3.880234038266965 C-60.32635637257708 -3.069333007336782, -64.14237554115704 -3.9279339576223125, -70.00948643823847 -3.880234038266965 C-75.8765973353199 -3.8325341189116173, -88.08781512051728 -2.306132696391705, -92.04691643330874 -3.594034522134878 C-96.0060177461002 -4.881936347878051, -93.8594973562169 -9.3657423779866, -93.7640943149872 -11.607644992726001 C-93.6686912737575 -13.849547607465404, -92.61929625045886 -16.377649738336903, -91.4744981859305 -17.04545021057129 C-90.32970012140214 -17.713250682805675, -88.37400502909236 -16.99774949058619, -86.89530592781703 -15.614447826132318 C-85.41660682654171 -14.231146161678447, -83.31780396986834 -9.890441490895437, -82.6023035782786 -8.74564022384806" stroke="#000000" stroke-width="1" fill="none"></path></g></g><g><g transform="translate(74.96331931544182 29.536683517547004) rotate(0 -36.42383826520984 5.896438752115927)" fill-rule="evenodd"><path d="M-30.52983014436232 -0.8459417042892715 L-36.82623871438239 12.319274468015049 L-40.11753795367996 13.696613542470782 L-42.26403912844914 12.319274468015049 L-39.40206318224228 3.447065449027645 L-35.68144064985403 -1.7045402526855469 L-30.52983014436232 -0.8459417042892715" stroke="none" stroke-width="0" fill="#15aabf" fill-rule="evenodd"></path><path d="M-30.52983014436232 -0.8459417042892715 C-31.579231572699 1.348260991094782, -34.87053721703459 10.125071772630996, -36.82623871438239 12.319274468015049 C-38.781940211730195 14.513477163399102, -41.834735050472496 13.797975971179616, -42.26403912844914 12.319274468015049 C-42.69334320642579 10.840572964850482, -40.4991629286748 5.784367902477745, -39.40206318224228 3.447065449027645 C-38.30496343580976 1.1097629955775457, -37.16014615616736 -0.9890390604660607, -35.68144064985403 -1.7045402526855469 C-34.20273514354071 -2.420041444905033, -31.388431895277606 -0.9890414623553174, -30.52983014436232 -0.8459417042892715 M-30.52983014436232 -0.8459417042892715 C-31.579231572699 1.348260991094782, -34.87053721703459 10.125071772630996, -36.82623871438239 12.319274468015049 C-38.781940211730195 14.513477163399102, -41.834735050472496 13.797975971179616, -42.26403912844914 12.319274468015049 C-42.69334320642579 10.840572964850482, -40.4991629286748 5.784367902477745, -39.40206318224228 3.447065449027645 C-38.30496343580976 1.1097629955775457, -37.16014615616736 -0.9890390604660607, -35.68144064985403 -1.7045402526855469 C-34.20273514354071 -2.420041444905033, -31.388431895277606 -0.9890414623553174, -30.52983014436232 -0.8459417042892715" stroke="#000000" stroke-width="1" fill="none"></path></g></g><g><g transform="translate(52.161539722653856 28.876120878595486) rotate(0 -9.659698700174943 -6.119341866788062)" fill-rule="evenodd"><path d="M-14.06456178231964 -4.06053153970367 L-5.364050375630345 -4.5184507655150155 L-6.594711177265441 -6.636333669993485 L-9.48533878002369 -8.181816101074219 L-14.06456178231964 -4.06053153970367" stroke="none" stroke-width="0" fill="#ffff" fill-rule="evenodd"></path><path d="M-14.06456178231964 -4.06053153970367 C-12.614476547871424 -4.136851410672228, -6.1272542093463365 -3.831570005286591, -5.364050375630345 -4.5184507655150155 C-4.600846541914354 -5.20533152574344, -8.035253545575475 -8.258135972042776, -9.48533878002369 -8.181816101074219 C-10.935424014471906 -8.105496230105661, -13.301357948603648 -4.747412299932095, -14.06456178231964 -4.06053153970367 M-14.06456178231964 -4.06053153970367 C-12.614476547871424 -4.136851410672228, -6.1272542093463365 -3.831570005286591, -5.364050375630345 -4.5184507655150155 C-4.600846541914354 -5.20533152574344, -8.035253545575475 -8.258135972042776, -9.48533878002369 -8.181816101074219 C-10.935424014471906 -8.105496230105661, -13.301357948603648 -4.747412299932095, -14.06456178231964 -4.06053153970367" stroke="#000000" stroke-width="1" fill="none"></path></g></g><g><g transform="translate(37.743344192459745 28.426410897803805) rotate(0 -22.034086361991285 2.615698133610195)" fill-rule="evenodd"><path d="M-18.466878714364668 -0.45116890895427747 L-21.443376740275276 5.272840628801598 L-25.10673054676607 5.959719467518625 L-25.564665144668634 3.441156039510601 L-21.90128059399539 -0.909088134765625 L-18.466878714364668 -0.45116890895427747" stroke="none" stroke-width="0" fill="#15aabf" fill-rule="evenodd"></path><path d="M-18.466878714364668 -0.45116890895427747 C-18.962961718683104 0.5028326806717016, -20.336734768208377 4.204359232722781, -21.443376740275276 5.272840628801598 C-22.550018712342176 6.341322024880415, -24.419849146033844 6.265000232400459, -25.10673054676607 5.959719467518625 C-25.793611947498295 5.654438702636792, -25.564665144668634 4.013556993286189, -25.564665144668634 3.441156039510601 C-25.564665144668634 2.868755085735013, -25.29753406721027 2.716114062790295, -25.10673054676607 2.5253137448650986 C-24.915927026321867 2.3345134269399024, -24.610642418417214 2.5253143853688975, -24.419844022003417 2.2963541319594225 C-24.22904562558962 2.0673938785499475, -24.3053783066342 1.4949922842705592, -23.96194016828329 1.1515522244082472 C-23.618502029932383 0.8081121645459353, -22.70265845427928 0.5791538326478634, -22.359215191897963 0.2357137727855514 C-22.015771929516646 -0.10772628707676063, -22.55000334025094 -0.7946076878089868, -21.90128059399539 -0.909088134765625 C-21.252557847739844 -1.023568581722263, -19.039279027636454 -0.5274887799228354, -18.466878714364668 -0.45116890895427747 M-18.466878714364668 -0.45116890895427747 C-18.962961718683104 0.5028326806717016, -20.336734768208377 4.204359232722781, -21.443376740275276 5.272840628801598 C-22.550018712342176 6.341322024880415, -24.419849146033844 6.265000232400459, -25.10673054676607 5.959719467518625 C-25.793611947498295 5.654438702636792, -25.564665144668634 4.013556993286189, -25.564665144668634 3.441156039510601 C-25.564665144668634 2.868755085735013, -25.29753406721027 2.716114062790295, -25.10673054676607 2.5253137448650986 C-24.915927026321867 2.3345134269399024, -24.610642418417214 2.5253143853688975, -24.419844022003417 2.2963541319594225 C-24.22904562558962 2.0673938785499475, -24.3053783066342 1.4949922842705592, -23.96194016828329 1.1515522244082472 C-23.618502029932383 0.8081121645459353, -22.70265845427928 0.5791538326478634, -22.359215191897963 0.2357137727855514 C-22.015771929516646 -0.10772628707676063, -22.55000334025094 -0.7946076878089868, -21.90128059399539 -0.909088134765625 C-21.252557847739844 -1.023568581722263, -19.039279027636454 -0.5274887799228354, -18.466878714364668 -0.45116890895427747" stroke="#000000" stroke-width="1" fill="none"></path></g></g></svg>